<svg width="402.51971" height="303.07867" xmlns="http://www.w3.org/2000/svg" xmlns:xlink="http://www.w3.org/1999/xlink">
 <metadata id="metadata187">image/svg+xml</metadata>
 <defs>
  <linearGradient id="grad5">
   <stop offset="0%" stop-color="#15bef0" id="stop41"/>
   <stop offset="100%" stop-color="#0481a3" id="stop43"/>
  </linearGradient>
  <linearGradient xlink:href="#grad5" id="grad6" x1="0" y1="0" x2="0" y2="1" gradientUnits="objectBoundingBox"/>
  <linearGradient id="grad7">
   <stop offset="0%" stop-color="#30d6ff" id="stop59"/>
   <stop offset="100%" stop-color="#a6eeff" id="stop61"/>
  </linearGradient>
  <linearGradient xlink:href="#grad7" id="grad8" x1="0" y1="0" x2="0" y2="1" gradientTransform="matrix(0.8660254,-0.5,0.5,0.8660254,-0.1830127,0.3169873)" gradientUnits="objectBoundingBox"/>
  <linearGradient id="grad9">
   <stop offset="0%" stop-color="#3195ba" id="stop71"/>
   <stop offset="100%" stop-color="#b1d7e5" id="stop73"/>
  </linearGradient>
  <linearGradient xlink:href="#grad9" id="grad10" x1="0" y1="0" x2="0" y2="1" gradientTransform="matrix(0.48480962,-0.87461971,0.87461971,0.48480962,-0.17971466,0.69490504)" gradientUnits="objectBoundingBox"/>
  <linearGradient id="grad11">
   <stop offset="0%" stop-color="#dfeff5" id="stop95"/>
   <stop offset="100%" stop-color="#e9f4f8" id="stop97"/>
  </linearGradient>
  <linearGradient xlink:href="#grad11" id="grad12" x1="0" y1="0" x2="0" y2="1" gradientTransform="matrix(0.87461971,-0.48480962,0.48480962,0.87461971,-0.17971466,0.30509496)" gradientUnits="objectBoundingBox"/>
  <linearGradient id="grad13">
   <stop offset="0%" stop-color="#dfeff5" id="stop105"/>
   <stop offset="100%" stop-color="#e9f4f8" id="stop107"/>
  </linearGradient>
  <linearGradient xlink:href="#grad13" id="grad14" x1="0" y1="0" x2="0" y2="1" gradientTransform="matrix(0.87461971,-0.48480962,0.48480962,0.87461971,-0.17971466,0.30509496)" gradientUnits="objectBoundingBox"/>
  <linearGradient id="grad15">
   <stop offset="0%" stop-color="#c7e5ff" id="stop115"/>
   <stop offset="100%" stop-color="#d1eaff" id="stop117"/>
  </linearGradient>
  <linearGradient xlink:href="#grad15" id="grad16" x1="0" y1="0" x2="0" y2="1" gradientTransform="matrix(0.83867057,-0.54463904,0.54463904,0.83867057,-0.1916548,0.35298423)" gradientUnits="objectBoundingBox"/>
  <linearGradient id="grad17">
   <stop offset="0%" stop-color="#c7e5ff" id="stop125"/>
   <stop offset="100%" stop-color="#d6ecff" id="stop127"/>
  </linearGradient>
 </defs>
 <g>
  <title>background</title>
  <rect fill="none" id="canvas_background" height="305.07867" width="404.51971" y="-1" x="-1"/>
 </g>
 <g>
  <title>Layer 1</title>
  <g stroke="null" id="g32">
   <g stroke="null" id="g34">
    <path stroke="null" fill="#474747" fill-rule="evenodd" d="m1,269.843558l0,-37.440136l13.141307,0c2.965933,0 5.229964,0.174109 6.792825,0.531998c2.184867,0.495815 4.048699,1.393585 5.594413,2.684352c2.015229,1.673376 3.516071,3.799578 4.510188,6.396517c1.003602,2.597298 1.500842,5.569323 1.500842,8.906761c0,2.840548 -0.337088,5.359748 -1.011627,7.556166c-0.674905,2.19606 -1.545714,4.017751 -2.602214,5.455758c-1.065985,1.437649 -2.219524,2.571146 -3.480319,3.389742c-1.252404,0.828628 -2.770393,1.45592 -4.547034,1.882593c-1.784302,0.427032 -3.827257,0.636248 -6.135066,0.636248l-13.763314,0zm5.061421,-4.392836l8.133149,0c2.513564,0 4.484651,-0.226413 5.913989,-0.688194c1.428974,-0.461782 2.566462,-1.10627 3.418666,-1.942779c1.189292,-1.177561 2.122484,-2.763525 2.787904,-4.750368c0.665784,-1.987201 1.003602,-4.391762 1.003602,-7.224428c0,-3.92174 -0.657394,-6.93783 -1.961966,-9.047194c-1.305667,-2.109006 -2.895159,-3.520861 -4.768475,-4.235207c-1.349445,-0.514086 -3.525192,-0.766651 -6.526511,-0.766651l-8.000357,0l0,28.654821zm35.822483,4.392836l14.633029,-37.440136l5.549176,0l15.529375,37.440136l-5.744351,0l-4.413147,-11.347504l-16.062368,0l-4.137348,11.347504l-5.354366,0zm10.973951,-15.373495l12.999759,0l-3.97829,-10.379518c-1.198412,-3.155448 -2.103879,-5.760269 -2.735006,-7.817687c-0.523507,2.440027 -1.225043,4.836706 -2.103879,7.207591l-4.182585,10.989614zm41.07762,15.373495l0,-33.047658l-12.572928,0l0,-4.392478l30.207276,0l0,4.392478l-12.572928,0l0,33.047658l-5.061421,0zm21.304736,0l14.633029,-37.440136l5.549541,0l15.529375,37.440136l-5.744351,0l-4.413147,-11.347504l-16.062368,0l-4.137348,11.347504l-5.354731,0zm10.974316,-15.373495l12.999759,0l-3.97829,-10.379518c-1.198412,-3.155448 -2.103879,-5.760269 -2.735006,-7.817687c-0.523507,2.440027 -1.225043,4.836706 -2.103879,7.207591l-4.182585,10.989614z" id="path36"/>

    <path stroke="null" fill="url(#grad6)" d="m161.335473,269.843558l0,-37.440136l5.060326,0l0,18.562618l18.9495,-18.562618l6.836602,0l-16.001079,15.18219l16.69313,22.257946l-6.658938,0l-13.576529,-18.894356l-6.242686,5.926854l0,12.967501l-5.060326,0zm42.44567,0l0,-37.440136l27.543044,0l0,4.392478l-22.481259,0l0,11.504058l21.0428,0l0,4.392836l-21.0428,0l0,12.757926l23.38782,0l0,4.392836l-28.449605,0zm42.126458,0l0,-37.440136l16.905086,0c3.401885,0 5.985493,0.339619 7.752649,1.010976c1.767156,0.671357 3.177889,1.856799 4.235483,3.555969c1.056864,1.699528 1.580371,3.582121 1.580371,5.638106c0,2.6582 -0.878835,4.897608 -2.628845,6.719299c-1.74855,1.821691 -4.447805,2.972025 -8.106518,3.468915c1.340324,0.627292 2.353046,1.255659 3.045097,1.864681c1.474211,1.324801 2.868892,2.989937 4.173465,4.986095l6.59765,10.196095l-6.304705,0l-5.04318,-7.791535c-1.464726,-2.25732 -2.681743,-3.973686 -3.630987,-5.168085c-0.959824,-1.193324 -1.812028,-2.021951 -2.566462,-2.500929c-0.746408,-0.471096 -1.517988,-0.801759 -2.300148,-0.994138c-0.56765,-0.113206 -1.500842,-0.173034 -2.805415,-0.173034l-5.842121,0l0,16.627721l-5.061421,0zm5.061421,-20.916307l10.832403,0c2.307809,0 4.101597,-0.235727 5.398143,-0.70539c1.296547,-0.46214 2.282637,-1.211595 2.948422,-2.248722c0.67454,-1.028888 1.011263,-2.144114 1.011263,-3.355709c0,-1.769387 -0.647909,-3.233188 -1.952846,-4.374566c-1.305667,-1.142094 -3.365768,-1.708485 -6.180303,-1.708485l-12.057082,0l0,12.392872zm39.843456,20.916307l0,-37.440136l5.185822,0l20.014026,29.38708l0,-29.38708l4.848005,0l0,37.440136l-5.185822,0l-20.014026,-29.38708l0,29.38708l-4.848005,0zm45.225548,0l0,-37.440136l27.542679,0l0,4.392478l-22.481259,0l0,11.504058l21.0428,0l0,4.392836l-21.0428,0l0,12.757926l23.38782,0l0,4.392836l-28.44924,0zm41.806517,0l0,-37.440136l5.060326,0l0,33.047299l18.753231,0l0,4.392836l-23.813557,0z" id="path46"/>
   </g>
   <path stroke="null" fill="#4d4d4d" fill-rule="evenodd" d="m95.465502,297.039594l0,-10.671848l7.472472,0l0,1.80342l-5.269729,0l0,2.533888l4.55506,0l0,1.80342l-4.55506,0l0,4.53112l-2.202743,0zm23.124789,0l0,-10.671848l4.625833,0c1.160106,0 2.005014,0.097443 2.532534,0.28839c0.52825,0.190946 0.94815,0.531998 1.264443,1.020648c0.317752,0.492233 0.476811,1.050741 0.476811,1.681616c0,0.803192 -0.238953,1.463443 -0.716493,1.98541c-0.477906,0.521967 -1.19148,0.849764 -2.143643,0.985898c0.472433,0.271194 0.863513,0.56854 1.169592,0.894545c0.308997,0.324931 0.72379,0.90386 1.244743,1.733562l1.326097,2.081779l-2.623738,0l-1.574899,-2.330403c-0.563637,-0.826836 -0.951433,-1.348804 -1.162295,-1.565185c-0.206849,-0.213158 -0.427196,-0.362547 -0.659947,-0.44172c-0.235669,-0.079173 -0.604861,-0.11858 -1.110492,-0.11858l-0.445802,0l0,4.455888l-2.202743,0zm2.202743,-6.156133l1.624514,0c1.053946,0 1.708421,-0.044423 1.972181,-0.130761c0.260477,-0.087413 0.467326,-0.238593 0.614346,-0.452109c0.148844,-0.214232 0.222171,-0.482202 0.222171,-0.803192c0,-0.359323 -0.098135,-0.647712 -0.29258,-0.871259c-0.19554,-0.221397 -0.470609,-0.360397 -0.825208,-0.417359c-0.179853,-0.025077 -0.713575,-0.037616 -1.601895,-0.037616l-1.713528,0l0,2.712295zm32.408195,6.156133l-2.371287,0l-0.940124,-2.428921l-4.35952,0l-0.904008,2.428921l-2.327874,0l4.221255,-10.671848l2.325685,0l4.355872,10.671848zm-4.023891,-4.2327l-1.511787,-3.9504l-1.466185,3.9504l2.977971,0zm19.014437,4.2327l0,-10.671848l3.297913,0l1.949198,7.278882l1.926579,-7.278882l3.304115,0l0,10.671848l-2.035294,0l-0.007296,-8.401273l-2.143643,8.401273l-2.115917,0l-2.133429,-8.401273l-0.007296,8.401273l-2.035294,0l0.000365,0zm26.529228,0l0,-10.671848l8.048512,0l0,1.80342l-5.845769,0l0,2.370168l5.436449,0l0,1.80342l-5.436449,0l0,2.891419l6.05882,0l0,1.80342l-8.261563,0zm25.473458,0l-2.557342,-10.671848l2.262572,0l1.617218,7.330828l1.984585,-7.330828l2.616441,0l1.898489,7.454782l1.655523,-7.454782l2.208945,0l-2.61936,10.671848l-2.350492,0l-2.143643,-7.978899l-2.15933,7.978899l-2.413605,0zm26.23227,-5.271619c0,-1.087641 0.167814,-2.001531 0.499429,-2.741672c0.245155,-0.544537 0.584431,-1.033904 1.011627,-1.466309c0.427926,-0.431689 0.895617,-0.752679 1.405261,-0.963687c0.678553,-0.280508 1.460348,-0.422733 2.34648,-0.422733c1.604814,0 2.884214,0.489725 3.848781,1.466667c0.962013,0.977659 1.442837,2.337568 1.442837,4.078295c0,1.726039 -0.479,3.077708 -1.432257,4.051784c-0.954717,0.975867 -2.231563,1.463085 -3.829446,1.463085c-1.617218,0 -2.905738,-0.484351 -3.859361,-1.45592c-0.955446,-0.969061 -1.433352,-2.305326 -1.433352,-4.009511zm2.262937,-0.072008c0,1.21052 0.285284,2.12656 0.856217,2.753136c0.568744,0.623351 1.292534,0.936102 2.168451,0.936102c0.877741,0 1.597518,-0.310601 2.161154,-0.928937c0.561448,-0.62156 0.843084,-1.549781 0.843084,-2.789677c0,-1.22485 -0.273245,-2.13874 -0.822289,-2.73988c-0.54722,-0.604364 -1.273928,-0.904934 -2.181949,-0.904934c-0.906926,0 -1.638012,0.305944 -2.191434,0.914965c-0.555246,0.610455 -0.833234,1.529361 -0.833234,2.759226zm23.853686,5.343627l0,-10.671848l4.624739,0c1.161201,0 2.006109,0.097443 2.532534,0.28839c0.529344,0.190946 0.949244,0.531998 1.265538,1.020648c0.316658,0.492233 0.475717,1.050741 0.475717,1.681616c0,0.803192 -0.237858,1.463443 -0.715399,1.98541c-0.477906,0.521967 -1.19221,0.849764 -2.143643,0.985898c0.472433,0.271194 0.862419,0.56854 1.168497,0.894545c0.310091,0.324931 0.724884,0.90386 1.246202,1.733562l1.325732,2.081779l-2.624832,0l-1.573805,-2.330403c-0.564731,-0.826836 -0.952528,-1.348804 -1.162295,-1.565185c-0.206849,-0.213158 -0.427196,-0.362547 -0.659947,-0.44172c-0.235669,-0.079173 -0.605955,-0.11858 -1.111586,-0.11858l-0.444707,0l0,4.455888l-2.202743,0zm2.202743,-6.156133l1.624514,0c1.052851,0 1.708421,-0.044423 1.972181,-0.130761c0.260477,-0.087413 0.467326,-0.238593 0.614346,-0.452109c0.148844,-0.214232 0.222171,-0.482202 0.222171,-0.803192c0,-0.359323 -0.098135,-0.647712 -0.29258,-0.871259c-0.19554,-0.221397 -0.470609,-0.360397 -0.825208,-0.417359c-0.179853,-0.025077 -0.714669,-0.037616 -1.601895,-0.037616l-1.713528,0l0,2.712295zm22.643965,6.156133l0,-10.671848l2.201649,0l0,4.727082l4.436495,-4.727082l2.95134,0l-4.102326,4.156393l4.315377,6.515456l-2.840802,0l-2.99074,-5.010456l-1.769345,1.783358l0,3.227098l-2.201649,0z" id="path48"/>
   <g stroke="null" id="g50">
    <path stroke="null" fill="#c7e5ff" fill-rule="evenodd" d="m116.293791,149.361187l42.504405,-24.096832l-0.014593,-48.203338l-42.481786,-24.098982l-0.010944,96.399152l0.002919,0z" id="path52"/>
    <path stroke="null" fill="#1ca8dd" fill-rule="evenodd" d="m158.792723,125.247875l42.504405,-24.117253l-0.001824,48.221608l-42.502581,-24.104356z" id="path54"/>

    <path stroke="null" fill="url(#grad8)" d="m243.829624,125.238561l-42.545629,-24.109729l0.007296,48.223399l42.539792,-24.11367l-0.001459,0z" id="path64"/>
    <path stroke="null" fill="#1e8bb3" fill-rule="evenodd" d="m158.790899,125.249667l0.014593,-48.219817l42.515714,24.093608l-42.528482,24.126209l-0.001824,0z" id="path66"/>

    <path stroke="null" fill="url(#grad10)" d="m243.811018,125.22029l0,-48.170379l-42.50477,24.115461l42.50477,24.054917z" id="path76"/>
    <path stroke="null" fill="#00ccff" fill-rule="evenodd" d="m158.811329,77.059226l42.485799,24.066023l0.003648,-48.188649l-42.489447,24.122626z" id="path78"/>
    <path stroke="null" fill="#1ca8dd" fill-rule="evenodd" d="m243.872307,77.020894l-42.573354,24.139106l-0.003648,-48.210502l42.577003,24.071397z" id="path80"/>
    <path stroke="null" fill="#eaf4f7" fill-rule="evenodd" d="m158.783238,173.451213l42.512066,-24.100773l-0.003648,48.192232l-42.506594,-24.091459l-0.001824,0z" id="path82"/>
    <path stroke="null" fill="#c7e5ff" fill-rule="evenodd" d="m158.798196,173.442973l-0.003648,-48.199755l42.517538,24.107938l-42.512066,24.091817l-0.001824,0z" id="path84"/>
    <path stroke="null" fill="#eaf4f7" fill-rule="evenodd" d="m116.290872,149.354381l42.506229,-24.091459l-0.001824,48.192232l-42.504405,-24.100773z" id="path86"/>
    <path stroke="null" fill="#c7e5ff" fill-rule="evenodd" d="m158.781414,77.089319l0.025537,-48.283585l42.526658,24.128l-42.552925,24.155585l0.00073,0z" id="path88"/>
    <path stroke="null" fill="#dfeff5" fill-rule="evenodd" d="m116.292696,52.949855l42.530671,24.148062l-0.025537,-48.29075l-42.50477,24.142688l-0.000365,0z" id="path90"/>

    <path stroke="null" fill="url(#grad12)" d="m243.819774,173.454795l-42.532495,-24.119044l-0.003648,48.228773l42.536144,-24.109729z" id="path100"/>

    <path stroke="null" fill="url(#grad14)" d="m286.334393,149.347216l-42.526658,-24.102564l0,48.216234l42.526658,-24.11367z" id="path110"/>

    <path stroke="null" fill="url(#grad16)" d="m243.812113,173.450138l-0.003648,-48.195814l-42.506229,24.095041l42.509877,24.100773z" id="path120"/>

    <path stroke="null" fill="url(#grad17)" d="m286.344973,149.362978l-42.536144,-24.113312l-0.001824,-48.219817l42.537968,-24.060291l0,96.39342z" id="path129"/>
    <path stroke="null" fill="#edf4f7" fill-rule="evenodd" d="m201.302965,197.578138l-2.20858,-94.839698l-82.742224,-49.765657l85.422873,46.31752l84.572128,-46.355495l-82.951992,49.735564l-2.092205,94.907766z" id="path131"/>
    <path stroke="null" fill="#dfeff5" fill-rule="evenodd" d="m158.788346,28.812541l42.508053,-24.020526l0.010944,48.157482l-42.518997,-24.136956z" id="path133"/>
    <path stroke="null" fill="#eaf4f7" fill-rule="evenodd" d="m243.849323,28.84335l-42.556573,-24.082502l0.018241,48.192232l42.539792,-24.109729l-0.001459,0z" id="path135"/>
    <path stroke="null" fill="#c7e5ff" fill-rule="evenodd" d="m201.301506,52.950213l42.519362,24.071397l-0.003648,-48.17217l-42.515714,24.100773z" id="path137"/>
    <path stroke="null" fill="#eaf4f7" fill-rule="evenodd" d="m286.367226,52.941257l-42.552925,-24.109729l-0.003648,48.218026l42.556573,-24.108296z" id="path139"/>
   </g>
  </g>
  <g id="g153">
   <path fill="#ffffff" fill-rule="evenodd" d="m254.2915,378.1027l0,-8.1304l2.8024,0c0.6324,0 1.1152,0.0379 1.4485,0.1156c0.4659,0.1077 0.8634,0.3026 1.193,0.5829c0.4297,0.3634 0.7497,0.8251 0.9617,1.3891c0.214,0.564 0.3201,1.2093 0.3201,1.9341c0,0.6168 -0.0719,1.1639 -0.2158,1.6408c-0.1439,0.477 -0.3296,0.8725 -0.5549,1.1848c-0.2273,0.3122 -0.4732,0.5583 -0.7421,0.736c-0.2671,0.18 -0.5908,0.3162 -0.9696,0.4089c-0.3805,0.0927 -0.8162,0.1382 -1.3084,0.1382l-2.9349,0zm1.0793,-0.9539l1.7344,0c0.536,0 0.9563,-0.0492 1.2611,-0.1495c0.3048,-0.1003 0.5473,-0.2402 0.7291,-0.4219c0.2536,-0.2557 0.4526,-0.6001 0.5945,-1.0316c0.1419,-0.4315 0.214,-0.9537 0.214,-1.5688c0,-0.8516 -0.1402,-1.5066 -0.4184,-1.9646c-0.2785,-0.458 -0.6174,-0.7646 -1.0169,-0.9197c-0.2878,-0.1116 -0.7517,-0.1665 -1.3917,-0.1665l-1.7061,0l0,6.2226zm7.639,0.9539l3.1204,-8.1304l1.1834,0l3.3116,8.1304l-1.225,0l-0.9411,-2.4642l-3.4252,0l-0.8823,2.4642l-1.1418,0zm2.3402,-3.3385l2.7721,0l-0.8483,-2.2539c-0.2556,-0.6852 -0.4487,-1.2509 -0.5832,-1.6976c-0.1117,0.5298 -0.2613,1.0502 -0.4487,1.5651l-0.8919,2.3864zm8.7596,3.3385l0,-7.1765l-2.6811,0l0,-0.9539l6.4416,0l0,0.9539l-2.6811,0l0,7.1765l-1.0794,0zm4.5432,0l3.1204,-8.1304l1.1834,0l3.3116,8.1304l-1.225,0l-0.9411,-2.4642l-3.4252,0l-0.8823,2.4642l-1.1418,0zm2.3402,-3.3385l2.7721,0l-0.8483,-2.2539c-0.2556,-0.6852 -0.4487,-1.2509 -0.5832,-1.6976c-0.1117,0.5298 -0.2613,1.0502 -0.4487,1.5651l-0.8919,2.3864zm7.4894,3.3385l0,-8.1304l1.0791,0l0,4.031l4.0409,-4.031l1.4579,0l-3.4122,3.2969l3.5598,4.8335l-1.4201,0l-2.8951,-4.1031l-1.3312,1.2871l0,2.816l-1.0791,0zm9.0514,0l0,-8.1304l5.8734,0l0,0.9539l-4.7941,0l0,2.4981l4.4873,0l0,0.954l-4.4873,0l0,2.7705l4.9874,0l0,0.9539l-6.0667,0zm8.9832,0l0,-8.1304l3.605,0c0.7254,0 1.2764,0.0738 1.6532,0.2196c0.3769,0.1458 0.6777,0.4032 0.9032,0.7722c0.2254,0.369 0.337,0.7779 0.337,1.2244c0,0.5772 -0.1874,1.0635 -0.5605,1.4591c-0.3729,0.3956 -0.9485,0.6453 -1.7288,0.7533c0.2859,0.1362 0.5018,0.2726 0.6494,0.4049c0.3144,0.2876 0.6118,0.6493 0.89,1.0827l1.4069,2.2142l-1.3445,0l-1.0754,-1.692c-0.3124,-0.4902 -0.5719,-0.8629 -0.7743,-1.1223c-0.2047,-0.2591 -0.3864,-0.4391 -0.5473,-0.5431c-0.1591,-0.1023 -0.3237,-0.1741 -0.4905,-0.2158c-0.121,-0.0246 -0.32,-0.0377 -0.5982,-0.0377l-1.2458,0l0,3.6109l-1.0794,0zm1.0794,-4.5421l2.3099,0c0.4922,0 0.8747,-0.0512 1.1512,-0.1532c0.2764,-0.1003 0.4868,-0.2631 0.6287,-0.4883c0.1439,-0.2235 0.2157,-0.4656 0.2157,-0.7287c0,-0.3843 -0.1382,-0.7021 -0.4164,-0.95c-0.2785,-0.248 -0.7178,-0.3709 -1.318,-0.3709l-2.5711,0l0,2.6911zm8.4964,4.5421l0,-8.1304l1.1059,0l4.2679,6.3816l0,-6.3816l1.0338,0l0,8.1304l-1.1059,0l-4.2679,-6.3816l0,6.3816l-1.0338,0zm9.6442,0l0,-8.1304l5.8734,0l0,0.9539l-4.7941,0l0,2.4981l4.4873,0l0,0.954l-4.4873,0l0,2.7705l4.9874,0l0,0.9539l-6.0667,0zm8.9151,0l0,-8.1304l1.0791,0l0,7.1765l3.999,0l0,0.9539l-5.0781,0z" id="path155"/>
   <path fill="#ffffff" fill-rule="evenodd" d="m274.388,384.5083l0,-2.3224l1.5968,0l0,0.3923l-1.1259,0l0,0.5517l0.9734,0l0,0.3923l-0.9734,0l0,0.9861l-0.4709,0zm4.942,0l0,-2.3224l0.9884,0c0.248,0 0.4289,0.021 0.5414,0.0627c0.1128,0.0416 0.2027,0.1156 0.2702,0.2222c0.0677,0.1072 0.1017,0.2288 0.1017,0.366c0,0.1746 -0.0507,0.3183 -0.1531,0.432c-0.102,0.1133 -0.2545,0.1848 -0.458,0.2145c0.1009,0.059 0.1845,0.1239 0.25,0.1948c0.066,0.0706 0.1545,0.1967 0.2659,0.3773l0.2837,0.4529l-0.561,0l-0.3364,-0.5071c-0.1208,-0.18 -0.2033,-0.2936 -0.2483,-0.3404c-0.0443,-0.0465 -0.0913,-0.0791 -0.1415,-0.0964c-0.0502,-0.0173 -0.129,-0.0258 -0.2373,-0.0258l-0.0949,0l0,0.9697l-0.4708,0zm0.4708,-1.3396l0.3469,0c0.2251,0 0.3652,-0.01 0.4216,-0.0286c0.0555,-0.019 0.0997,-0.0519 0.1312,-0.0984c0.0323,-0.0465 0.0479,-0.1049 0.0479,-0.1746c0,-0.0785 -0.021,-0.1412 -0.0629,-0.1899c-0.0417,-0.0479 -0.1006,-0.0783 -0.1763,-0.0907c-0.0383,-0.005 -0.1525,-0.008 -0.3422,-0.008l-0.3662,0l0,0.5905l0,-0.0003zm6.9256,1.3396l-0.5068,0l-0.2005,-0.5286l-0.9323,0l-0.1927,0.5286l-0.4978,0l0.9023,-2.3224l0.4969,0l0.9309,2.3224zm-0.8598,-0.9212l-0.3231,-0.8595l-0.3138,0.8595l0.6369,0zm4.0632,0.9212l0,-2.3224l0.7047,0l0.4167,1.584l0.4113,-1.584l0.7067,0l0,2.3224l-0.4348,0l-0.002,-1.8283l-0.4581,1.8283l-0.4524,0l-0.4556,-1.8283l-0.002,1.8283l-0.4351,0l0.0006,0zm5.6693,0l0,-2.3224l1.7201,0l0,0.3923l-1.2492,0l0,0.5159l1.1616,0l0,0.3924l-1.1616,0l0,0.6292l1.2945,0l0,0.3926l-1.7654,0zm5.4431,0l-0.5465,-2.3224l0.4836,0l0.3458,1.5954l0.4241,-1.5954l0.5592,0l0.4057,1.6223l0.3537,-1.6223l0.4723,0l-0.5598,2.3224l-0.5026,0l-0.4581,-1.7365l-0.4615,1.7365l-0.5159,0zm5.6058,-1.1471c0,-0.2367 0.0357,-0.4357 0.1069,-0.597c0.0524,-0.1182 0.1247,-0.2248 0.2162,-0.3189c0.0913,-0.0941 0.1914,-0.1639 0.3,-0.2098c0.1451,-0.0609 0.3123,-0.0918 0.5014,-0.0918c0.343,0 0.6165,0.1066 0.8229,0.3189c0.2055,0.2131 0.3081,0.5088 0.3081,0.8878c0,0.3756 -0.1023,0.6698 -0.3061,0.8816c-0.2041,0.2126 -0.4771,0.3186 -0.8184,0.3186c-0.3455,0 -0.6208,-0.1055 -0.8246,-0.3169c-0.2038,-0.2109 -0.3064,-0.5018 -0.3064,-0.8725zm0.4836,-0.0156c0,0.263 0.0612,0.4626 0.1831,0.5989c0.1216,0.1358 0.2761,0.2038 0.4632,0.2038c0.1879,0 0.3416,-0.0677 0.462,-0.2021c0.1199,-0.1352 0.18,-0.3376 0.18,-0.6071c0,-0.2665 -0.0584,-0.4655 -0.1757,-0.5965c-0.1168,-0.1312 -0.2719,-0.1967 -0.4663,-0.1967c-0.1936,0 -0.3498,0.0666 -0.468,0.199c-0.1188,0.133 -0.1783,0.3331 -0.1783,0.6007zm5.0975,1.1627l0,-2.3224l0.9885,0c0.248,0 0.4289,0.021 0.5414,0.0627c0.1128,0.0416 0.2027,0.1156 0.2701,0.2222c0.0681,0.1072 0.1021,0.2288 0.1021,0.366c0,0.1746 -0.051,0.3183 -0.1534,0.432c-0.102,0.1133 -0.2545,0.1848 -0.4578,0.2145c0.1009,0.059 0.1843,0.1239 0.2498,0.1948c0.066,0.0706 0.1545,0.1967 0.2659,0.3773l0.2837,0.4529l-0.561,0l-0.3364,-0.5071c-0.1208,-0.18 -0.2033,-0.2936 -0.2484,-0.3404c-0.0442,-0.0465 -0.0912,-0.0791 -0.1411,-0.0964c-0.0502,-0.0173 -0.1293,-0.0258 -0.2376,-0.0258l-0.0949,0l0,0.9697l-0.4709,0zm0.4709,-1.3396l0.3472,0c0.2248,0 0.3648,-0.01 0.4212,-0.0286c0.0559,-0.019 0.1001,-0.0519 0.1316,-0.0984c0.032,-0.0465 0.0476,-0.1049 0.0476,-0.1746c0,-0.0785 -0.021,-0.1412 -0.0627,-0.1899c-0.0416,-0.0479 -0.1009,-0.0783 -0.1766,-0.0907c-0.0382,-0.005 -0.1525,-0.008 -0.3421,-0.008l-0.3662,0l0,0.5905l0,-0.0003zm4.839,1.3396l0,-2.3224l0.4703,0l0,1.0287l0.9484,-1.0287l0.6305,0l-0.8765,0.9046l0.9221,1.4178l-0.6069,0l-0.6392,-1.0904l-0.3784,0.3883l0,0.7021l-0.4703,0z" id="path157"/>
   <path fill="#ffffff" fill-rule="evenodd" d="m304.6711,345.4376l0,-7.7108l-6.7323,3.9021l0,7.7338l6.7323,-3.9251zm-16.5835,0.4422l-0.003,-9.5851l-0.0107,-0.0173l-0.0114,-0.0212l-5.7614,-3.3313l-2.2416,-1.2952l-0.002,18.8847l8.0297,-4.6346l0.0004,0zm0.9694,-9.7623l7.962,4.5961l8.0181,-4.6284l-7.9733,-4.5961l-8.0068,4.6284zm16.2752,0.4811l-8.0176,4.6281l-0.0215,9.2914l8.0393,-4.6403l-0.0002,-9.2792zm-8.6313,13.9085l0.0213,-9.281l-8.0447,-4.644l0.002,9.2934l8.0209,4.6316l0.0005,0zm-8.02,-3.9453l0,8.9277l7.7309,-4.4637l-7.7309,-4.464zm-9.0525,4.7319l-0.0161,-0.009l-0.0102,-0.006l-0.003,-0.002l-0.003,-0.002l-0.003,-0.002l-0.003,-0.002l-0.003,-0.002l-0.002,-0.002l-0.004,-0.003l-0.002,-0.001l-0.004,-0.003l-0.002,-0.001l-0.004,-0.003l-0.001,-0.001l-0.004,-0.004l-0.001,-0.001l-0.004,-0.004l-0.0008,-0.001l-0.005,-0.004l-0.0006,-0.0008l-0.005,-0.005l-0.0003,-0.0006l-0.005,-0.005l0,-0.0003l-0.005,-0.005l0,-0.0003l-0.004,-0.005l0,-0.0003l-0.013,-0.017l-0.0003,0l-0.0116,-0.0178l-0.0003,0l-0.003,-0.006l-0.0003,0l-0.003,-0.006l-0.0003,0l-0.003,-0.006l-0.0003,0l-0.003,-0.006l-0.0002,0l-0.003,-0.007l-0.0003,0l-0.002,-0.007l-0.0003,0c-0.0195,-0.0448 -0.0272,-0.0938 -0.023,-0.1432l0.002,-19.849c-0.015,-0.1154 0.0386,-0.2339 0.1455,-0.2957c5.7384,-3.3193 11.4179,-6.6611 17.1637,-9.9677c0.1103,-0.0924 0.2713,-0.1114 0.4034,-0.0357c5.7651,3.3219 11.4659,6.6764 17.229,10.0017c0.0442,0.0253 0.0822,0.0621 0.1094,0.1095c0.0346,0.0603 0.0456,0.1278 0.036,0.1916l0,19.8734c0,0.1287 -0.0816,0.2384 -0.1962,0.2798c-5.7333,3.3108 -11.4667,6.6197 -17.2006,9.9292c-0.0453,0.028 -0.0986,0.0442 -0.1559,0.0442c-0.0723,0 -0.1383,-0.0258 -0.1899,-0.0689c-5.7288,-3.3066 -11.4548,-6.6121 -17.1834,-9.9198l-0.0011,-0.0013zm0.7271,-0.2656l7.7307,4.4637l0,-8.9266l-7.7307,4.4629zm16.3511,0.5139l-3.3823,1.9519l-4.3503,2.5118l7.7315,4.4626l0.001,-8.9263l0.0001,0zm0.5939,-0.003l-0.001,8.9334l7.7383,-4.4662l-7.7371,-4.4672l-0.0002,0zm0.2993,-0.5139l7.124,4.1142l0.6072,0.3507l0,-8.9277l-7.7312,4.4628zm8.3259,-4.4637l0,8.9314l7.7344,-4.4665l-7.7344,-4.4649zm-0.0008,-0.6851l8.0348,4.6372l0,-18.883l-3.3886,1.9516l-4.6465,2.6808l0.0003,9.6134zm0.002,-10.3028l4.4453,-2.5603l3.2967,-1.9017l-7.7428,-4.4674l0.0008,8.9294zm-0.5944,-0.001l0.0009,-8.856l-7.6774,4.4305l7.6765,4.4255zm-0.4028,-9.4386l-7.5722,-4.3633l0.002,8.7324l7.5699,-4.3691l0.0003,0zm-8.2774,0.007l-0.001,-4.3648l-7.5586,4.3495l7.5608,4.3682l-0.0008,-4.3529l-0.0004,0zm-0.3527,4.9723l-7.5614,-4.3713l-0.005,8.7448l7.5659,-4.3735l0.0005,0zm-8.2723,4.4336l0.005,-8.8747l-7.6773,4.4411l2.139,1.237l5.5338,3.1966l-0.0005,0zm1.2804,9.8907l0,-7.7108l6.7323,3.9021l0,7.7338l-6.7323,-3.9251zm7.7255,-13.1845l6.6779,3.8554l-6.7456,3.8792l-6.6977,-3.8668l6.7654,-3.8678z" id="path159"/>
  </g>
 </g>
</svg>