<svg xmlns="http://www.w3.org/2000/svg" xmlns:xlink="http://www.w3.org/1999/xlink" width="198" height="132" viewBox="0 0 198 132">
    <defs>
        <path id="b" d="M5.956 4.228A8.388 8.388 0 0 1 8 5.928c.858-2.711 3.469-3.552 6.56-1.79 2.58 1.45 4.79 4.314 5.971 7.347.455.028.897.166 1.285.403a6.56 6.56 0 0 1 3.042 5.158v.117c.55.053 1.081.23 1.552.514 2.139 1.213 3.869 4.17 3.869 6.6 0 2.429-1.73 3.413-3.869 2.196L5.98 14.841c-2.602-1.459-4.69-5.025-4.69-7.955 0-2.93 2.088-4.121 4.667-2.658z"/>
        <filter id="a" width="389.8%" height="453.2%" x="-144.9%" y="-126.1%" filterUnits="objectBoundingBox">
            <feOffset dy="12" in="SourceAlpha" result="shadowOffsetOuter1"/>
            <feGaussianBlur in="shadowOffsetOuter1" result="shadowBlurOuter1" stdDeviation="12"/>
            <feColorMatrix in="shadowBlurOuter1" values="0 0 0 0 0 0 0 0 0 0 0 0 0 0 0 0 0 0 0.1 0"/>
        </filter>
        <linearGradient id="c" x1="126.925%" x2="26.481%" y1="78.897%" y2="32.193%">
            <stop offset="0%" stop-color="#5761D7"/>
            <stop offset="18%" stop-color="#5C66D9"/>
            <stop offset="39%" stop-color="#6A73DF"/>
            <stop offset="61%" stop-color="#8289E8"/>
            <stop offset="85%" stop-color="#A3A7F5"/>
            <stop offset="100%" stop-color="#BCBEFF"/>
        </linearGradient>
        <radialGradient id="d" cx="76.501%" cy="33.985%" r="51.698%" fx="76.501%" fy="33.985%" gradientTransform="matrix(-.92273 0 0 -1 1.47 .68)">
            <stop offset="0%" stop-color="#2B237C"/>
            <stop offset="100%" stop-color="#180D5B"/>
        </radialGradient>
        <linearGradient id="e" x1="50%" x2="50%" y1="0%" y2="100%">
            <stop offset="0%" stop-color="#EFFFFC"/>
            <stop offset="100%" stop-color="#7EF1DA"/>
        </linearGradient>
        <path id="g" d="M19.74 14.25a27.913 27.913 0 0 1 6.772 5.73c2.844-9.138 11.496-11.973 21.743-6.032 8.547 4.886 15.875 14.537 19.787 24.76a9.135 9.135 0 0 1 4.258 1.358 22.176 22.176 0 0 1 10.082 17.386v.392c1.824.18 3.584.774 5.146 1.735 7.087 4.086 12.82 14.054 12.82 22.242s-5.733 11.505-12.82 7.404L19.816 50.018c-8.622-4.916-15.544-16.934-15.544-26.81 0-9.878 6.922-13.889 15.469-8.958z"/>
        <filter id="f" width="187.4%" height="204.8%" x="-43.7%" y="-37.4%" filterUnits="objectBoundingBox">
            <feOffset dy="12" in="SourceAlpha" result="shadowOffsetOuter1"/>
            <feGaussianBlur in="shadowOffsetOuter1" result="shadowBlurOuter1" stdDeviation="12"/>
            <feColorMatrix in="shadowBlurOuter1" values="0 0 0 0 0 0 0 0 0 0 0 0 0 0 0 0 0 0 0.1 0"/>
        </filter>
        <linearGradient id="h" x1="126.925%" x2="26.481%" y1="79.883%" y2="31.585%">
            <stop offset="0%" stop-color="#5761D7"/>
            <stop offset="18%" stop-color="#5C66D9"/>
            <stop offset="39%" stop-color="#6A73DF"/>
            <stop offset="61%" stop-color="#8289E8"/>
            <stop offset="85%" stop-color="#A3A7F5"/>
            <stop offset="100%" stop-color="#BCBEFF"/>
        </linearGradient>
        <radialGradient id="i" cx="76.501%" cy="33.985%" r="50.838%" fx="76.501%" fy="33.985%" gradientTransform="matrix(-.93835 0 0 -1 1.483 .68)">
            <stop offset="0%" stop-color="#2B237C"/>
            <stop offset="100%" stop-color="#180D5B"/>
        </radialGradient>
        <linearGradient id="j" x1="50%" x2="50%" y1="0%" y2="100%">
            <stop offset="0%" stop-color="#EFFFFC"/>
            <stop offset="100%" stop-color="#7EF1DA"/>
        </linearGradient>
        <path id="l" d="M8.509 6.107a12.014 12.014 0 0 1 2.919 2.456c1.225-3.916 4.955-5.131 9.372-2.585 3.684 2.094 6.842 6.23 8.529 10.611.65.04 1.28.24 1.835.582a9.494 9.494 0 0 1 4.346 7.451v.168a5.234 5.234 0 0 1 2.218.744c3.055 1.751 5.526 6.023 5.526 9.532 0 3.51-2.471 4.93-5.526 3.173L8.54 21.436c-3.716-2.106-6.7-7.257-6.7-11.49 0-4.233 2.984-5.952 6.668-3.839z"/>
        <filter id="k" width="302.8%" height="344.5%" x="-101.4%" y="-87.3%" filterUnits="objectBoundingBox">
            <feOffset dy="12" in="SourceAlpha" result="shadowOffsetOuter1"/>
            <feGaussianBlur in="shadowOffsetOuter1" result="shadowBlurOuter1" stdDeviation="12"/>
            <feColorMatrix in="shadowBlurOuter1" values="0 0 0 0 0 0 0 0 0 0 0 0 0 0 0 0 0 0 0.1 0"/>
        </filter>
        <linearGradient id="m" x1="126.925%" x2="26.481%" y1="79.543%" y2="31.795%">
            <stop offset="0%" stop-color="#5761D7"/>
            <stop offset="18%" stop-color="#5C66D9"/>
            <stop offset="39%" stop-color="#6A73DF"/>
            <stop offset="61%" stop-color="#8289E8"/>
            <stop offset="85%" stop-color="#A3A7F5"/>
            <stop offset="100%" stop-color="#BCBEFF"/>
        </linearGradient>
        <radialGradient id="n" cx="76.501%" cy="33.985%" r="51.13%" fx="76.501%" fy="33.985%" gradientTransform="matrix(-.93298 0 0 -1 1.479 .68)">
            <stop offset="0%" stop-color="#2B237C"/>
            <stop offset="100%" stop-color="#180D5B"/>
        </radialGradient>
        <linearGradient id="o" x1="50%" x2="50%" y1="0%" y2="100%">
            <stop offset="0%" stop-color="#EFFFFC"/>
            <stop offset="100%" stop-color="#7EF1DA"/>
        </linearGradient>
    </defs>
    <g fill="none" fill-rule="evenodd">
        <use fill="#000" filter="url(#a)" transform="translate(145 20)" xlink:href="#b"/>
        <path fill="url(#c)" fill-rule="nonzero" d="M10.36 1.02a8.203 8.203 0 0 1 2.048 1.696c.854-2.712 3.47-3.553 6.56-1.79 2.562 1.459 4.79 4.318 5.967 7.351.456.028.9.166 1.289.403a6.559 6.559 0 0 1 3.024 5.158.93.93 0 0 1 0 .117 3.774 3.774 0 0 1 1.557.514c2.134 1.217 3.868 4.17 3.868 6.6 0 2.429-1.743 3.409-3.877 2.196l-20.43-11.632C7.79 10.165 5.702 6.599 5.702 3.669c0-2.93 2.084-4.116 4.658-2.649z" transform="translate(145 20)"/>
        <path fill="url(#d)" fill-rule="nonzero" d="M10.36 1.02c.442.255.854.555 1.231.895l2.27-1.302c1.258-.868 3.074-.832 5.094.318 2.56 1.458 4.79 4.317 5.966 7.35.457.029.9.167 1.29.403a6.559 6.559 0 0 1 3.023 5.159.93.93 0 0 1 0 .116 3.774 3.774 0 0 1 1.557.515c2.134 1.217 3.868 4.17 3.868 6.599 0 1.204-.426 2.05-1.116 2.452l-5.612 3.208-1.221-5.817-16.35-9.283c-2.573-1.468-4.662-5.034-4.662-7.964 0-2.93 2.089-4.116 4.663-2.649z" transform="translate(145 20)"/>
        <path fill="#FFF" d="M146.509 23.946l5.67-3.244c.85-.497 2.025-.447 3.324.309.44.255.853.555 1.23.895l2.27-1.302c1.258-.868 3.074-.833 5.094.317 2.56 1.459 4.79 4.318 5.966 7.351.456.028.9.167 1.289.403a6.559 6.559 0 0 1 3.024 5.159.93.93 0 0 1 0 .116 3.774 3.774 0 0 1 1.557.514c2.134 1.217 3.868 4.17 3.868 6.6 0 1.203-.427 2.049-1.117 2.452l-5.611 3.207-1.222-5.816-16.348-9.284c-2.089-1.19-3.855-3.758-4.45-6.263l-4.544-1.414z"/>
        <path fill="url(#e)" d="M4.75 4.228a8.388 8.388 0 0 1 2.042 1.7c.858-2.711 3.469-3.552 6.56-1.79 2.58 1.45 4.79 4.314 5.971 7.347.456.028.897.166 1.285.403a6.56 6.56 0 0 1 3.042 5.158v.117c.55.053 1.081.23 1.552.514 2.139 1.213 3.869 4.17 3.869 6.6 0 2.429-1.73 3.413-3.869 2.196L4.772 14.841C2.171 13.382.082 9.816.082 6.886c0-2.93 2.089-4.121 4.667-2.658z" transform="translate(145 20)"/>
        <g>
            <use fill="#000" filter="url(#f)" transform="translate(46)" xlink:href="#g"/>
            <path fill="url(#h)" fill-rule="nonzero" d="M34.339 3.438a27.295 27.295 0 0 1 6.786 5.715C43.955.015 52.621-2.82 62.868 3.121c8.487 4.916 15.875 14.552 19.772 24.776a9.24 9.24 0 0 1 4.274 1.357A22.176 22.176 0 0 1 96.935 46.64c.008.131.008.262 0 .393 1.828.187 3.59.78 5.161 1.734 7.073 4.101 12.82 14.054 12.82 22.242s-5.778 11.49-12.85 7.404L34.354 39.206c-8.532-4.946-15.453-16.964-15.453-26.84 0-9.878 6.906-13.874 15.438-8.928z" transform="translate(46)"/>
            <path fill="url(#i)" fill-rule="nonzero" d="M34.339 3.438a24.32 24.32 0 0 1 4.078 3.016l7.523-4.388C50.108-.86 56.127-.74 62.823 3.136c8.487 4.916 15.875 14.552 19.772 24.776a9.24 9.24 0 0 1 4.274 1.357A22.176 22.176 0 0 1 96.89 46.656c.008.13.008.261 0 .392 1.828.187 3.59.78 5.161 1.734 7.072 4.101 12.82 14.054 12.82 22.242 0 4.056-1.414 6.906-3.701 8.263L92.572 90.1l-4.048-19.603-54.185-31.29c-8.532-4.946-15.453-16.964-15.453-26.84 0-9.878 6.921-13.874 15.453-8.928z" transform="translate(46)"/>
            <path fill="#FFF" d="M51 13.299L69.794 2.366C72.608.693 76.505.858 80.808 3.406a24.32 24.32 0 0 1 4.078 3.017l7.524-4.388c4.168-2.926 10.187-2.805 16.883 1.07 8.486 4.916 15.874 14.552 19.772 24.776a9.24 9.24 0 0 1 4.273 1.357 22.176 22.176 0 0 1 10.022 17.386c.008.13.008.262 0 .392 1.827.188 3.59.78 5.16 1.734 7.073 4.102 12.82 14.054 12.82 22.243 0 4.056-1.414 6.906-3.7 8.263L139.04 90.068l-4.048-19.603-54.185-31.29c-6.921-4.011-12.775-12.667-14.746-21.111L51 13.299z"/>
            <path fill="url(#j)" d="M15.74 14.25a27.913 27.913 0 0 1 6.772 5.73c2.844-9.138 11.496-11.973 21.743-6.032 8.547 4.886 15.875 14.537 19.787 24.76a9.135 9.135 0 0 1 4.258 1.358 22.176 22.176 0 0 1 10.082 17.386v.392c1.824.18 3.584.774 5.146 1.735 7.087 4.086 12.82 14.054 12.82 22.242s-5.733 11.505-12.82 7.404L15.816 50.018C7.194 45.102.272 33.084.272 23.208c0-9.878 6.922-13.889 15.469-8.958z" transform="translate(46)"/>
        </g>
        <g>
            <use fill="#000" filter="url(#k)" transform="translate(21 59)" xlink:href="#l"/>
            <path fill="url(#m)" fill-rule="nonzero" d="M14.801 1.473c1.103.653 2.09 1.48 2.925 2.45 1.22-3.917 4.956-5.132 9.372-2.585 3.658 2.107 6.843 6.236 8.523 10.618.652.04 1.285.24 1.842.581a9.493 9.493 0 0 1 4.32 7.452c.003.056.003.112 0 .168a5.35 5.35 0 0 1 2.224.743c3.048 1.758 5.526 6.023 5.526 9.532 0 3.51-2.49 4.925-5.539 3.173L14.808 16.803c-3.678-2.12-6.661-7.27-6.661-11.504 0-4.233 2.977-5.945 6.654-3.826z" transform="translate(21 59)"/>
            <path fill="url(#n)" fill-rule="nonzero" d="M14.801 1.473c.63.37 1.219.802 1.758 1.293l3.243-1.88c1.796-1.254 4.39-1.203 7.277.458 3.658 2.107 6.843 6.237 8.522 10.618.653.04 1.286.24 1.842.582a9.493 9.493 0 0 1 4.32 7.451c.003.056.003.112 0 .168a5.35 5.35 0 0 1 2.225.743c3.048 1.758 5.526 6.024 5.526 9.533 0 1.738-.61 2.96-1.596 3.541l-8.016 4.634-1.745-8.401L14.8 16.803c-3.677-2.12-6.66-7.27-6.66-11.504 0-4.233 2.983-5.945 6.66-3.826z" transform="translate(21 59)"/>
            <path fill="#FFF" d="M23.155 64.7l8.101-4.686c1.213-.717 2.893-.646 4.748.446.63.369 1.218.802 1.757 1.293l3.243-1.881c1.797-1.254 4.391-1.202 7.277.459 3.658 2.107 6.843 6.236 8.523 10.618.652.04 1.285.24 1.842.581a9.493 9.493 0 0 1 4.32 7.452c.003.056.003.112 0 .168a5.35 5.35 0 0 1 2.224.743c3.048 1.758 5.526 6.023 5.526 9.532 0 1.739-.61 2.96-1.596 3.542L61.104 97.6l-1.745-8.402-23.355-13.41c-2.984-1.719-5.507-5.428-6.356-9.047L23.155 64.7z"/>
            <path fill="url(#o)" d="M6.785 6.107a12.014 12.014 0 0 1 2.918 2.456c1.226-3.916 4.956-5.131 9.372-2.585 3.684 2.094 6.843 6.23 8.53 10.611.65.04 1.28.24 1.835.582a9.494 9.494 0 0 1 4.345 7.451v.168a5.234 5.234 0 0 1 2.219.744c3.054 1.751 5.525 6.023 5.525 9.532 0 3.51-2.47 4.93-5.525 3.173L6.817 21.436C3.101 19.33.117 14.18.117 9.946c0-4.233 2.984-5.952 6.668-3.839z" transform="translate(21 59)"/>
        </g>
    </g>
</svg>
