<svg xmlns="http://www.w3.org/2000/svg" xmlns:xlink="http://www.w3.org/1999/xlink" width="137" height="154" viewBox="0 0 137 154">
    <defs>
        <path id="b" d="M89.808 22.768a43.621 43.621 0 0 1 2.054 48.417c-9.168 15.068-26.507 23.122-43.925 20.403-17.419-2.72-31.482-15.676-35.628-32.823-4.146-17.147 2.444-35.104 16.694-45.49C48.42-.878 75.622 3.368 89.808 22.768z"/>
        <filter id="a" width="204.4%" height="204.4%" x="-52.2%" y="-37.3%" filterUnits="objectBoundingBox">
            <feOffset dy="13" in="SourceAlpha" result="shadowOffsetOuter1"/>
            <feGaussianBlur in="shadowOffsetOuter1" result="shadowBlurOuter1" stdDeviation="13"/>
            <feColorMatrix in="shadowBlurOuter1" values="0 0 0 0 0 0 0 0 0 0 0 0 0 0 0 0 0 0 0.1 0"/>
        </filter>
        <linearGradient id="c" x1="50%" x2="50%" y1="1.177%" y2="100%">
            <stop offset="0%" stop-color="#EEF3F5"/>
            <stop offset="100%" stop-color="#CDD5F2"/>
        </linearGradient>
        <radialGradient id="d" cx="48%" cy="49%" r="9%" fx="48%" fy="49%" gradientTransform="matrix(1 0 0 .99928 0 0)">
            <stop offset="0%" stop-color="#FFF"/>
            <stop offset="100%" stop-color="#C6C6C5"/>
        </radialGradient>
        <linearGradient id="e" x1="50%" x2="50%" y1="1.177%" y2="100%">
            <stop offset="0%" stop-color="#EEF3F5"/>
            <stop offset="100%" stop-color="#CDD5F2"/>
        </linearGradient>
        <linearGradient id="f" x1="50%" x2="50%" y1="1.177%" y2="100%">
            <stop offset="0%" stop-color="#EEF3F5"/>
            <stop offset="100%" stop-color="#CDD5F2"/>
        </linearGradient>
        <linearGradient id="g" x1="50%" x2="50%" y1="1.177%" y2="100%">
            <stop offset="0%" stop-color="#EEF3F5"/>
            <stop offset="100%" stop-color="#CDD5F2"/>
        </linearGradient>
        <linearGradient id="h" x1="50%" x2="50%" y1="1.177%" y2="100%">
            <stop offset="0%" stop-color="#EEF3F5"/>
            <stop offset="100%" stop-color="#CDD5F2"/>
        </linearGradient>
        <linearGradient id="i" x1="50%" x2="50%" y1="1.177%" y2="100%">
            <stop offset="0%" stop-color="#EEF3F5"/>
            <stop offset="100%" stop-color="#CDD5F2"/>
        </linearGradient>
        <linearGradient id="j" x1="50%" x2="50%" y1="1.177%" y2="100%">
            <stop offset="0%" stop-color="#EEF3F5"/>
            <stop offset="100%" stop-color="#CDD5F2"/>
        </linearGradient>
        <linearGradient id="k" x1="50%" x2="50%" y1="1.177%" y2="100%">
            <stop offset="0%" stop-color="#EEF3F5"/>
            <stop offset="100%" stop-color="#CDD5F2"/>
        </linearGradient>
        <linearGradient id="l" x1="50%" x2="50%" y1="1.177%" y2="100%">
            <stop offset="0%" stop-color="#EEF3F5"/>
            <stop offset="100%" stop-color="#CDD5F2"/>
        </linearGradient>
        <linearGradient id="m" x1="50%" x2="50%" y1="1.177%" y2="100%">
            <stop offset="0%" stop-color="#EEF3F5"/>
            <stop offset="100%" stop-color="#CDD5F2"/>
        </linearGradient>
        <linearGradient id="n" x1="50%" x2="50%" y1="1.177%" y2="100%">
            <stop offset="0%" stop-color="#EEF3F5"/>
            <stop offset="100%" stop-color="#CDD5F2"/>
        </linearGradient>
        <linearGradient id="o" x1="50%" x2="50%" y1="1.177%" y2="100%">
            <stop offset="0%" stop-color="#EEF3F5"/>
            <stop offset="100%" stop-color="#CDD5F2"/>
        </linearGradient>
        <linearGradient id="p" x1="50%" x2="50%" y1="1.177%" y2="100%">
            <stop offset="0%" stop-color="#EEF3F5"/>
            <stop offset="100%" stop-color="#CDD5F2"/>
        </linearGradient>
        <linearGradient id="q" x1="50%" x2="50%" y1="1.177%" y2="100%">
            <stop offset="0%" stop-color="#EEF3F5"/>
            <stop offset="100%" stop-color="#CDD5F2"/>
        </linearGradient>
        <linearGradient id="r" x1="50%" x2="50%" y1="1.177%" y2="100%">
            <stop offset="0%" stop-color="#EEF3F5"/>
            <stop offset="100%" stop-color="#CDD5F2"/>
        </linearGradient>
        <linearGradient id="s" x1="50%" x2="50%" y1="1.177%" y2="100%">
            <stop offset="0%" stop-color="#EEF3F5"/>
            <stop offset="100%" stop-color="#CDD5F2"/>
        </linearGradient>
        <linearGradient id="t" x1="50%" x2="50%" y1="1.177%" y2="100%">
            <stop offset="0%" stop-color="#EEF3F5"/>
            <stop offset="100%" stop-color="#CDD5F2"/>
        </linearGradient>
        <linearGradient id="u" x1="50%" x2="50%" y1="1.177%" y2="100%">
            <stop offset="0%" stop-color="#EEF3F5"/>
            <stop offset="100%" stop-color="#CDD5F2"/>
        </linearGradient>
        <linearGradient id="v" x1="50%" x2="50%" y1="1.177%" y2="100%">
            <stop offset="0%" stop-color="#EEF3F5"/>
            <stop offset="100%" stop-color="#CDD5F2"/>
        </linearGradient>
        <linearGradient id="w" x1="50%" x2="50%" y1="1.177%" y2="100%">
            <stop offset="0%" stop-color="#EEF3F5"/>
            <stop offset="100%" stop-color="#CDD5F2"/>
        </linearGradient>
        <linearGradient id="x" x1="50%" x2="50%" y1="1.177%" y2="100%">
            <stop offset="0%" stop-color="#EEF3F5"/>
            <stop offset="100%" stop-color="#CDD5F2"/>
        </linearGradient>
        <linearGradient id="y" x1="50%" x2="50%" y1="1.177%" y2="100%">
            <stop offset="0%" stop-color="#EEF3F5"/>
            <stop offset="100%" stop-color="#CDD5F2"/>
        </linearGradient>
        <linearGradient id="z" x1="50%" x2="50%" y1="1.177%" y2="100%">
            <stop offset="0%" stop-color="#EEF3F5"/>
            <stop offset="100%" stop-color="#CDD5F2"/>
        </linearGradient>
        <linearGradient id="A" x1="50%" x2="50%" y1="1.177%" y2="100%">
            <stop offset="0%" stop-color="#EEF3F5"/>
            <stop offset="100%" stop-color="#CDD5F2"/>
        </linearGradient>
        <linearGradient id="B" x1="50%" x2="50%" y1="1.177%" y2="100%">
            <stop offset="0%" stop-color="#EEF3F5"/>
            <stop offset="100%" stop-color="#CDD5F2"/>
        </linearGradient>
        <linearGradient id="C" x1="50%" x2="50%" y1="1.177%" y2="100%">
            <stop offset="0%" stop-color="#EEF3F5"/>
            <stop offset="100%" stop-color="#CDD5F2"/>
        </linearGradient>
        <linearGradient id="D" x1="50%" x2="50%" y1="1.177%" y2="100%">
            <stop offset="0%" stop-color="#EEF3F5"/>
            <stop offset="100%" stop-color="#CDD5F2"/>
        </linearGradient>
        <linearGradient id="E" x1="50%" x2="50%" y1="1.177%" y2="100%">
            <stop offset="0%" stop-color="#EEF3F5"/>
            <stop offset="100%" stop-color="#CDD5F2"/>
        </linearGradient>
        <linearGradient id="F" x1="50%" x2="50%" y1="1.177%" y2="100%">
            <stop offset="0%" stop-color="#EEF3F5"/>
            <stop offset="100%" stop-color="#CDD5F2"/>
        </linearGradient>
        <linearGradient id="G" x1="50%" x2="50%" y1="1.177%" y2="100%">
            <stop offset="0%" stop-color="#EEF3F5"/>
            <stop offset="100%" stop-color="#CDD5F2"/>
        </linearGradient>
    </defs>
    <g fill="none" fill-rule="evenodd">
        <use fill="#000" filter="url(#a)" transform="translate(14 24)" xlink:href="#b"/>
        <path fill="url(#c)" d="M89.808 22.768a43.621 43.621 0 0 1 2.054 48.417c-9.168 15.068-26.507 23.122-43.925 20.403-17.419-2.72-31.482-15.676-35.628-32.823-4.146-17.147 2.444-35.104 16.694-45.49C48.42-.878 75.622 3.368 89.808 22.768z" transform="translate(14 24)"/>
        <g style="mix-blend-mode:multiply">
            <path fill="#C7C6C5" fill-rule="nonzero" d="M33.364 49.47c.349-.315.72-.37 1.09-.653a10.342 10.342 0 0 0 1.807-2.3c.37-.48 1.47-1.994 2.179-1.548 0 .218-.382.84-.175 1.09.207.251.73-.185.948-.218-.055.495-.033.995.065 1.483.697.098.697-.709.773-1.177a3.533 3.533 0 0 1 .48-1.505c.249-.351.447-.737.588-1.144.064-.479.188-.947.37-1.395a16.085 16.085 0 0 1 1.764-2.18c.327-.392.774-.665 1.09-1.09.315-.425.664-.882 1.023-1.297.534-.599 1.558-1.885 2.484-1.754-.338.566-1.188.904-1.482 1.504-.207.403 0 .457-.424.774-.425.316-.85.37-.774.871.229 0 .458 0 .578.153.446 0 .795-.676 1.089-.305.294.37-.392.84-.305 1.199.087.36.817-.414.915-.621.118-.447.279-.881.479-1.297.412-.422.848-.819 1.307-1.188.308-.33.678-.597 1.089-.785a15.33 15.33 0 0 0 1.535-.741c.316-.186.654-.6 1.09-.545a.447.447 0 0 0 .054.098c.229-.185.545-.36.784-.523.24-.164.49-.447.675-.567a20.468 20.468 0 0 1 2.364-1.09c.446-.196.675-.632 1.089-.697.185 0 .25.087.512 0 .261-.088.36-.316.523-.415.326-.207 2.45-.523 2.178-1.013-.273-.49-2.549 0-2.984 0a20.82 20.82 0 0 0-2.31.272 43.864 43.864 0 0 0-18.002 10.9 60.511 60.511 0 0 0-4.357 5.22c-.36.501-.751.98-1.089 1.46-.425.665-.838 1.33-1.241 2.006a5.19 5.19 0 0 0-.393 1.264c.545-.502 1.155-.948 1.721-1.417.327-.142.588-.556.893-.828zM57.15 39.095c-.522-.164-.664.316-1.089.447v-.284a5.681 5.681 0 0 0-.751 0 2.007 2.007 0 0 1 0-.512l.207-.109c0-.076-.076-.12 0-.196.25-.196.185-.272.218-.556l-.164-.152c-.196.065-.664.261-.74.294-.077.033-.512-.087-.501.349-.376.074-.741.19-1.09.348-.37.654.589.382.306.927a1.219 1.219 0 0 0-1.09-.11 2.09 2.09 0 0 1-.762.208c.163.6 0 .534-.229.948-.065.11-.283.087-.392.229-.109.142.077.436 0 .588-.37.502-1.797.578-1.285 1.483.436-.393.926.196 1.307-.305.272.152 1.22-.654 1.416-.905.196-.25.196-.6.523-.807.098-.054.588 0 .773-.054-.153.6-1.187 1.09-1.263 1.613-.077.523.392.316.653.163.261-.152.196-.948.555-.25.458-.164 1.166-.502 1.297-.992.156.225.427.34.697.294.108-.436.642-.501.566-1.09.102.043.2.094.294.153a.567.567 0 0 0-.065-.774c.435-.033.555-.534.61-.948zM73.792 97.785a1.352 1.352 0 0 0-.109-.218l.11.218z"/>
            <path fill="#FFF" d="M94.997 104.227v-.11c-.08.34-.237.657-.457.927a1.395 1.395 0 0 0-.425.785c-.048.168-.117.33-.207.48-.09.126-.174.257-.25.392-.197.152-.49.185-.676.392-.185.207-.24.447-.675.654-.29.182-.606.322-.937.414-.817.142-.719-.98-1.437-.85-.098.24-.392.24-.621.36-.218-.393-.512-.207-.828-.142a2.419 2.419 0 0 1-1.448 1.351c-.512.12-.425-.087-.883-.152-.199-.009-.397.032-.577.12-.207.152-.141.305-.305.425-.163.12-.588.229-.882.425-.264.255-.56.475-.882.654-.468.185-.893.152-1.34.36-.446.207-.915.196-1.187.425a.773.773 0 0 0-.555-.208v.306c-.273 0-.392.25-.61.403-.218.152-.25 0-.37.152a.643.643 0 0 0-.24.327c.327.066.185.197.13.436 0 0-.315.502-.304.49-.349.262-1.177.208-1.35-.25-.208.218-.589.273-.72.534a6.717 6.717 0 0 0-.816-.327c-.501-.087-.61.186-.98.327-.589.207-1.199-.196-1.754 0 0-.501-.501-.436-.436 0a1.088 1.088 0 0 0-.675.11.74.74 0 0 0-.762 0c-.523-.557-2.026.697-2.484 1.09-.098.086-.098.293-.196.402-.098.11-.261.12-.37.218-.109.098-.316.338-.5.49-.186.153-.164.197-.35.339 9.345-.207 18.613-2.616 26.695-8.872l.217-.174c.016-.25.05-.497.099-.742.065-.196.718-.697.108-.719.316-.24.12-.36.164-.6.043-.24.185-.403.076-.642z"/>
            <path fill="#C7C6C5" fill-rule="nonzero" d="M51.498 38.169s1.024-.47 1.09-.524c.337-.261.086-.817.75-.719.382-.665.774-1.09 1.09-1.678.185 0 .25-.164.37-.251l.392-.381c-.61.378-1.26.685-1.939.915-.348.076-.599 0-.936.098-.773.196-.381.24-.697.774-.174.381-1.198 1.69-.12 1.766z"/>
        </g>
        <path fill="#FFF" d="M33.32 49.362c.35-.316.72-.37 1.09-.654a10.342 10.342 0 0 0 1.808-2.289c.36-.48 1.46-1.984 2.178-1.537 0 .218-.37.829-.163 1.09.207.262.718-.174.936-.207-.05.491-.027.987.066 1.471.697.098.697-.708.762-1.177.056-.525.22-1.033.48-1.493.252-.331.454-.699.598-1.09.055-.479.176-.948.36-1.395a17.436 17.436 0 0 1 1.753-2.18c.327-.392.762-.664 1.09-1.035.326-.37.653-.872 1.023-1.286.523-.6 1.536-1.875 2.461-1.744-.326.567-1.176.894-1.48 1.493-.197.393 0 .458-.415.763-.414.305-.85.37-.773.872.24 0 .468 0 .566.153.458 0 .806-.665 1.09-.295.283.371-.393.829-.316 1.178.076.348.816-.404.925-.622.112-.443.27-.874.469-1.286.407-.42.844-.81 1.307-1.166a3.365 3.365 0 0 1 1.089-.785 14.263 14.263 0 0 0 1.535-.74c.316-.186.654-.59 1.035-.546l.055.098c.228-.185.555-.36.784-.523.228-.163.49-.447.675-.556a20.295 20.295 0 0 1 2.352-1.155c.447-.196.676-.632 1.09-.687.185 0 .26.088.511 0 .25-.087.36-.316.512-.414.338-.218 2.45-.523 2.178-1.013-.272-.49-2.526 0-2.962 0-.767.038-1.53.126-2.287.261a43.291 43.291 0 0 0-12.699 6.409 44.183 44.183 0 0 0-5.228 4.48 59.695 59.695 0 0 0-4.302 5.187c-.36.501-.751.981-1.089 1.46-.435.655-.85 1.32-1.241 1.984-.177.406-.308.83-.393 1.264.545-.49 1.155-.937 1.721-1.406.283-.261.545-.61.85-.882zM56.987 39.04c-.523-.152-.664.317-1.089.447v-.283a5.79 5.79 0 0 0-.751 0 2.77 2.77 0 0 1 0-.512s.152-.066.206-.11c.055-.043-.087-.12 0-.195.24-.186.175-.273.207-.545a2.015 2.015 0 0 1-.174-.11 7.827 7.827 0 0 0-.751.295c-.164.098-.501-.087-.49.338-.379.068-.745.189-1.09.36-.38.632.578.37.295.915a1.208 1.208 0 0 0-1.09-.11 2.33 2.33 0 0 1-.762.208c.174.6 0 .523-.218.937-.076.11-.294.087-.392.23-.098.14.076.435 0 .588-.37.501-1.786.577-1.285 1.471.436-.392.915.196 1.296-.305.283.152 1.22-.643 1.416-.905.196-.261.196-.588.523-.795h.762c-.142.6-1.187 1.09-1.252 1.602-.066.512.392.316.642.163.25-.152.207-.937.556-.24.446-.163 1.165-.512 1.296-.991.154.22.42.334.686.294.109-.436.642-.501.566-1.09.101.045.2.096.294.153a.545.545 0 0 0-.065-.763c.49-.142.599-.632.664-1.047z"/>
        <path fill="url(#d)" fill-rule="nonzero" d="M59.53 73.426a.818.818 0 0 0-.108-.218l.109.218z" transform="translate(14 24)"/>
        <path fill="#FFF" d="M109.602 57.688a43.955 43.955 0 0 0-5.794-10.898 43.434 43.434 0 0 0-35.57-17.886 1.776 1.776 0 0 0-.795.687c-.24.425-.218.262 0 .6.217.337 1.307.272 1.492.512.653.872-.915.556-.686 1.199-.273.109-1.351-.153-.632.577 0 0-.153 0-.196.066.098.774.697.523 1.307.61.61.087 1.089.589.37 1.09.272.37.381 1.003-.207 1.09-.25-.709-.446.087-.686 0-.24-.087-.523-.273-.207-.643-.37.04-.744-.013-1.09-.153.088 0 .24-.185.317-.218-.24 0-.774.164-.937 0-.163-.163.065-.501.316-.556a2.689 2.689 0 0 1-.926-.25c.229-.218.588-.327.795-.622-.196-.294-.969-.174-1.285-.174a6.41 6.41 0 0 0-1.492-.218 3.67 3.67 0 0 0-2.755 1.308c-.687.926-1.678.915-2.636 1.559-.632.435-1.71 1.416-1.601 2.18 0 .076.12 0 .142 0-.23.926 1.187.38.773-.404.174.076.283 0 .457.153.185-.23.904-1.57 1.09-.49.402 0 .446-.437.903-.36a12.52 12.52 0 0 0-.054 1.907c.675.185 1.677-.687 1.383-1.363.817-.185.13-.98.36-1.504.16-.244.346-.47.555-.675.25-.196.283-.469.762-.37.076.511-.446.762-.36 1.285.861.076.774.6 1.689.185.545-.25 1.09-.544 1.09.426.522.196 1.088-.077 1.622.098.207.065.25.305.403.37.152.066.631.142.653.185 1.09 1.33-1.546.654-1.666.752-.272-.555-1.35-.13-1.568.295-.305.61.49.872-.48.893-.283 0-.37-.185-.762 0-.392.186-.392.371-.686.49-.305.07-.614.121-.926.153-.302.14-.61.264-.926.371-.5 0-.893-.556-1.546-.37-.48.13-.414.337-.773.599-.36.262-.643.098-.904.262-.621.403-.327 1.09-.697 1.634-.153.207-.48.207-.665.425-.185.218-.163.545-.38.774a2.601 2.601 0 0 1-.894-.13c-.392.555-1.449-.164-1.786.675h.294a2.311 2.311 0 0 0-.207.447c1.34-.054.643 1.471-.087 1.875-.272-.284-.882.207-1.242.294-.141 0-.185.229-.305.24-.12.01-.196-.175-.316-.164-.37 0-.631.164-.893-.087a2.66 2.66 0 0 0-.653 1.024 4.624 4.624 0 0 0-.327 1.374c-.109.774-1.383 2.452.316 2.18a6.73 6.73 0 0 0 1.165-.622c.164-.076.186-.305.316-.36.131-.054.338.055.469 0 .277-.082.538-.21.773-.38.316-.306.523-.633.828-.949.317-.307.566-.679.73-1.09 1.633.076.359-1.144 1.393-1.548.534-.196.817.306 1.362 0 .24-.152.174-.468.38-.62.208-.153.404-.055.622-.153.522-.23.544-.393 1.176-.207.163 0 .283.228.457.305.175.076.425 0 .643.054.457.153 2.004 1.373 2.178.11-.642 0-1.938-.251-1.677-1.156 1.492-.632 2.342.49 3.387 1.144.51.265.943.66 1.253 1.145.272.6 0 1.384.98 1.166a5.06 5.06 0 0 0 .13-.512s-.098-.11-.108-.153c.642-.294 0-.436 0-.72 0-.283-.273-.217-.273-.555 0-.142.501-.12.556-.305.141-.458-.643-.469.087-.774.414-.164.926 0 .708.458.253.097.39.371.316.632h.283c.12.49-.185 1.384.38 1.624-.01.12-.01.24 0 .36.676.097 1.09-.262 1.678-.448a4.278 4.278 0 0 1 1.634-.392c.327.076.25.403.61.382.36-.022.49-.458.675-.556.97-.469.501.207.85.806a1.491 1.491 0 0 1-.316-.076c.228.185.512.349.718.512-.388.022-.777.022-1.165 0 .283.066 1.09.284 1.09.84h.446v.228c-.056.073-.107.15-.153.23h-.37c0 .348-.229.468-.534.446a1.897 1.897 0 0 0-.109-.207c-.359.25-2.058.992-2.178.381-.25 0-.348-.13-.588 0a.73.73 0 0 0-.719-.446c-.218.294 0 .643-.207.871-.207.23-.544.295-.708.644.19.198.19.51 0 .708-.588 0-.403-.6-.773-.817-.163-.099-.36 0-.534 0a5.062 5.062 0 0 0-.751-.327c-1.525-.208 0 1.58-1.154 1.71-.153-.13-2.854 1.232-2.582.186-.817-.098-.076-.48-.283-.796-.207-.316-.74-.174-1.089-.152-.348.022-2.385.098-1.71-.992-.087 0-.185-.076-.283-.109.13-.621-.152-.817-.414-1.286-.425-.196-.62.174-.991.294a4.55 4.55 0 0 1-1.252.098c-.523 0-1.841-.087-2.179.589a3.756 3.756 0 0 0-2.058 1.035c-.523.393-.436.425-1.024.25-.348-.108-.85-.642-1.089 0-.446-.097-.566.153-.839.393a9.5 9.5 0 0 0-.751.72c-.327.523-.36 1.645-1.002 1.929 0 .425-.49.839-.719 1.09a2.472 2.472 0 0 1-1.22.937c0 .414-.62 1.013-.936 1.286.098 0 .185.087.294.109-.11.6-1.002 1.09-1.21 1.755h.437c0 .446.304.806.076 1.21-.577 0-.72.555-1.21.642.088.262 0 .24.208.393a2.672 2.672 0 0 0-.381 1.384c.108.643.424.61.174 1.319-.327.915-1.09 1.515-1.09 2.452h.284a.927.927 0 0 1 .261.741h.36a.872.872 0 0 1 0 .905c.067.217.2.407.38.545 0-.088.12-.197.164-.284.774-.12 1.024 1.09 1.394 1.613.227.293.431.603.61.927.174.305.229.752.381 1.002.153.251.567.393.839.698.272.305.185.741.86.85.676.109 1.808-.218 1.797-.992.458-.12.578.284.915.295.338.01.48-.153.85-.153.533 0 1.22.6 1.394-.458.48 0 .686-.414 1.002-.686.316-.273.915-.317 1.22-.578.522-.447.62-2.125 1.394-1.09v.207c.795-.098 1.089.992 1.361 1.493.087.196.185 1.09.24 1.09.414.262.936-.207.947-.61.338-.087.447.207.752.13.305-.076.37-.37.708-.446.282-.072.578-.072.86 0 .501.229.185.185.447.566.365.45.595.994.664 1.57 0 .697-.436 1.275-.468 1.94a1.45 1.45 0 0 0 .718 1.297c.414.349.589.676 1.09 1.09.5.414 3.114.675 2.09 1.591 1.09 0 .251.708.512 1.199l.066.109c-.272.501-.316 1.155.49 1.275-.022.28-.022.56 0 .84 0 .12-.261.206-.24.304.022.098.37.306.382.415a1.93 1.93 0 0 1-.545 1.351c-.414.534-.762.676-.97 1.33-.103.21-.16.44-.163.675l.142.949c.196.436 1.089.697 1.525.872.642.25.806.686 1.241.926.262.13.577 0 .871.054.295.055.48.262.774.316.751.153 1.307 0 .61.698-.207.229-.61.153-.6.6.807.38-.892 1.22-.185 1.885.273.262.817.098 1.09.37.272.273 0 .905.533 1.178.011.12.011.24 0 .36.25.163.131.086.305.315.463.137.855.45 1.09.872.163.066.086.164.195.37.11.208-.109.251-.065.371s.272.066.294.153c.144.397.2.821.163 1.242.61.088 1.253.197 1.242.927.61.087.49-.6.664-.992a4 4 0 0 1 .697-.948c.436-.534.142-.403.86-.6.458-.12.916-.141.948-.763a6.39 6.39 0 0 0 2.57-.915c.44-.146.822-.429 1.09-.807.38-.599.065-.653.141-1.21-.642-.337.207-1.23-.642-1.427.261-.905 1.819-.316 1.938-1.09.488-.12.933-.373 1.286-.73a1.09 1.09 0 0 0 .25-1.308c-.13-.25-.349-.436-.468-.687-.12-.25.098-.229-.218-.556-.316-.326-.991-.25-1.09-.839-.163-.763.73-.675 1.253-.839.86-.262.686-.643 1.22-1.242.196-.218.577-.218.719-.404.141-.185.065-.697.218-.98.152-.284.424-.273.544-.633.086-.215.134-.444.142-.675-.13-.131.076-.883 0-1.254-.087-.567-.425-.98-.25-1.537-.11 0-.175-.076-.284-.098.316-.85-.544-.915-1.089-1.09l-.065-.13a4.599 4.599 0 0 0-.686-.85c-.284-.295-.676-.35-.785-.774-.413-.142-2.309.229-1.513-.85.272-.35.816-.164 1.089-.327.512-.251.38-.23.555-.84.163.066.425 0 .588.055.218-.469 0-1.09.185-1.537.098-.207.512-.36.676-.545.183-.194.318-.43.392-.686.177-.475.464-.901.838-1.243.437-.285.68-.788.632-1.308h-.36c0-.414.338-.588.382-.98 1.013-.208.435-.992.762-1.56.153-.283.643-.315.752-.555.109-.24-.23-.72-.12-1.09a1.852 1.852 0 0 0 1.6-1.722l-.217-.076c0-.774.632-1.439.784-2.234.153-.796.62-1.853.283-2.464-.773-.12-.468.807-.784 1.09-.316.284-1.209-.109-1.23.622-.687.076-.85 1.013-1.47 1.231-.622.218-1.602-.24-1.624.861-.73-.098-2.711 1.09-2.984 0 .349-.152 1.928-1.013.61-1.09a.818.818 0 0 0-.098-.817c-.893-.131-1.089 1.09-1.623-.164h-.827c0-.73-.131-.752-.545-1.21-.272-.294-.207 0-.392-.49a9.15 9.15 0 0 1-.163-1.09 2.177 2.177 0 0 1-1.166-.458c-.152-.185 0-.523-.152-.643-.153-.12-.48-.13-.686-.228-.73-.35-1.46-.49-2.179-.861.305-.807-.958-.556-1.317-.774-.763-.48-.414-.916.141-1.156.556-.24 1.383.088 1.09-.36-.36-.675-.98-.14-1.515-.26-.304-.568.425-.905 1.166-1.254.403.196.708.785.904 1.09.196.305.85.577.784 1.09a.882.882 0 0 1 .937.534 6.281 6.281 0 0 1 2.842 1.024c.48.218 2.723 1.003 2.723 1.297 1.002.11.762.927.61 1.624.773 0-.229 1.22.762 1.559.76.182 1.56.073 2.244-.306.428-.155.864-.286 1.307-.392.228-.054.512 0 .697-.174.36-.273.076-.306.228-.513.425-.566 1.188-.904 1.71-1.47-.457-.48.382-1.09.534-1.56-.86 0-.697-.959-.545-1.525h-.522c0-.273.74-2.442-.382-1.395 0-.687-.37-.37-.718-.447-.588-.153-.382.12-.61-.545-.164-.49-.381-1.591-1.09-1.373-.228.545-.108 1.58-1.088 1.45-.338 0-.316-.404-.61-.47-.294-.065-.49.197-.872 0-.38-.196-.762-1.013-1.089-1.318-.326-.305-1.296-.502-.936-1.297-.795-.11-.349-1.46.479-1.188.555.185.435 1.155 1.372.795 0 .589 0 .687.327.992.327.305.577 0 .784.523.577.175.86-.468 1.438-.436.305.35.675.639 1.089.85a4.593 4.593 0 0 0 1.59 0c.283-.12.174-.468.425-.588.25-.12.457 0 .675 0 .468-.098 1.296-.48 1.089.523.397.02.792.082 1.176.185.708 0 .545-.141 1.09.382-.088.785 2.177.937 2.776.85.338.37 1.002.25.883.905.522.218 0 .5.196.86s.38.295.773.644c.109.087.142.337.163.36.152.092.312.168.48.228.25.305.364.699.315 1.09a1.624 1.624 0 0 1 1.231 1.635c0 .349-.25.654-.098.948.218.469.534.218.85.458.718.577.305 1.231 1.176 1.613.6.177 1.118.564 1.46 1.09a.49.49 0 0 0 .097-.948 1.461 1.461 0 0 0-.218-1.003c-.207-.25-.61 0-.73-.458-.054-.218.284-.632.306-.905.021-.272-.164-.48-.087-.817.185-.774.773-.84 0-1.504-.197-.185-.6-.262-.752-.501-.152-.24-.087-.741-.185-.981-.893-.175 0-.96-.392-1.46-.283-.339-1.242-.36-1.59-.655-.349-.294-.273-.48-.403-.675-.13-.197-.577-.284-.37-.763.108-.262.522-.131.675-.393.152-.261 0-.675.087-1.002h.37c0-.447-.163-1.188.534-.981-.076.567.087 1.504.773 1.471.316.621-.414.948.153 1.471.228.218.61 0 .816.273.207.272 0 .643.066.861.762.316.817 1.34 1.753 1.155-.065-.24 0-.403-.229-.6.523-.544.403.328.49.459.088.13.414.436.523.773.11.338 0 .741 0 1.025 0 .283.338.458.273.894.305.01 1.764 1.33 2.363 1.416zM73.226 44.435c-.784-.882-.567.534-1.013.774-.447.24-.719-.229-1.09-.305-.37-.076-.685.087-1.001 0-.61-.196-.882-.73-1.383-1.09-.501-.36-.523 0-.72-.458-.086-.174.61-.403 0-.534.017-.119.017-.24 0-.36-.457-.054-1.371.491-1.459-.076-.507.028-1.016.028-1.524 0 .217-.937 1.089-.959 1.927-1.09.839-.13 1.558-.326 2.179-.446.207 0 .816-.24.925-.24.36 0 .578.294.904.403.327.11.534.055.893-.163.164-.098.37-.818.676-.251l.392.153c.087.109.185.109.163.305h.283c0 .12.055.261.076.36.022.097-.12.152-.206.24.185 0 .283.12.446.152-.087.49-1.72.436-.686.937.642.305 1.557-.098 2.178 0 0 .087 0 .207-.065.283.337 0 .457 0 .544.306h.131c.185 1.624-2.363-.11-2.57 1.1zm6.894.61c-.85-.403-.632-.708-.784-1.525-.153-.818-1.09-.927-1.024-1.69-.468 0-.98-.185-.85-.773-.577.13-.675-.25-.904-.567 0-.381.36-1.003-.152-1.166.261-.458.664-.523.468-1.09.534 0 .774-.545 1.285-.643v-.36c.363-.02.727-.02 1.09 0 .065.131 0 .087-.066.142l.076.469c.49.882-1.317 1.198-1.187 1.95.185 1.09 1.776 1.09 2.636 1.156a.73.73 0 0 0 .37.839c-1.002.545.654 1.09 1.09 1.09v.36c.402 0 .75-.262 1.088 0-.217.97.97.588.327 1.59.367.004.711.182.926.48-.948 1.003-3.224.295-4.39-.261z"/>
        <path fill="#FFF" d="M87.94 93.251c.442.189.955.065 1.263-.305.152-.163.185-.447.305-.566.12-.12.5-.142.632-.306.13-.163 0-.523.141-.686.142-.164.523-.098.719-.284.447-.403.196-.763.294-1.318.153-.916 1.09-.992 1.928-1.428.348-.196.893-.382.642-.828-.25-.447-.773-.055-1.23-.175.098-.697.272-.785-.61-.926a.741.741 0 0 1 .751-.85c-.098-.197 0-.393-.065-.589.784 0 .61-1.09.686-1.493 0-.283.207-.501.24-.84.032-.337-.131-.631-.11-.838.066-.545.513-2.9-.576-3.205a2.713 2.713 0 0 0-.403-.447l-.458.077c.654.839.294.893-.087 1.624-.25.49 0 1.275-.283 1.722-.196.261-.643.305-.871.523-.23.252-.417.539-.556.85-.12.229-.185.676-.305.85-.25.36-.632.392-.915.654-.631.6-.414 1.024-.25 1.69.115.579.115 1.175 0 1.754-.066.305-.229.632-.316.926 0 0-.207.502-.218.404 0 .163.294.36.305.425a5.911 5.911 0 0 1-.316 1.809c-.12.512-.01 1.34-.337 1.776zM42.371 106.559c-.185-.218-.326-.621-.5-.872-.371-.512-.709-1.09-1.09-1.515-.381-.425-1.187-.926-1.47-1.558-.283-.633-.229-1.494-.97-1.722.088-.589-.435-.84-.337-1.44a2.178 2.178 0 0 1-.915-.631 2.573 2.573 0 0 1-.403-1.09c0-.142-.294-.24-.348-.469 0 0 .13-.447.13-.48.131-.468 0-.544.545-.773.544-.229.632.207.85-.382 0-.346-.087-.687-.251-.991-.327-.742-.338-1.221-1.22-1.286-.37-.251-.196-.48-.327-.818-.185-.512-.38-1.003-.522-1.548-.066-.272 0-.773-.153-1.013-.152-.24-.468-.164-.642-.36-.61-.665-.197-.697.174-1.09.18-.162.31-.374.37-.61 0 0-.163-.196-.12-.316.044-.12.305-.164.36-.25.324-.481.546-1.023.653-1.592 0-.621-.348-.98-.414-1.559-.065-.577.262-.904-.479-1.46-.36-.262-1.296-.381-1.383-.774-.545-.12-1.307.621-1.318-.305-.85-.262-.773.84-1.514.665-.174-.469-.708-1.646-1.241-1.777-.087-.501.577-1.83-.469-1.624v-.828c-.217-.13-.163 0-.217-.327-.186-.937.457-2.452-.6-3.106-.457-.283-.98.163-1.47-.229s-.381-1.275-.305-1.755c.109-.62.001-1.259-.305-1.809-.25-.654-.065-1.09-.228-1.776-.273-1.025-.392-2.017-.621-3.107a43.61 43.61 0 0 0 16.696 41.166h.86c-.228-.251-.566-.317-.806-.589zM94.997 104.902v-.098a2.18 2.18 0 0 1-.457.872 1.352 1.352 0 0 0-.425.73 1.799 1.799 0 0 1-.207.458s-.283.393-.25.36c-.197.152-.48.185-.665.37-.185.186-.24.425-.675.622a4.54 4.54 0 0 1-.926.392c-.817.12-.719-.926-1.438-.807-.108.23-.392.23-.62.35-.218-.371-.512-.208-.817-.142a2.386 2.386 0 0 1-1.46 1.264c-.5.12-.424-.076-.87-.142-.196 0-.389.042-.567.12-.218.142-.142.283-.316.403-.174.12-.577.207-.871.393a5.032 5.032 0 0 1-.893.62c-.458.164-.883.132-1.33.339a6.205 6.205 0 0 0-1.175.392.86.86 0 0 0-.6-.207v.294c-.272 0-.391.23-.61.37-.217.143-.25 0-.37.143a.687.687 0 0 0-.24.316c.328 0 .186.185.132.403l-.305.469c-.349.24-1.166.196-1.34-.24-.207.207-.599.25-.719.501-.283-.076-.512-.25-.817-.305-.5-.076-.599.174-.969.305-.588.196-1.198-.185-1.753 0 0-.469-.501-.403-.425 0a1.165 1.165 0 0 0-.675.098.762.762 0 0 0-.763 0c-.523-.523-2.015.643-2.472 1.014-.109.087-.098.283-.207.381-.109.098-.25.12-.36.207-.108.087-.315.316-.5.458l-.447.349a43.347 43.347 0 0 0 26.694-8.37l.229-.164c.007-.235.036-.468.087-.698.065-.185.719-.653.12-.675.305-.218.109-.327.152-.556.044-.229.229-.36.12-.589zM51.356 38.169s1.013-.48 1.09-.524c.337-.261.098-.817.762-.719.37-.665.762-1.035 1.089-1.667.185 0 .24-.164.37-.251l.392-.382c-.609.378-1.26.686-1.938.916-.338.076-.6 0-.926.087-.762.207-.381.25-.697.774-.185.338-1.209 1.646-.142 1.766zM102.61 64.73c0-.11.392-.12.425-.273a1.538 1.538 0 0 0 0-.534 7.23 7.23 0 0 0-.425-1.897c-.153-.458-.806-1.242-1.361-1.199v-.207a2.863 2.863 0 0 0-.512-.109c-.153-.109 0 0 0 0l-.305-.076c.152.305.152.621.305.926.152.306.479.436.61.698.16.555.266 1.124.315 1.7.186.676.273 1.253.48 1.853a3.85 3.85 0 0 1 .152 1.918.73.73 0 0 0 .523.087 2.868 2.868 0 0 0 .087-1.929c-.022-.272-.338-.665-.294-.959zM135.593 57.01V42.37c-.34-4.992-2.308-9.75-5.617-14.098v14.645c3.309 4.32 5.267 9.12 5.617 14.093zm-7.308-16.152v-14.64a41.71 41.71 0 0 0-3.869-3.84v14.64a42.323 42.323 0 0 1 3.87 3.84zm-6.259-5.76V20.443a56.946 56.946 0 0 0-4.932-3.36v14.645a55.883 55.883 0 0 1 4.932 3.36v.01zm-8.24-.922V10.872c13.455 7.157 21.86 17.39 21.86 28.714V62.88c0-11.323-8.405-21.557-21.86-28.714v.01zM89.176 22.982v-4.204a105.08 105.08 0 0 0-3.113-.552v4.21c1.049.167 2.083.35 3.113.546zm-5.598-5.126v-3.725c-1.068-.149-2.14-.278-3.223-.398v3.725c1.082.115 2.156.248 3.223.398zm10.985 2.102V14.88a95.055 95.055 0 0 0-2.993-.696v5.083c1.012.218 2.01.448 2.993.691zm-16.76-2.755V9.71a123.686 123.686 0 0 0-3.314-.235v7.493c1.11.062 2.217.144 3.314.235zM65.754 16.8V9.288c-1.124.02-2.241.053-3.352.1v7.494c1.111-.048 2.228-.082 3.352-.101v.019zm-5.971.245V7.598c-1.102.072-2.198.164-3.28.264v9.418c1.082-.1 2.178-.187 3.28-.26v.025zm12.048-.202V6.063a118.802 118.802 0 0 0-3.036-.068h-.364v10.776h.364c1.018 0 2.03.023 3.036.067v.005zm-17.872.71V4.07c-1.072.125-2.135.264-3.189.418v13.488a123.69 123.69 0 0 1 3.19-.422zM43.903 2.914A114.153 114.153 0 0 1 68.79.48c10.9.045 21.731 1.73 32.133 4.997V28.8a108.427 108.427 0 0 0-32.133-4.997 113.857 113.857 0 0 0-24.873 2.429V2.914h-.014zM4.372 34.512v-4.69a28.304 28.304 0 0 0-3.3 6.24v13.892a28.304 28.304 0 0 1 3.3-6.24v-4.69c.402-.58.829-1.152 1.279-1.723v2.539a37.718 37.718 0 0 1 2.796-3.14v-2.538c4.387-4.402 10.23-8.304 17.134-11.43V18.24a69 69 0 0 0-3.586 1.738c-.581.297-1.151.604-1.71.921a53.08 53.08 0 0 0-11.44 8.381c-.134.13-.268.26-.398.394V27.12a37.771 37.771 0 0 0-2.796 3.144v2.53c-.45.566-.877 1.139-1.279 1.718zm-4.204-.144C2.81 22.997 13.92 13.21 29.69 7.114v23.299C13.92 36.504 2.811 46.296.168 57.663V34.367z"/>
        <path fill="url(#e)" d="M8.447 29.65c.13-.135.264-.264.398-.394v4.512a49.82 49.82 0 0 1 8.184-6.408 60.833 60.833 0 0 1 3.256-1.944v-4.531c.562-.32 1.132-.627 1.71-.922v4.517c1.163-.6 2.356-1.18 3.586-1.738-6.905 3.116-12.747 7.018-17.134 11.42V29.65zm-4.075 4.862c.402-.582.829-1.155 1.279-1.718V37.3c-.45.571-.862 1.142-1.279 1.723v-4.512zm-3.3 6.18c.34-2.261 2.85-5.617 3.3-6.18v4.512c-.45.571-2.883 5.66-3.3 6.24v-4.571zM17 22.849c.944-.582 2.229-1.386 3.285-1.949v4.49c-1.056.57-2.279 1.39-3.256 1.971L17 22.848zm5-2.9c.944-.582 2.525-1.145 3.581-1.708v4.493c-1.056.571-2.603 1.152-3.581 1.733V19.95z"/>
        <path fill="url(#f)" d="M8.845 29.28a50.064 50.064 0 0 1 8.184-6.432v4.512a49.82 49.82 0 0 0-8.184 6.432V29.28z"/>
        <path fill="url(#g)" d="M1.073 36.072a28.304 28.304 0 0 1 3.3-6.24v4.68a28.304 28.304 0 0 0-3.3 6.24v4.512a28.304 28.304 0 0 1 3.3-6.24v4.69a28.304 28.304 0 0 0-3.3 6.24V36.072z"/>
        <path fill="url(#h)" d="M5.65 37.3a38.505 38.505 0 0 1 2.797-3.138v2.53a37.718 37.718 0 0 0-2.796 3.148V37.3zm0-7.036a37.771 37.771 0 0 1 2.797-3.144v2.53a37.771 37.771 0 0 0-2.796 3.144v-2.53z"/>
        <path fill="url(#i)" d="M5.65 32.794a37.771 37.771 0 0 1 2.797-3.144v4.512A38.505 38.505 0 0 0 5.651 37.3v-4.507z"/>
        <path fill="url(#j)" d="M129.976 28.272c3.309 4.349 5.267 9.12 5.617 14.098v14.64c-.34-4.992-2.308-9.75-5.617-14.093V28.272z"/>
        <path fill="url(#k)" d="M124.416 22.397a41.71 41.71 0 0 1 3.87 3.84v14.64a42.323 42.323 0 0 0-3.87-3.84v-14.64z"/>
        <path fill="url(#l)" d="M117.094 17.083a56.946 56.946 0 0 1 4.932 3.36v14.645a55.883 55.883 0 0 0-4.932-3.36V17.083z"/>
        <path fill="url(#m)" d="M91.57 14.189c1.012.22 2.01.453 2.993.696v5.073a86.87 86.87 0 0 0-2.993-.69v-5.08z"/>
        <path fill="url(#n)" d="M86.063 18.24c1.049.168 2.083.355 3.113.552v4.205c-1.03-.197-2.064-.38-3.113-.547v-4.21z"/>
        <path fill="url(#o)" d="M80.355 13.733c1.082.12 2.155.25 3.223.398v3.725a95.286 95.286 0 0 0-3.223-.398v-3.725z"/>
        <path fill="url(#p)" d="M74.47 9.475c1.11.063 2.217.144 3.313.235v7.493a123.686 123.686 0 0 0-3.313-.235V9.475z"/>
        <path fill="url(#q)" d="M68.426 5.99h.364c1.019 0 2.03.023 3.036.068v10.785a118.802 118.802 0 0 0-3.036-.067h-.364V5.99z"/>
        <path fill="url(#r)" d="M62.397 9.389c1.111-.048 2.229-.082 3.352-.101V16.8c-1.123.02-2.24.053-3.352.1V9.39z"/>
        <path fill="url(#s)" d="M56.507 7.862c1.082-.1 2.179-.192 3.28-.264v9.428c-1.101.072-2.198.158-3.28.259V7.862z"/>
        <path fill="url(#t)" d="M50.76 4.488c1.054-.154 2.117-.293 3.19-.418v13.484c-1.073.13-2.136.272-3.19.422V4.488z"/>
        <path fill="#FFF" d="M21.166 88.032v-3.936c.786.422 1.584.834 2.395 1.234v3.95c-.824-.4-1.622-.811-2.395-1.234v-.014zm-7.734-4.92V75.84c.656.48 1.327.96 2.021 1.44v7.253c-.694-.48-1.365-.96-2.02-1.44v.019zm3.688 2.554v-8.554c.724.454 1.465.904 2.222 1.349v8.553a66.622 66.622 0 0 1-2.222-1.348zm-9.889-8.16v-9.5a37.58 37.58 0 0 0 1.57 1.632v9.495a39.599 39.599 0 0 1-1.57-1.637v.01zm2.873 2.88V70.104c.58.523 1.183 1.042 1.806 1.546v10.286a31.478 31.478 0 0 1-1.806-1.55zM2.74 71.29V60.14c.335.604.69 1.2 1.073 1.79v11.15c-.383-.59-.738-1.19-1.073-1.79zm2.021 3.168V59.957c.417.576.862 1.152 1.326 1.718v14.501a27.055 27.055 0 0 1-1.326-1.718zm-3.568-6.461V51.619c.245.624.513 1.243.81 1.858v16.377a22.898 22.898 0 0 1-.81-1.857zm27.349 3.638C12.99 65.352 2.25 55.435 0 44.074v23.294C2.25 78.72 12.992 88.651 28.54 94.93V71.635zM74.134 97.512v-5.28c2.672-.149 5.306-.384 7.883-.7v5.255c-2.577.317-5.21.552-7.883.701v.024zm-12.575 0V87.96c1.596.08 3.215.128 4.856.144h3.352v9.576c-1.108.02-2.225.02-3.352 0-1.635 0-3.253-.048-4.856-.144v-.024zm-12.12-1.258v-14.62c2.554.403 5.146.723 7.777.96v14.64c-2.65-.23-5.242-.55-7.777-.96v-.02zm36.72-.062V80.75c2.516-.41 4.969-.89 7.36-1.44v15.461a106.562 106.562 0 0 1-7.36 1.469v-.048zM99.72 74.069a110.191 110.191 0 0 1-33.306 4.651 112.875 112.875 0 0 1-23.771-2.707v23.294a112.875 112.875 0 0 0 23.77 2.707 109.9 109.9 0 0 0 33.307-4.617V74.069zM116.414 80.755v-4.512c10.847-6.417 17.91-14.976 19.064-24.48v4.512c-1.154 9.523-8.217 18.082-19.064 24.48zm19.217-17.179V40.282c-.345 11.395-9.132 21.566-22.87 28.579V92.16c13.738-7.013 22.506-17.184 22.87-28.58v-.004z"/>
        <path fill="url(#u)" d="M135.478 51.744c-1.154 9.523-8.217 18.082-19.064 24.48v4.512c10.847-6.418 17.91-14.976 19.064-24.48v-4.512z"/>
        <path fill="url(#v)" d="M57.216 82.594c-2.65-.234-5.242-.554-7.777-.96v14.644c2.554.404 5.146.724 7.777.96V82.594z"/>
        <path fill="url(#w)" d="M82.017 91.555c-2.577.317-5.21.552-7.883.701v5.28c2.672-.149 5.306-.384 7.883-.7v-5.28z"/>
        <path fill="url(#x)" d="M93.52 79.286a96.317 96.317 0 0 1-7.361 1.44v15.466c2.516-.406 4.969-.896 7.36-1.469V79.286z"/>
        <path fill="url(#y)" d="M69.748 88.094c-1.108.02-2.225.02-3.352 0-1.635 0-3.253-.048-4.856-.144v9.586c1.596.083 3.215.131 4.856.144h3.352v-9.586z"/>
        <path fill="url(#z)" d="M2.002 53.477a26.264 26.264 0 0 1-.81-1.858v16.378c.245.624.513 1.243.81 1.857V53.477z"/>
        <path fill="url(#A)" d="M3.831 61.92a29.96 29.96 0 0 1-1.073-1.79v11.15c.336.6.69 1.2 1.073 1.79V61.92z"/>
        <path fill="url(#B)" d="M6.086 61.675a28.492 28.492 0 0 1-1.326-1.718v14.5c.417.581.862 1.153 1.326 1.719v-14.5z"/>
        <path fill="url(#C)" d="M8.802 69.638a41.637 41.637 0 0 1-1.571-1.632v9.49c.501.554 1.025 1.1 1.57 1.637v-9.495z"/>
        <path fill="url(#D)" d="M11.934 71.65a44.187 44.187 0 0 1-1.806-1.546v10.282a48.188 48.188 0 0 0 1.806 1.55V71.65z"/>
        <path fill="url(#E)" d="M15.453 77.314c-.694-.48-1.365-.96-2.02-1.44v7.252c.655.48 1.326.96 2.02 1.44v-7.252z"/>
        <path fill="url(#F)" d="M19.342 78.46a74.47 74.47 0 0 1-2.222-1.348v8.554c.723.48 1.465.907 2.222 1.348v-8.553z"/>
        <path fill="url(#G)" d="M23.58 85.33c-.824-.4-1.622-.812-2.395-1.234v3.936c.786.422 1.584.834 2.395 1.234V85.33z"/>
    </g>
</svg>
