<svg xmlns="http://www.w3.org/2000/svg" width="480" height="384" viewBox="0 0 480 384">
    <g fill="none" fill-rule="evenodd">
        <path fill="#B6C4C8" fill-rule="nonzero" d="M471.403 248.855l-157.739-93.242c-6.56-3.594-11.893-11.678-11.893-18.045L297.6 9.75a27.735 27.735 0 0 0 3.808-2.037c2.133-1.482 5.536-1.344 9.323.725l156.8 87.857c6.57 3.594 11.893 11.731 11.893 18.045v125.845c0 2.965-1.152 5.044-3.05 6.047l-4.971 2.623z"/>
        <path fill="#E8ECED" fill-rule="nonzero" d="M463.147 247.576l-156.8-87.857c-6.571-3.594-11.894-11.678-11.894-18.056V15.818c0-6.398 5.334-8.627 11.894-5.033l156.8 87.856c6.57 3.594 11.893 11.732 11.893 18.045v125.845c0 6.388-5.323 8.639-11.893 5.045z"/>
        <path fill="#CDF4FF" fill-rule="nonzero" d="M458.41 229.787l-148.266-83.069a16.338 16.338 0 0 1-8.533-14.226V30.248a5.332 5.332 0 0 1 7.968-4.469L459.2 109.562a17.97 17.97 0 0 1 9.312 15.645v98.917a6.74 6.74 0 0 1-10.101 5.663z"/>
        <path fill="#B7B3B6" fill-rule="nonzero" d="M389.088 64.055a3.765 3.765 0 0 0-1.696-3.04c-.928-.511-1.685 0-1.685 1.195a3.786 3.786 0 0 0 1.685 3.05c.939.48 1.696-.063 1.696-1.205z"/>
        <path fill="#B6C4C8" fill-rule="nonzero" d="M455.712 259.318L351.52 316.246l-161.867-90.704-11.456-6.399v7.775a6.324 6.324 0 0 0 3.2 4.49l160.758 90.075a20.27 20.27 0 0 0 19.68 0l101.333-56.769a6.271 6.271 0 0 0 3.2-4.48v-6.494l-10.656 5.578z"/>
        <path fill="#E8ECED" fill-rule="nonzero" d="M181.397 225.286l160.758 90.075a20.195 20.195 0 0 0 19.68 0l101.333-56.758a6.27 6.27 0 0 0 0-11.027L302.389 157.5a20.195 20.195 0 0 0-19.68 0l-101.333 56.758a6.27 6.27 0 0 0 .021 11.027z"/>
        <path fill="#4F4F60" fill-rule="nonzero" d="M460.853 240.452L308.235 154.94v5.834l152.618 85.51zM268.8 182.19l-6.944-3.893c-.405-.224-.437-.576-.064-.79l4.747-2.665c.44-.218.957-.218 1.397 0l6.944 3.882c.395.224.427.575.064.789l-4.757 2.666a1.59 1.59 0 0 1-1.387.01zM277.867 187.255l-6.934-3.882c-.405-.224-.426-.575-.064-.789l4.747-2.666c.44-.217.957-.217 1.397 0l6.944 3.882c.406.224.438.576.064.79l-4.746 2.665c-.444.221-.965.221-1.408 0zM286.933 192.332l-6.944-3.882c-.394-.224-.426-.576-.064-.79l4.758-2.666c.44-.217.957-.217 1.397 0l6.933 3.882c.406.224.438.576.075.79l-4.757 2.666c-.44.217-.957.217-1.398 0zM295.99 197.366l-6.923-3.84c-.406-.224-.438-.576-.064-.789l4.746-2.666a1.61 1.61 0 0 1 1.398 0l6.944 3.893c.394.224.426.575.064.789l-4.758 2.666c-.45.21-.974.19-1.408-.053zM305.067 202.485l-6.944-3.882c-.406-.224-.427-.576-.064-.79l4.746-2.666a1.61 1.61 0 0 1 1.398 0l6.944 3.893c.405.224.437.576.064.779l-4.747 2.676c-.442.214-.959.21-1.397-.01zM314.101 207.561l-6.901-3.882c-.395-.234-.427-.576-.064-.789l4.757-2.666a1.61 1.61 0 0 1 1.398 0l6.933 3.892c.405.224.437.576.064.779l-4.747 2.677c-.453.228-.99.224-1.44-.01zM323.2 212.638l-6.944-3.882c-.405-.235-.437-.576-.064-.79l4.747-2.666a1.61 1.61 0 0 1 1.397 0l6.944 3.893c.395.224.427.576.064.778l-4.757 2.677a1.547 1.547 0 0 1-1.387-.01zM332.224 217.714l-6.89-3.882c-.406-.234-.427-.576-.065-.79l4.747-2.665a1.61 1.61 0 0 1 1.397 0l6.944 3.892c.406.224.438.576.064.779l-4.746 2.677a1.61 1.61 0 0 1-1.451-.01zM341.333 222.79l-6.944-3.881c-.394-.235-.426-.576-.064-.79l4.758-2.666a1.61 1.61 0 0 1 1.397 0l6.933 3.893c.406.224.438.576.064.778l-4.746 2.677a1.61 1.61 0 0 1-1.398-.01zM350.336 227.867l-6.933-3.882c-.406-.235-.438-.587-.064-.79l4.746-2.665a1.61 1.61 0 0 1 1.398 0l6.944 3.892c.394.224.426.576.064.779l-4.758 2.677a1.61 1.61 0 0 1-1.397-.011zM359.403 232.943l-6.944-3.882c-.406-.234-.427-.586-.064-.789l4.746-2.666a1.61 1.61 0 0 1 1.398 0l6.944 3.893c.405.224.437.576.064.778l-4.747 2.677a1.61 1.61 0 0 1-1.397-.01zM368.459 238.02l-6.944-3.893c-.395-.224-.427-.576-.064-.778l4.757-2.666c.44-.218.957-.218 1.397 0l6.934 3.892c.405.224.437.576.064.779l-4.747 2.677a1.61 1.61 0 0 1-1.397-.011zM377.515 243.096l-6.934-3.892c-.405-.224-.437-.576-.064-.779l4.747-2.666c.44-.219.957-.219 1.397 0l6.944 3.893c.395.224.427.576.064.778l-4.757 2.666c-.44.218-.957.218-1.397 0zM400.821 256.16l-5.333-2.996c-.395-.224-.427-.576-.064-.779l4.757-2.666c.44-.217.957-.217 1.398 0l5.333 2.986c.395.224.427.576.064.79l-4.757 2.666a1.61 1.61 0 0 1-1.398 0zM408.224 260.288l-5.333-2.986c-.406-.224-.438-.576-.064-.779l4.746-2.634c.44-.217.957-.217 1.398 0l5.333 2.986c.405.224.437.576.064.779l-4.768 2.687a1.61 1.61 0 0 1-1.376-.053zM415.616 264.447l-5.333-2.986c-.395-.234-.427-.576-.064-.789l4.757-2.666a1.61 1.61 0 0 1 1.397 0l5.334 2.997c.394.224.426.576.064.778l-4.758 2.666c-.44.218-.957.218-1.397 0zM423.019 268.585l-5.334-2.986c-.405-.224-.437-.576-.064-.778l4.747-2.667c.44-.219.957-.219 1.397 0l5.334 2.987c.405.224.437.575.064.789l-4.747 2.666c-.442.214-.959.21-1.397-.01zM392.533 260.8l-5.333-2.986c-.405-.224-.437-.576-.064-.779l4.747-2.677a1.61 1.61 0 0 1 1.397 0l5.333 2.987c.406.224.427.575.064.778l-4.746 2.677c-.44.217-.957.217-1.398 0zM400 264.949l-5.333-2.987c-.406-.223-.427-.575-.064-.789l4.757-2.666c.436-.219.95-.219 1.387 0l5.333 2.986c.405.224.437.576.075.779l-4.758 2.666c-.438.22-.955.225-1.397.01zM407.35 269.097l-5.334-2.997c-.405-.224-.437-.575-.064-.778l4.747-2.666c.44-.218.957-.218 1.397 0l5.333 2.986c.406.234.427.576.064.789l-4.746 2.666a1.61 1.61 0 0 1-1.398 0zM384.277 265.45l-5.333-2.986c-.405-.224-.437-.576-.064-.779l4.747-2.677c.44-.217.957-.217 1.397 0l5.333 2.986c.406.224.438.576.064.779l-4.746 2.677a1.61 1.61 0 0 1-1.398 0zM391.67 269.598l-5.334-2.986c-.395-.234-.427-.576-.064-.789l4.757-2.666a1.61 1.61 0 0 1 1.398 0l5.333 2.986c.395.235.427.587.064.79l-4.757 2.665c-.44.218-.957.218-1.398 0zM399.072 273.736l-5.333-2.986c-.406-.224-.438-.576-.064-.778l4.746-2.666c.44-.22.958-.22 1.398 0l5.333 2.986c.405.224.437.576.064.789l-4.747 2.666c-.442.214-.958.21-1.397-.01zM406.475 277.885l-5.334-2.986c-.394-.224-.426-.576-.064-.79l13.035-7.315a1.59 1.59 0 0 1 1.387 0l5.333 2.986c.405.224.437.576.075.778l-13.035 7.316c-.438.226-.956.23-1.397.011zM376 270.1l-5.333-2.986c-.406-.224-.427-.576-.064-.79l4.757-2.666a1.59 1.59 0 0 1 1.387 0l5.333 2.997c.405.224.437.576.075.779l-4.758 2.666c-.44.217-.957.217-1.397 0zM383.403 274.248l-5.334-2.996c-.405-.224-.437-.576-.064-.779l4.747-2.666c.44-.218.957-.218 1.397 0l5.334 2.986c.405.224.426.576.064.79l-4.747 2.665a1.61 1.61 0 0 1-1.397 0zM390.795 278.418l-5.334-2.986c-.405-.224-.426-.576-.064-.778l4.758-2.677a1.59 1.59 0 0 1 1.386 0l5.334 2.986c.405.224.437.576.074.778l-4.757 2.677a1.61 1.61 0 0 1-1.397 0zM367.733 274.75l-5.333-2.987c-.405-.234-.437-.586-.075-.789l4.758-2.666a1.61 1.61 0 0 1 1.397 0l5.333 2.986c.395.235.427.587.064.79l-4.757 2.666a1.59 1.59 0 0 1-1.387 0zM375.125 278.888l-5.333-2.987c-.405-.224-.437-.576-.064-.778l4.747-2.677a1.61 1.61 0 0 1 1.397 0l5.333 2.986c.406.224.438.576.064.779l-4.736 2.72c-.45.207-.971.19-1.408-.043zM382.528 283.036l-5.333-2.986c-.406-.224-.438-.576-.075-.79l4.757-2.665c.44-.218.957-.218 1.398 0l5.333 2.986c.395.224.427.576.064.778l-4.757 2.666a1.547 1.547 0 0 1-1.387.011zM389.92 287.185l-5.333-2.997c-.406-.224-.438-.576-.064-.779l13.024-7.316a1.61 1.61 0 0 1 1.397 0l5.333 2.997c.406.224.427.576.064.779l-13.024 7.316a1.61 1.61 0 0 1-1.397 0zM392.373 251.415l-12.736-7.124c-.405-.224-.437-.576-.064-.779l4.747-2.666c.44-.219.957-.219 1.397 0l12.736 7.135c.406.224.427.576.064.778l-4.757 2.677a1.59 1.59 0 0 1-1.387-.021zM282.57 174.468l-6.933-3.892c-.405-.224-.437-.576-.064-.779l4.747-2.666c.44-.22.957-.22 1.397 0l6.944 3.893c.395.224.427.575.064.778l-4.757 2.666c-.44.218-.957.218-1.397 0zM291.637 179.545l-6.944-3.893c-.405-.224-.426-.576-.064-.778l4.747-2.667c.44-.219.957-.219 1.397 0l6.944 3.893c.406.224.427.576.064.779l-4.746 2.666c-.44.219-.958.219-1.398 0zM300.693 184.621l-6.944-3.892c-.394-.224-.426-.576-.064-.779l4.758-2.666c.44-.218.957-.218 1.397 0l6.933 3.892c.406.224.438.576.064.779l-4.746 2.666c-.44.22-.958.22-1.398 0zM309.75 189.698l-6.934-3.893c-.405-.224-.437-.576-.064-.779l4.747-2.666c.44-.217.957-.217 1.397 0l6.944 3.893c.395.224.427.576.064.778l-4.757 2.667c-.44.217-.957.217-1.398 0zM318.816 194.774l-6.944-3.893c-.405-.224-.437-.575-.064-.778l4.747-2.666c.44-.22.957-.22 1.397 0l6.944 3.892c.405.224.427.576.064.779l-4.747 2.666c-.44.22-.957.22-1.397 0zM327.872 199.85l-6.944-3.892c-.395-.224-.427-.576-.064-.779l4.757-2.666c.44-.217.957-.217 1.398 0l6.933 3.893c.405.224.437.576.064.778l-4.747 2.667c-.44.217-.957.217-1.397 0zM336.928 204.927l-6.933-3.893c-.406-.224-.438-.576-.064-.778l4.746-2.666c.44-.218.957-.218 1.398 0l6.944 3.892c.394.224.426.576.064.779l-4.758 2.666c-.44.217-.957.217-1.397 0zM345.995 210.003l-6.944-3.892c-.406-.224-.438-.576-.064-.779l4.746-2.666c.44-.219.958-.219 1.398 0l6.944 3.893c.405.224.426.576.064.778l-4.747 2.666c-.44.22-.957.22-1.397 0zM355.05 215.08l-6.943-3.85c-.395-.224-.427-.576-.064-.779l4.757-2.676a1.59 1.59 0 0 1 1.387 0l6.944 3.892c.405.224.437.576.064.779l-4.747 2.666a1.568 1.568 0 0 1-1.397-.032zM364.107 220.156l-6.934-3.892c-.405-.224-.437-.576-.064-.779l4.747-2.677a1.61 1.61 0 0 1 1.397 0l6.944 3.882c.395.235.427.587.064.79l-4.757 2.666a1.61 1.61 0 0 1-1.397.01zM373.173 225.233l-6.944-3.893c-.405-.224-.437-.576-.064-.778l4.747-2.677a1.61 1.61 0 0 1 1.397 0l6.944 3.882c.406.234.427.586.064.789l-4.746 2.666a1.61 1.61 0 0 1-1.398.01zM382.23 230.31l-6.945-3.893c-.394-.224-.426-.576-.064-.779l4.758-2.677a1.59 1.59 0 0 1 1.386 0l6.944 3.882c.406.235.438.576.064.79l-4.746 2.666a1.61 1.61 0 0 1-1.398.01zM391.285 235.386l-6.933-3.893c-.405-.224-.437-.576-.064-.778l4.747-2.677a1.61 1.61 0 0 1 1.397 0l6.944 3.882c.395.234.427.576.064.789l-4.757 2.666a1.61 1.61 0 0 1-1.398.01zM414.592 248.44l-5.333-2.987c-.395-.224-.427-.576-.064-.778l4.757-2.677c.436-.219.95-.219 1.387 0l5.333 2.986c.405.224.437.576.075.779l-4.747 2.72a1.61 1.61 0 0 1-1.408-.044zM421.995 252.588l-5.334-2.986c-.405-.235-.437-.587-.064-.79l4.747-2.665a1.61 1.61 0 0 1 1.397 0l5.334 2.986c.405.234.437.586.064.789l-4.747 2.666a1.61 1.61 0 0 1-1.397 0zM429.387 256.726l-5.334-2.986c-.394-.224-.426-.576-.064-.779l4.758-2.666c.436-.219.95-.219 1.386 0l5.334 2.986c.405.224.437.576.074.79l-4.757 2.666c-.442.214-.959.21-1.397-.011zM436.79 260.875l-5.334-2.986c-.405-.224-.437-.576-.064-.79l4.747-2.666c.44-.217.957-.217 1.397 0l5.333 2.986c.406.224.438.576.064.779l-4.746 2.666a1.568 1.568 0 0 1-1.398.01zM406.144 243.704l-12.736-7.134c-.405-.224-.437-.576-.064-.779l4.747-2.677c.44-.217.957-.217 1.397 0l12.736 7.135c.395.224.427.576.064.778l-4.757 2.667a1.547 1.547 0 0 1-1.387.01zM264.736 189.186l-11.147-6.24c-.405-.234-.426-.575-.064-.788l4.747-2.667a1.61 1.61 0 0 1 1.397 0l11.147 6.25c.405.224.427.576.064.779l-4.757 2.666c-.437.219-.95.219-1.387 0zM273.792 194.262l-6.944-3.892c-.405-.224-.427-.576-.064-.779l4.757-2.666c.437-.219.95-.219 1.387 0l6.944 3.892c.405.224.437.576.064.779l-4.747 2.666c-.44.22-.957.22-1.397 0zM282.848 199.339l-6.933-3.893c-.406-.224-.438-.576-.075-.779l4.757-2.666c.44-.217.957-.217 1.398 0l6.933 3.893c.405.224.437.576.075.778l-4.758 2.667c-.44.217-.957.217-1.397 0zM291.915 204.415l-6.944-3.85c-.406-.224-.438-.576-.064-.778l4.746-2.667c.44-.219.958-.219 1.398 0l6.944 3.893c.405.224.426.576.064.779l-4.758 2.666c-.443.205-.957.19-1.386-.043zM300.97 209.492l-6.943-3.893c-.406-.224-.427-.576-.064-.779l4.757-2.666c.436-.219.95-.219 1.387 0l6.944 3.893c.405.224.437.576.064.778l-4.747 2.667c-.44.219-.957.219-1.397 0zM310.027 214.568l-6.934-3.893c-.405-.224-.437-.576-.074-.778l4.757-2.666c.44-.218.957-.218 1.397 0l6.934 3.892c.405.224.437.576.074.779l-4.757 2.666c-.44.217-.957.217-1.397 0zM319.093 219.644l-6.944-3.892c-.405-.224-.437-.576-.064-.779l4.715-2.677c.44-.219.957-.219 1.397 0l6.944 3.893c.406.224.427.576.064.779l-4.757 2.666a1.547 1.547 0 0 1-1.355.01zM328.15 224.72l-6.945-3.892c-.405-.224-.426-.576-.064-.778l4.758-2.677a1.59 1.59 0 0 1 1.386 0l6.944 3.893c.406.223.438.575.064.778l-4.746 2.666a1.568 1.568 0 0 1-1.398.01zM337.205 229.797l-6.933-3.892c-.405-.224-.437-.576-.075-.779l4.758-2.677a1.61 1.61 0 0 1 1.397 0l6.933 3.882c.406.235.438.587.075.79l-4.757 2.666a1.61 1.61 0 0 1-1.398.01zM346.272 234.874l-6.944-3.893c-.405-.224-.437-.576-.064-.778l4.747-2.677a1.61 1.61 0 0 1 1.397 0l6.944 3.882c.405.234.427.576.064.789l-4.757 2.666a1.59 1.59 0 0 1-1.387.01zM355.328 239.95l-6.944-3.892c-.405-.224-.427-.576-.064-.779l4.747-2.72a1.59 1.59 0 0 1 1.386 0l6.944 3.883c.406.234.438.575.064.789l-4.746 2.666a1.61 1.61 0 0 1-1.387.053zM364.384 245.027l-6.933-3.893c-.406-.224-.438-.576-.075-.778l4.757-2.677a1.61 1.61 0 0 1 1.398 0l6.933 3.882c.405.234.437.576.075.789l-4.758 2.666a1.61 1.61 0 0 1-1.397.01zM373.45 250.103l-6.943-3.892c-.406-.224-.438-.576-.064-.779l4.746-2.677c.44-.217.957-.217 1.398 0l6.944 3.882c.405.235.426.576.064.79l-4.758 2.666a1.59 1.59 0 0 1-1.386.01zM384.096 256.022l-8.533-4.778c-.406-.224-.427-.576-.064-.778l4.757-2.677c.436-.219.95-.219 1.387 0l8.533 4.778c.405.224.437.576.064.778l-4.747 2.666a1.568 1.568 0 0 1-1.397.011zM258.901 195.169l-13.738-7.7c-.395-.224-.427-.576-.064-.779l4.757-2.677a1.61 1.61 0 0 1 1.397 0l13.728 7.69c.406.234.438.586.064.789l-4.778 2.74a1.61 1.61 0 0 1-1.366-.063zM267.957 200.245l-6.933-3.893c-.405-.223-.437-.575-.064-.778l4.747-2.677a1.61 1.61 0 0 1 1.397 0l6.944 3.882c.395.235.427.576.064.79l-4.757 2.665a1.61 1.61 0 0 1-1.398.011zM277.024 205.322l-6.944-3.893c-.405-.224-.437-.576-.064-.779l4.747-2.676a1.61 1.61 0 0 1 1.397 0l6.944 3.882c.405.234.427.575.064.789l-4.747 2.666a1.61 1.61 0 0 1-1.397.01zM286.08 210.398l-6.944-3.893c-.395-.224-.427-.575-.064-.778l4.757-2.677c.437-.219.95-.219 1.387 0l6.944 3.914c.405.235.437.576.064.79l-4.747 2.665a1.61 1.61 0 0 1-1.397-.02zM295.136 215.496l-6.933-3.893c-.406-.224-.438-.576-.075-.778l4.757-2.677c.44-.218.957-.218 1.398 0l6.944 3.882c.394.234.426.576.064.789l-4.758 2.677a1.61 1.61 0 0 1-1.397 0zM304.203 220.551l-6.944-3.893c-.406-.224-.438-.576-.064-.778l4.746-2.677c.44-.217.957-.217 1.398 0l6.944 3.882c.405.224.426.576.064.79l-4.747 2.665a1.61 1.61 0 0 1-1.397.011zM313.259 225.627l-6.944-3.892c-.395-.224-.427-.576-.064-.79l4.757-2.666c.436-.218.95-.218 1.387 0l6.944 3.882c.405.224.437.576.064.79l-4.747 2.666a1.61 1.61 0 0 1-1.397.01zM322.315 230.693l-6.934-3.882c-.405-.224-.437-.576-.074-.789l4.757-2.666c.44-.218.957-.218 1.397 0l6.934 3.882c.405.224.437.576.074.789l-4.757 2.666c-.44.218-.957.218-1.397 0zM331.381 235.759l-6.944-3.882c-.405-.224-.437-.576-.064-.79l4.747-2.665c.44-.218.957-.218 1.397 0l6.944 3.882c.406.224.427.576.064.789l-4.746 2.666c-.44.217-.957.217-1.398 0zM340.437 240.846l-6.944-3.882c-.394-.224-.426-.576-.064-.79l4.758-2.665a1.59 1.59 0 0 1 1.386 0l6.944 3.892c.406.224.438.576.064.79l-4.746 2.666c-.442.214-.959.21-1.398-.01zM349.493 245.923l-6.933-3.882c-.405-.224-.437-.576-.075-.79l4.758-2.666a1.61 1.61 0 0 1 1.397 0l6.933 3.893c.406.224.438.576.075.778l-4.715 2.71a1.579 1.579 0 0 1-1.44-.043zM358.56 250.999l-6.944-3.882c-.405-.224-.437-.576-.064-.79l4.747-2.665a1.61 1.61 0 0 1 1.397 0l6.944 3.892c.405.224.427.576.064.779l-4.747 2.677c-.442.214-.958.21-1.397-.011zM367.616 256.075l-6.944-3.882c-.395-.234-.427-.575-.064-.789l4.757-2.666a1.59 1.59 0 0 1 1.387 0l6.944 3.893c.405.224.437.576.064.778l-4.693 2.71a1.579 1.579 0 0 1-1.451-.044z"/>
        <path fill="#4F4F60" fill-rule="nonzero" d="M375.85 260.693l-15.178-8.532c-.395-.234-.427-.575-.064-.789l4.757-2.666a1.59 1.59 0 0 1 1.387 0l15.179 8.532c.405.224.437.576.074.778l-4.757 2.667c-.439.22-.955.224-1.397.01zM253.067 201.141l-16.139-9.044c-.405-.224-.437-.576-.064-.778l4.747-2.667c.44-.217.957-.217 1.397 0l16.192 9.076c.395.224.427.576.064.79l-4.757 2.666a1.579 1.579 0 0 1-1.44-.043zM262.133 206.217l-6.944-3.882c-.405-.224-.426-.575-.064-.789l4.747-2.666a1.61 1.61 0 0 1 1.397 0l6.944 3.893c.406.224.438.576.064.789l-4.746 2.666c-.442.214-.959.21-1.398-.01zM271.19 211.294l-6.945-3.882c-.394-.224-.426-.576-.064-.79l4.758-2.665a1.61 1.61 0 0 1 1.397 0l6.933 3.892c.406.224.438.576.064.79l-4.746 2.666c-.442.214-.959.21-1.398-.011zM280.245 216.37l-6.933-3.882c-.405-.234-.437-.576-.064-.789l4.747-2.666a1.61 1.61 0 0 1 1.397 0l6.944 3.893c.395.224.427.576.064.778l-4.8 2.709c-.435.19-.932.175-1.355-.043zM289.312 221.447l-6.944-3.882c-.405-.235-.427-.576-.064-.79l4.747-2.666a1.61 1.61 0 0 1 1.397 0l6.944 3.893c.405.224.437.576.064.779l-4.747 2.676c-.442.214-.958.21-1.397-.01zM298.368 226.523l-6.944-3.882c-.395-.234-.427-.576-.064-.789l4.757-2.666a1.61 1.61 0 0 1 1.398 0l6.933 3.893c.405.223.437.575.064.778l-4.779 2.709a1.61 1.61 0 0 1-1.365-.043zM307.424 231.6l-6.933-3.882c-.406-.235-.438-.576-.064-.79l4.746-2.666a1.61 1.61 0 0 1 1.398 0l6.944 3.893c.394.224.426.576.064.779l-4.758 2.676a1.61 1.61 0 0 1-1.397-.01zM316.49 236.676l-6.943-3.882c-.406-.234-.427-.586-.064-.789l4.746-2.666a1.61 1.61 0 0 1 1.398 0l6.944 3.892c.405.224.437.576.064.779l-4.768 2.709a1.61 1.61 0 0 1-1.376-.043zM325.547 241.753l-6.944-3.861c-.395-.235-.427-.587-.064-.79l4.757-2.665a1.61 1.61 0 0 1 1.397 0l6.934 3.892c.405.224.437.576.064.779l-4.747 2.677a1.61 1.61 0 0 1-1.397-.032zM334.603 246.83l-6.934-3.894c-.405-.224-.437-.575-.064-.778l4.747-2.666c.44-.218.957-.218 1.397 0l6.944 3.892c.395.224.427.576.064.779L336 246.872a1.61 1.61 0 0 1-1.397-.043zM343.67 251.906l-6.945-3.893c-.405-.224-.437-.576-.064-.779l4.747-2.666c.44-.219.957-.219 1.397 0l6.944 3.893c.406.224.427.576.064.778l-4.746 2.667c-.44.219-.958.219-1.398 0zM352.725 256.982l-6.944-3.893c-.394-.224-.426-.576-.064-.778l4.758-2.666c.44-.218.957-.218 1.397 0l6.933 3.892c.406.224.438.576.064.779l-4.746 2.666c-.44.217-.957.217-1.398 0zM367.616 265.322l-12.8-7.156c-.405-.224-.437-.576-.064-.779l4.747-2.666c.44-.217.957-.217 1.397 0l12.8 7.156c.405.224.427.576.064.779l-4.757 2.677a1.59 1.59 0 0 1-1.387-.011zM247.243 207.124l-18.56-10.398c-.406-.224-.427-.576-.064-.779l4.757-2.666c.436-.219.95-.219 1.387 0l18.56 10.398c.405.224.437.576.064.779l-4.747 2.677a1.61 1.61 0 0 1-1.397-.011zM256.299 212.2l-6.934-3.892c-.405-.224-.437-.576-.074-.779l4.757-2.666c.44-.217.957-.217 1.397 0l6.934 3.893c.405.224.437.576.074.778l-4.757 2.762a1.61 1.61 0 0 1-1.397-.096zM265.365 217.277l-6.944-3.914c-.405-.224-.437-.576-.064-.779l4.747-2.666c.44-.219.957-.219 1.397 0l6.944 3.893c.406.224.427.576.064.778l-4.757 2.667a1.547 1.547 0 0 1-1.387.02zM310.656 242.66l-43.37-23.965c-.406-.224-.438-.576-.075-.778l4.757-2.677a1.61 1.61 0 0 1 1.397 0l43.371 23.985c.405.224.437.576.075.779l-4.758 2.666c-.442.214-.958.21-1.397-.01zM319.723 247.736l-6.944-3.893c-.406-.224-.438-.576-.064-.779l4.746-2.666c.44-.219.958-.219 1.398 0l6.944 3.893c.394.224.426.576.064.778l-4.758 2.667c-.436.218-.95.218-1.386 0zM328.779 252.823l-6.944-3.893c-.406-.224-.427-.576-.064-.778l4.757-2.667c.436-.218.95-.218 1.387 0l6.944 3.893c.405.224.437.576.064.779l-4.747 2.666c-.44.219-.957.219-1.397 0zM337.835 257.889l-6.934-3.893c-.405-.224-.437-.576-.074-.779l4.757-2.666c.44-.217.957-.217 1.397 0l6.934 3.893c.405.224.437.576.074.778l-4.757 2.667c-.44.217-.957.217-1.397 0zM346.901 262.965l-6.944-3.893c-.405-.224-.437-.576-.064-.778l4.747-2.677a1.61 1.61 0 0 1 1.397 0l6.944 3.882c.395.235.427.586.064.79l-4.757 2.665a1.547 1.547 0 0 1-1.387.011zM359.37 269.95l-10.357-5.801c-.405-.224-.426-.576-.064-.779l4.747-2.677a1.61 1.61 0 0 1 1.397 0l10.358 5.802c.405.224.437.576.064.779l-4.747 2.676a1.61 1.61 0 0 1-1.397 0z"/>
        <path fill="#B7B3B6" fill-rule="nonzero" d="M295.37 275.08l-42.666-23.91c-1.888-1.067-2.027-2.699-.31-3.658l24.225-13.609a7.468 7.468 0 0 1 6.528.171l42.666 23.9c1.878 1.066 2.016 2.698.31 3.658l-24.256 13.587c-2.07.96-4.469.909-6.496-.139z"/>
        <path fill="#4F4F60" fill-rule="nonzero" d="M303.136 168.89l-12.17-6.814a3.126 3.126 0 0 0-2.72-.075c-.715.405-.662 1.067.127 1.525l12.171 6.826c.848.44 1.852.464 2.72.064.736-.406.65-1.088-.128-1.525z"/>
        <g fill-rule="nonzero" opacity=".45">
            <path fill="#F7FBFC" d="M266.73 1.133c-2.815-1.578-6.687.437-8.362 1.536-.47.308-.747.836-.736 1.397l1.365 133.577c0 3.892 2.827 9.747 6.272 11.678l186.667 105.421a2.87 2.87 0 0 0 2.88 0c3.2-1.951 4.533-3.007 4.533-6.399l-1.376-132.18a13.437 13.437 0 0 0-6.272-10.59L266.731 1.134z" opacity=".96"/>
            <path fill="#C0E7F6" d="M262.059.493a3.414 3.414 0 0 1 2.314-.373h.064l.406.074h.181c.135.033.266.076.395.128h.128c.298.118 186.218 105.028 186.218 105.028h.064a13.48 13.48 0 0 1 6.262 10.344l1.344 133.31a5.577 5.577 0 0 1-1.366 3.819c-.124.107-.26.2-.405.277l-3.04 1.856c.587-.352.48-2.986.48-3.2l-1.333-133.15c0-.405-.064-.821-.128-1.29-.09-.59-.225-1.17-.406-1.739 0-.117-.085-.224-.117-.341l-.16-.427a17.13 17.13 0 0 0-.267-.66.629.629 0 0 1 0-.086c-.117-.246-.224-.48-.352-.725-.25-.489-.528-.962-.832-1.419v-.064l-.416-.586-.522-.662c-.214-.245-.438-.49-.662-.725l-.341-.341a8.32 8.32 0 0 0-.736-.64 7.52 7.52 0 0 0-1.323-.885L262.261 3.554c-1.589-.725-3.2-1.067-4.149-.47l3.947-2.59z"/>
            <path fill="#2C92C9" fill-opacity=".2" d="M258.25 11.712l195.553 110.104-.011-1.365L258.155 10.326z"/>
            <path fill="#2C92C9" d="M447.819 110.511c-.864-.5-1.568-.085-1.547.918a3.402 3.402 0 0 0 1.579 2.666c.874.501 1.568.085 1.557-.917a3.413 3.413 0 0 0-1.59-2.667zM443.147 107.493c-.864-.49-1.558-.085-1.547.917a3.338 3.338 0 0 0 1.547 2.624c.874.49 1.568.085 1.557-.917a3.317 3.317 0 0 0-1.557-2.624zM438.4 104.4c-.864-.5-1.568-.085-1.547.918a3.402 3.402 0 0 0 1.579 2.666c.875.501 1.568.085 1.557-.917a3.434 3.434 0 0 0-1.589-2.667z" opacity=".2"/>
            <path fill="#ABDCED" d="M293.888 165.52l-28.939-16.285c-2.528-1.44-6.144-4.383-5.866-14.227l-1.259-124.98 35.712 20.593.352 134.9z"/>
            <path fill="#EDF8FF" d="M280.192 49.295a2.304 2.304 0 0 0-1.067-1.845l-15.936-9.385a.8.8 0 0 0-.821-.074.832.832 0 0 0-.352.735c.017.377.127.743.32 1.067.178.32.435.587.747.778l15.925 9.396a.832.832 0 0 0 .821.075.81.81 0 0 0 .363-.747zM280.181 55.16a2.368 2.368 0 0 0-1.066-1.844l-15.936-9.385a.8.8 0 0 0-.822-.075.79.79 0 0 0-.352.736c.043.75.44 1.434 1.067 1.845l15.936 9.385a.8.8 0 0 0 .821.075.79.79 0 0 0 .352-.736zM280.192 61.155a2.368 2.368 0 0 0-1.067-1.845l-15.936-9.396a.832.832 0 0 0-.821-.075.81.81 0 0 0-.352.747c.01.377.12.745.32 1.066.176.32.429.592.736.79l15.936 9.384a.715.715 0 0 0 1.173-.66l.011-.011zM280.203 67.03a2.357 2.357 0 0 0-1.067-1.855L263.2 55.79a.715.715 0 0 0-1.173.661c.01.378.12.746.32 1.067.175.318.428.586.736.778l15.936 9.396a.832.832 0 0 0 .821.075.8.8 0 0 0 .363-.736zM280.213 73.046a2.336 2.336 0 0 0-1.066-1.845l-15.936-9.396a.715.715 0 0 0-1.174.672c.01.378.121.746.32 1.066.177.324.434.595.747.79l15.925 9.385a.8.8 0 0 0 .822.074.79.79 0 0 0 .362-.746zM280.213 78.922a2.304 2.304 0 0 0-1.066-1.845l-15.936-9.385a.8.8 0 0 0-.822-.075.79.79 0 0 0-.341.736c.007.377.114.745.31 1.067.182.315.438.582.746.778l15.925 9.385a.8.8 0 0 0 .822.075.79.79 0 0 0 .362-.736zM280.235 84.894a2.325 2.325 0 0 0-1.067-1.855l-15.925-9.385a.832.832 0 0 0-.822-.075.8.8 0 0 0-.341.736c.03.753.43 1.443 1.067 1.845l15.925 9.396a.832.832 0 0 0 .821.074.8.8 0 0 0 .342-.736zM280.224 90.781a2.368 2.368 0 0 0-1.067-1.845l-15.936-9.395a.725.725 0 0 0-1.173.672 2.41 2.41 0 0 0 1.067 1.845l15.936 9.385a.8.8 0 0 0 .821.074.79.79 0 0 0 .352-.736zM280.245 96.594a2.336 2.336 0 0 0-1.066-1.845l-15.926-9.364a.832.832 0 0 0-.821-.075.81.81 0 0 0-.352.747c.01.377.12.746.32 1.066.176.32.429.592.736.79l15.936 9.385a.715.715 0 0 0 1.173-.662v-.042zM280.267 102.566a2.368 2.368 0 0 0-1.067-1.845l-15.936-9.385a.715.715 0 0 0-1.173.661c.043.75.438 1.434 1.066 1.845l15.936 9.396a.832.832 0 0 0 .822.075.81.81 0 0 0 .352-.747zM280.277 108.442a2.336 2.336 0 0 0-1.066-1.845l-15.936-9.385a.8.8 0 0 0-.822-.074.79.79 0 0 0-.352.736c.01.377.121.745.32 1.066.18.315.432.582.736.779l15.936 9.385a.8.8 0 0 0 .822.074.79.79 0 0 0 .362-.736zM289.941 42.363a2.368 2.368 0 0 0-1.066-1.856L263.85 25.843a.8.8 0 0 0-.822-.074.79.79 0 0 0-.341.736c.007.376.114.744.31 1.066.177.32.435.587.746.779l25.024 14.674a.715.715 0 0 0 1.173-.66z" opacity=".96"/>
            <path fill="#D3EBEF" d="M301.408 50.564l-.053 14.046c0 .692.37 1.33.97 1.674L410.06 128.14a.501.501 0 0 0 .757-.437l.053-14.046a1.94 1.94 0 0 0-.97-1.674L302.165 50.127a.501.501 0 0 0-.757.437z"/>
            <path fill="#ABDCED" d="M335.232 69.132l-33.163-19.325a.523.523 0 0 0-.778.459l-.064 14.525c0 .714.383 1.373 1.002 1.728l33.163 18.76-.16-16.147zM382.784 152.381a2.304 2.304 0 0 0-1.152-1.962l-52.395-30.032a.501.501 0 0 0-.757.437l-.139 21.415c0 .692.37 1.33.971 1.675l51.424 29.296a1.398 1.398 0 0 0 2.08-1.227l-.032-19.602zM411.467 194.518a2.25 2.25 0 0 0-1.142-1.952l-55.125-31.46a.501.501 0 0 0-.757.437v24.38c.002.69.372 1.328.97 1.674l54.187 31.098a1.387 1.387 0 0 0 2.08-1.215l-.213-22.962zM349.952 159.367a2.272 2.272 0 0 0-1.152-1.952l-20.085-11.411a.512.512 0 0 0-.758.437v24.38a1.91 1.91 0 0 0 .971 1.674l19.488 11.241c.928.533 1.75-.341 1.739-1.418l-.203-22.951z"/>
            <path fill="#D3EBEF" d="M301.579 71.585l.288 26.598a2.58 2.58 0 0 0 1.28 1.845l79.509 45.763a.501.501 0 0 0 .757-.438l-.245-26.587a1.93 1.93 0 0 0-.96-1.674l-79.872-45.944a.512.512 0 0 0-.757.437z"/>
            <path fill="#ABDCED" d="M347.51 97.116l-45.291-26.342a.523.523 0 0 0-.779.448l.256 27.163c0 .703.374 1.353.981 1.707l45.291 25.723-.459-28.699zM301.099 104.294l-.075 51.074c0 .689.37 1.325.97 1.663l22.475 13.129a.501.501 0 0 0 .758-.438l.074-51.073a1.92 1.92 0 0 0-.96-1.664l-22.474-13.128a.501.501 0 0 0-.768.437z"/>
            <path fill="#D3EBEF" d="M386.24 119.78v53.654a1.93 1.93 0 0 0 .96 1.674l23.648 13.576a.501.501 0 0 0 .757-.437l.054-53.654a1.93 1.93 0 0 0-.971-1.664l-23.648-13.587a.512.512 0 0 0-.8.437z"/>
            <path fill="#ABDCED" d="M411.573 177.358l.128-42.85a1.93 1.93 0 0 0-.97-1.686l-23.808-13.683a.512.512 0 0 0-.768.448l.053 42.969 25.365 14.802z"/>
            <path fill="#D3EBEF" d="M414.933 115.716V220.23c0 .686.366 1.32.96 1.664l26.016 14.93a.501.501 0 0 0 .758-.437V131.873a1.91 1.91 0 0 0-.96-1.664l-26.016-14.93a.501.501 0 0 0-.758.437z"/>
            <path fill="#ABDCED" d="M442.667 193.782v-62.005c0-.692-.37-1.33-.971-1.674l-26.176-15.06a.501.501 0 0 0-.757.438l.085 62.101 27.819 16.2z"/>
            <path fill="#89C1CE" d="M404.448 117.294a3.7 3.7 0 0 0-1.664-2.9l-15.008-8.533c-.917-.533-1.675-.106-1.685.96a3.68 3.68 0 0 0 1.664 2.89l15.008 8.532c.917.534 1.674.107 1.685-.949z"/>
            <path fill="#ABDCED" d="M380.63 101.756a2.26 2.26 0 0 0-1.014-1.77l-40.032-22.984c-.565-.33-1.067-.074-1.067.576a2.229 2.229 0 0 0 1.003 1.76l40.043 22.993c.597.32 1.056.118 1.066-.575zM380.555 105.83a2.25 2.25 0 0 0-1.014-1.76L339.51 81.12c-.565-.331-1.066-.076-1.066.575a2.229 2.229 0 0 0 1.002 1.76l40.043 22.993c.597.267 1.056.032 1.067-.618zM377.088 122.36a2.218 2.218 0 0 0-1.013-1.76l-22.304-12.798c-.566-.32-1.067-.063-1.067.587a2.229 2.229 0 0 0 1.003 1.76l22.314 12.798c.598.32 1.056.064 1.067-.587zM377.056 126.402a2.282 2.282 0 0 0-1.013-1.77l-22.315-12.798c-.555-.33-1.013-.064-1.067.576a2.26 2.26 0 0 0 1.014 1.77l22.304 12.798c.608.32 1.066.064 1.077-.576zM441.045 207.732a2.26 2.26 0 0 0-1.066-1.77l-22.304-12.798c-.566-.33-1.067-.064-1.067.576a2.282 2.282 0 0 0 1.067 1.77l22.314 12.798c.544.32 1.046.064 1.056-.576zM433.195 198.592a2.24 2.24 0 0 0-1.014-1.76l-14.57-8.382c-.566-.32-1.067-.064-1.067.586a2.25 2.25 0 0 0 1.013 1.76l14.571 8.372c.608.33 1.067.075 1.067-.576zM441.003 211.763a2.229 2.229 0 0 0-1.003-1.76l-22.315-12.797c-.554-.33-1.013-.075-1.066.576a2.24 2.24 0 0 0 1.013 1.76l22.304 12.797c.597.33 1.067.075 1.067-.576z"/>
            <path fill="#89C1CE" d="M374.496 135.435a3.69 3.69 0 0 0-1.653-2.9l-15.008-8.533c-.928-.533-1.675-.106-1.686.95a3.669 3.669 0 0 0 1.654 2.9l15.018 8.532c.918.533 1.675.107 1.675-.949z"/>
            <path fill="#EDF8FF" d="M320 125.154a2.208 2.208 0 0 0-1.003-1.76l-11.658-6.686c-.555-.331-1.067-.075-1.067.576a2.218 2.218 0 0 0 1.013 1.76l11.648 6.686c.63.33 1.067.064 1.067-.576zM320 129.185a2.24 2.24 0 0 0-1.003-1.76l-11.658-6.686c-.566-.32-1.067-.064-1.067.586a2.24 2.24 0 0 0 1.003 1.76l11.658 6.687c.598.32 1.067.064 1.067-.587zM320 133.1a2.229 2.229 0 0 0-1.003-1.76l-11.658-6.687c-.555-.33-1.067-.064-1.067.576a2.26 2.26 0 0 0 1.013 1.77l11.648 6.687c.63.32 1.067.064 1.067-.587zM320 137.141a2.25 2.25 0 0 0-1.003-1.77l-11.658-6.676c-.566-.33-1.067-.075-1.067.576a2.229 2.229 0 0 0 1.003 1.76l11.658 6.686c.598.33 1.067.064 1.067-.576zM320 141.055a2.25 2.25 0 0 0-1.003-1.77l-11.658-6.687c-.555-.32-1.067-.064-1.067.587a2.25 2.25 0 0 0 1.013 1.76l11.648 6.686c.63.278 1.067.064 1.067-.576zM320 145.108a2.229 2.229 0 0 0-1.003-1.76l-11.658-6.687c-.566-.33-1.067-.063-1.067.576a2.25 2.25 0 0 0 1.003 1.77l11.658 6.656c.598.33 1.067.074 1.067-.555zM320 149a2.25 2.25 0 0 0-1.003-1.77l-11.658-6.676c-.555-.33-1.067-.074-1.067.576a2.218 2.218 0 0 0 1.013 1.76l11.648 6.687c.63.33 1.067.064 1.067-.576zM320 153.032a2.24 2.24 0 0 0-1.003-1.76l-11.658-6.687c-.566-.32-1.067-.064-1.067.587a2.24 2.24 0 0 0 1.003 1.76l11.658 6.708c.598.299 1.067 0 1.067-.608zM320 156.946a2.229 2.229 0 0 0-1.003-1.76L307.34 148.5c-.555-.33-1.067-.064-1.067.576a2.26 2.26 0 0 0 1.013 1.77l11.648 6.677c.63.384 1.067.075 1.067-.576zM320 160.988a2.25 2.25 0 0 0-1.003-1.77l-11.669-6.645c-.565-.33-1.067-.074-1.067.576a2.229 2.229 0 0 0 1.003 1.76l11.67 6.655c.597.33 1.066.064 1.066-.576zM435.499 141.418a2.229 2.229 0 0 0-1.014-1.77l-11.648-6.687c-.565-.32-1.066-.064-1.066.586a2.24 2.24 0 0 0 1.002 1.76l11.659 6.687c.608.32 1.067.064 1.067-.576zM435.467 145.45a2.24 2.24 0 0 0-1.014-1.76l-11.648-6.687c-.565-.33-1.066-.064-1.066.576a2.26 2.26 0 0 0 1.013 1.77l11.659 6.676c.586.33 1.045.075 1.056-.576zM435.499 149.374a2.229 2.229 0 0 0-1.014-1.77l-11.648-6.677c-.565-.33-1.066-.074-1.066.576.03.715.403 1.37 1.002 1.76l11.659 6.687c.608.32 1.067.053 1.067-.576zM435.467 153.395a2.25 2.25 0 0 0-1.014-1.76l-11.648-6.687c-.565-.32-1.066-.064-1.066.587a2.25 2.25 0 0 0 1.013 1.76l11.659 6.686c.586.32 1.045.064 1.056-.586zM435.499 157.309a2.208 2.208 0 0 0-1.014-1.76l-11.648-6.687c-.565-.33-1.066-.064-1.066.576a2.25 2.25 0 0 0 1.002 1.77l11.702 6.698c.565.31 1.024.053 1.024-.597zM435.467 161.35a2.26 2.26 0 0 0-1.014-1.77l-11.648-6.676c-.565-.33-1.066-.075-1.066.576a2.24 2.24 0 0 0 1.013 1.76l11.659 6.686c.586.331 1.045.064 1.056-.575zM435.499 165.265a2.229 2.229 0 0 0-1.014-1.77l-11.648-6.656c-.565-.32-1.066-.064-1.066.587a2.24 2.24 0 0 0 1.002 1.76l11.659 6.686c.608.288 1.067.032 1.067-.607zM435.467 169.296a2.24 2.24 0 0 0-1.014-1.76l-11.648-6.687c-.565-.33-1.066-.064-1.066.576a2.26 2.26 0 0 0 1.013 1.77l11.659 6.677c.586.33 1.045.074 1.056-.576zM435.499 173.21a2.229 2.229 0 0 0-1.014-1.77l-11.648-6.677c-.565-.33-1.066-.074-1.066.576.03.714.403 1.37 1.002 1.76l11.659 6.687c.608.33 1.067.117 1.067-.576zM435.467 177.241a2.25 2.25 0 0 0-1.014-1.76l-11.648-6.686c-.565-.32-1.066-.064-1.066.586a2.25 2.25 0 0 0 1.013 1.76l11.659 6.687c.586.341 1.045.064 1.056-.587zM347.19 167.899a2.25 2.25 0 0 0-1.003-1.77l-13.867-7.935c-.565-.32-1.067-.064-1.067.586a2.25 2.25 0 0 0 1.014 1.76l13.866 7.935c.598.33 1.056.096 1.056-.576zM344.064 171.685a2.858 2.858 0 0 0-1.28-2.23l-7.819-4.478c-.704-.416-1.29-.086-1.29.725.04.901.507 1.73 1.258 2.229l7.819 4.479c.715.427 1.301.085 1.312-.725zM391.776 196.854a2.25 2.25 0 0 0-1.067-1.76l-13.866-7.935c-.566-.33-1.067-.064-1.067.576a2.26 2.26 0 0 0 1.013 1.77l13.867 7.935c.65.32 1.11.064 1.12-.586zM388.64 200.64a2.837 2.837 0 0 0-1.27-2.219l-7.829-4.49c-.704-.405-1.28-.074-1.29.736a2.815 2.815 0 0 0 1.28 2.219l7.818 4.49c.704.405 1.28.074 1.291-.736zM365.504 160.039a3.7 3.7 0 0 0-1.664-2.901l-15.008-8.532c-.917-.533-1.675-.107-1.685.95a3.68 3.68 0 0 0 1.653 2.804l15.008 8.532c.928.576 1.685.15 1.696-.853z" opacity=".96"/>
            <path fill="#89C1CE" d="M407.563 180.942a3.669 3.669 0 0 0-1.654-2.89l-15.008-8.532c-.928-.533-1.674-.107-1.685.949a3.7 3.7 0 0 0 1.653 2.9l15.019 8.533c.917.533 1.675.106 1.675-.96zM438.4 226.406a3.69 3.69 0 0 0-1.653-2.9l-15.019-8.533c-.917-.533-1.675-.106-1.685.95a3.68 3.68 0 0 0 1.664 2.9l15.008 8.532c.885.533 1.685.107 1.685-.949z"/>
        </g>
        <path fill="#E9E9F2" fill-rule="nonzero" d="M22.112 298.937a2.432 2.432 0 0 1-2.219 0L.501 287.846a.747.747 0 0 1 0-1.408 2.262 2.262 0 0 1 1.12-.277c.37-.006.737.078 1.067.245L22.08 297.53c.28.122.473.388.501.693a.875.875 0 0 1-.469.714zM30.08 296.037a2.464 2.464 0 0 1-2.219 0l-17.066-9.79a.843.843 0 0 1-.502-.694.832.832 0 0 1 .47-.714 2.272 2.272 0 0 1 1.13-.278c.37-.004.736.08 1.067.246l17.067 9.79c.28.123.472.388.501.693a.822.822 0 0 1-.448.747zM36.267 294.97a2.486 2.486 0 0 1-2.23 0l-17.066-9.79a.843.843 0 0 1-.502-.704.821.821 0 0 1 .48-.704 2.24 2.24 0 0 1 1.067-.277c.37-.01.737.075 1.067.245l17.066 9.79c.281.123.473.389.502.694.016.3-.13.585-.384.746zM39.68 293.018a2.432 2.432 0 0 1-2.219 0l-17.066-9.78a.864.864 0 0 1-.502-.703.853.853 0 0 1 .48-.704c.34-.197.728-.297 1.12-.288.371-.002.737.086 1.067.256l17.067 9.78c.28.128.472.396.501.704a.853.853 0 0 1-.448.735zM43.125 290.95a2.464 2.464 0 0 1-2.218 0l-17.067-9.79a.747.747 0 0 1 0-1.409 2.262 2.262 0 0 1 1.12-.277c.37-.004.736.08 1.067.245l17.066 9.79a.747.747 0 0 1 0 1.408l.032.032zM46.933 288.55a2.432 2.432 0 0 1-2.218 0l-17.067-9.79a.875.875 0 0 1-.512-.694.864.864 0 0 1 .48-.714 2.272 2.272 0 0 1 1.13-.277c.372-.002.737.086 1.067.255l17.067 9.78a.747.747 0 0 1 0 1.408l.053.032zM50.57 286.502a2.486 2.486 0 0 1-2.229 0l-17.066-9.79a.843.843 0 0 1-.502-.693.832.832 0 0 1 .47-.715 2.507 2.507 0 0 1 2.229 0l17.067 9.79c.28.123.472.389.501.694a.832.832 0 0 1-.47.714zM9.493 284.316a2.571 2.571 0 0 1-2.346 0 .907.907 0 0 1-.534-.736.896.896 0 0 1 .512-.746c.362-.201.77-.304 1.184-.3.404-.007.803.084 1.163.268a.885.885 0 0 1 .523.735c0 .336-.196.64-.502.779zM51.979 283.015a2.432 2.432 0 0 1-2.219 0l-17.067-9.78a.843.843 0 0 1-.501-.704.81.81 0 0 1 .47-.704c.342-.199.734-.298 1.13-.288.37 0 .737.087 1.067.256l17.066 9.78a.843.843 0 0 1 .502.704.81.81 0 0 1-.448.736zM58.005 282.556a2.464 2.464 0 0 1-2.218 0l-17.067-9.79a.747.747 0 0 1 0-1.408 2.262 2.262 0 0 1 1.12-.277c.37-.012.738.072 1.067.245l17.066 9.79a.747.747 0 0 1 0 1.408l.032.032zM61.259 280.22a2.432 2.432 0 0 1-2.219 0l-17.067-9.779a.864.864 0 0 1-.501-.704.853.853 0 0 1 .48-.704 2.135 2.135 0 0 1 1.067-.288c.37-.003.737.085 1.066.256l17.067 9.78c.28.128.472.396.501.704a.854.854 0 0 1-.394.736zM67.008 278.94a2.432 2.432 0 0 1-2.219 0l-17.066-9.79a.821.821 0 0 1-.502-.693.843.843 0 0 1 .47-.714 2.272 2.272 0 0 1 1.13-.277c.371-.002.737.086 1.067.255l17.067 9.78a.843.843 0 0 1 .501.704.81.81 0 0 1-.448.736zM70.688 276.968c-.7.357-1.53.357-2.23 0l-17.066-9.79a.747.747 0 0 1 0-1.398 2.134 2.134 0 0 1 1.067-.288c.37-.002.737.086 1.066.256l17.067 9.78a.875.875 0 0 1 .512.704.853.853 0 0 1-.416.736zM74.059 274.899a2.486 2.486 0 0 1-2.23 0l-17.066-9.79a.843.843 0 0 1-.502-.694.832.832 0 0 1 .47-.714 2.507 2.507 0 0 1 2.229 0l17.067 9.79c.28.123.472.388.501.693a.832.832 0 0 1-.47.715zM77.717 272.691a2.432 2.432 0 0 1-2.218 0l-17.067-9.79a.747.747 0 0 1 0-1.397 2.135 2.135 0 0 1 1.067-.288c.37-.004.737.084 1.066.256l17.067 9.78c.28.128.472.396.501.703a.853.853 0 0 1-.416.736zM81.376 270.548a2.432 2.432 0 0 1-2.219 0l-17.066-9.78a.875.875 0 0 1-.512-.704.853.853 0 0 1 .48-.704 2.284 2.284 0 0 1 1.13-.288c.371-.001.737.087 1.067.256l17.067 9.79a.747.747 0 0 1 0 1.398l.053.032zM82.837 267.583a2.486 2.486 0 0 1-2.229 0l-17.067-9.79a.843.843 0 0 1-.501-.704.81.81 0 0 1 .47-.704 2.304 2.304 0 0 1 1.13-.278c.37-.009.737.075 1.067.246l17.066 9.79c.281.123.473.388.502.693a.832.832 0 0 1-.438.747zM86.4 265.183c-.7.357-1.53.357-2.23 0l-17.066-9.79a.843.843 0 0 1-.501-.693.832.832 0 0 1 .469-.715 2.464 2.464 0 0 1 2.23 0l17.066 9.78a.843.843 0 0 1 .501.704.81.81 0 0 1-.469.714zM93.717 260.747c-.7.357-1.529.357-2.229 0l-17.067-9.78a.843.843 0 0 1-.501-.704.832.832 0 0 1 .48-.704 2.24 2.24 0 0 1 1.067-.277c.37-.01.737.075 1.066.245l17.067 9.79a.864.864 0 0 1 .512.694.875.875 0 0 1-.395.736zM97.227 258.827a2.432 2.432 0 0 1-2.219 0l-17.067-9.79a.843.843 0 0 1-.501-.694.875.875 0 0 1 .48-.714 2.443 2.443 0 0 1 2.219 0l17.066 9.78c.281.128.472.396.502.703a.853.853 0 0 1-.48.715zM111.659 250.21a2.486 2.486 0 0 1-2.23 0l-17.066-9.79a.843.843 0 0 1-.502-.704.832.832 0 0 1 .48-.704 2.24 2.24 0 0 1 1.067-.278c.37-.009.737.075 1.067.246l17.066 9.79c.28.125.475.388.512.693a.864.864 0 0 1-.394.747zM115.296 247.938a2.486 2.486 0 0 1-2.23 0L96 238.148a.843.843 0 0 1-.501-.693.864.864 0 0 1 .501-.63 2.486 2.486 0 0 1 2.219 0l17.066 9.79a.875.875 0 0 1 .512.705.864.864 0 0 1-.501.618zM119.061 245.816a2.464 2.464 0 0 1-2.218 0l-17.067-9.79a.864.864 0 0 1-.501-.704.853.853 0 0 1 .48-.704 2.262 2.262 0 0 1 1.066-.277c.371-.013.739.072 1.067.245l17.067 9.79a.747.747 0 0 1 0 1.408l.106.032zM122.507 243.8a2.432 2.432 0 0 1-2.219 0l-17.067-9.79a.864.864 0 0 1-.512-.693.875.875 0 0 1 .48-.715 2.272 2.272 0 0 1 1.131-.277c.37-.001.737.086 1.067.256l17.066 9.78a.843.843 0 0 1 .502.703c-.001.31-.174.593-.448.736zM31.392 271.305a2.603 2.603 0 0 1-2.347 0 .8.8 0 0 1 0-1.493c.364-.196.771-.299 1.184-.299.404-.009.804.083 1.163.267.296.139.498.422.533.746a.917.917 0 0 1-.533.779zM87.733 261.621a2.432 2.432 0 0 1-2.218 0l-17.067-9.78a.875.875 0 0 1-.512-.703.853.853 0 0 1 .48-.704c.343-.2.734-.3 1.13-.288.372-.002.737.086 1.067.256l17.067 9.78a.843.843 0 0 1 .501.703c0 .31-.173.593-.448.736zM67.2 249.911a2.603 2.603 0 0 1-2.347 0 .917.917 0 0 1-.533-.746.928.928 0 0 1 .501-.747 2.539 2.539 0 0 1 1.195-.298c.404-.009.803.083 1.163.266a.907.907 0 0 1 .522.736.885.885 0 0 1-.501.79zM98.4 255.276c-.7.357-1.53.357-2.23 0l-17.066-9.78a.843.843 0 0 1-.501-.704.832.832 0 0 1 .48-.704 2.39 2.39 0 0 1 1.066-.288c.371-.002.737.086 1.067.256l17.067 9.79a.864.864 0 0 1 .512.694.875.875 0 0 1-.395.736zM77.867 243.555a2.603 2.603 0 0 1-2.347 0 .885.885 0 0 1-.533-.736.853.853 0 0 1 .501-.746c.36-.206.77-.31 1.184-.299a2.4 2.4 0 0 1 1.163.256c.298.136.501.42.533.746a.906.906 0 0 1-.501.779zM102.059 252.876a2.464 2.464 0 0 1-2.219 0l-17.067-9.79a.875.875 0 0 1-.512-.693.864.864 0 0 1 .48-.715 2.272 2.272 0 0 1 1.131-.277c.37-.005.736.08 1.067.245l17.066 9.79a.747.747 0 0 1 0 1.408l.054.032zM81.472 241.155a2.571 2.571 0 0 1-2.347 0 .79.79 0 0 1 0-1.482c.366-.2.778-.304 1.195-.299.404-.008.803.084 1.163.267.297.13.498.413.522.736a.853.853 0 0 1-.533.778zM105.728 250.86a2.432 2.432 0 0 1-2.219 0l-17.066-9.79a.843.843 0 0 1-.502-.693.875.875 0 0 1 .48-.715 2.443 2.443 0 0 1 2.219 0l17.067 9.78c.28.128.472.397.501.704a.853.853 0 0 1-.48.714zM85.141 239.15a2.603 2.603 0 0 1-2.346 0 .8.8 0 0 1 0-1.493 2.539 2.539 0 0 1 1.194-.298c.4-.01.797.082 1.152.266a.8.8 0 0 1 0 1.493v.032z" opacity=".33"/>
        <path fill="#EFF4AE" fill-rule="nonzero" d="M199.467 299.3a2.464 2.464 0 0 1-2.219 0l-26.859-15.23a.843.843 0 0 1-.501-.703.81.81 0 0 1 .47-.704 2.284 2.284 0 0 1 1.13-.288c.37-.001.737.086 1.067.256l26.805 15.261a.747.747 0 0 1 0 1.408h.107z" opacity=".71"/>
        <path fill="#706CD4" fill-rule="nonzero" d="M145.664 310.903a2.464 2.464 0 0 1-2.219 0l-25.92-14.781a.843.843 0 0 1-.501-.704.81.81 0 0 1 .47-.704 2.304 2.304 0 0 1 1.13-.277c.37-.01.737.075 1.067.245l25.92 14.782a.747.747 0 0 1 0 1.407l.053.032zM132.064 298.735c-.7.357-1.53.357-2.23 0l-8.373-4.81a.821.821 0 0 1-.501-.693.81.81 0 0 1 .47-.704 2.198 2.198 0 0 1 1.13-.288c.37-.001.737.086 1.067.256l8.373 4.799a.875.875 0 0 1 .512.704.853.853 0 0 1-.448.736zM128.779 313.346a2.486 2.486 0 0 1-2.23 0l-11.733-6.634a.747.747 0 0 1 0-1.408 2.486 2.486 0 0 1 2.219 0l11.733 6.634c.28.125.475.388.512.693a.864.864 0 0 1-.501.715z" opacity=".72"/>
        <path fill="#EFF4AE" fill-rule="nonzero" d="M145.75 327.082a2.464 2.464 0 0 1-2.22 0l-11.733-6.634a.747.747 0 0 1 0-1.407 2.24 2.24 0 0 1 1.067-.278c.37-.001.737.087 1.067.256l11.733 6.623a.747.747 0 0 1 0 1.408l.085.032zM101.739 301.998a2.486 2.486 0 0 1-2.23 0l-11.733-6.633a.747.747 0 0 1 0-1.408 2.486 2.486 0 0 1 2.219 0l11.733 6.633c.28.123.473.389.501.694a.832.832 0 0 1-.49.714z" opacity=".71"/>
        <path fill="#706CD4" fill-rule="nonzero" d="M115.541 309.954a2.464 2.464 0 0 1-2.218 0l-10.592-6.047a.821.821 0 0 1-.502-.693.81.81 0 0 1 .47-.704 2.198 2.198 0 0 1 1.13-.288c.371-.001.737.087 1.067.256l10.592 6.036a.747.747 0 0 1 0 1.408l.053.032z" opacity=".72"/>
        <path fill="#EFF4AE" fill-rule="nonzero" d="M166.4 318.294a2.464 2.464 0 0 1-2.219 0l-14.037-7.881a.843.843 0 0 1-.501-.693.832.832 0 0 1 .469-.715 2.272 2.272 0 0 1 1.13-.277c.372-.002.737.086 1.067.256l14.08 7.945c.281.123.473.388.502.693a.864.864 0 0 1-.491.672zM160.725 306.05a2.432 2.432 0 0 1-2.218 0l-18.464-10.43a.843.843 0 0 1-.502-.693.832.832 0 0 1 .47-.714 2.272 2.272 0 0 1 1.13-.277c.37-.005.736.079 1.067.245l18.464 10.44c.28.123.473.389.501.694a.874.874 0 0 1-.448.736zM113.237 304.558a2.432 2.432 0 0 1-2.218 0l-18.464-10.43a.843.843 0 0 1-.502-.704.81.81 0 0 1 .47-.704 2.304 2.304 0 0 1 1.13-.277c.37-.01.738.074 1.067.245l18.464 10.43c.28.128.472.397.501.704a.853.853 0 0 1-.448.736z" opacity=".71"/>
        <path fill="#D9D7F2" fill-rule="nonzero" d="M138.848 293.701c-.7.357-1.53.357-2.23 0l-18.453-10.43a.875.875 0 0 1-.512-.693.864.864 0 0 1 .48-.715 2.272 2.272 0 0 1 1.131-.277c.37-.005.736.08 1.067.245l18.453 10.44a.864.864 0 0 1 .512.694.874.874 0 0 1-.448.736zM210.752 309.197a2.432 2.432 0 0 1-2.219 0l-77.461-43.523a.843.843 0 0 1-.501-.704.821.821 0 0 1 .469-.704 2.304 2.304 0 0 1 1.13-.277c.371-.01.738.075 1.067.245l77.462 43.523c.28.128.472.397.501.704a.853.853 0 0 1-.448.736zM169.056 300.814a2.486 2.486 0 0 1-2.23 0l-40.351-22.822a.821.821 0 0 1-.502-.694.853.853 0 0 1 .48-.703 2.134 2.134 0 0 1 1.067-.288c.371-.003.737.085 1.067.256l40.352 22.876c.28.122.472.388.501.693a.832.832 0 0 1-.384.682zM219.296 280.551a2.432 2.432 0 0 1-2.219 0l-40.352-22.876a.843.843 0 0 1-.501-.693.832.832 0 0 1 .47-.715 2.464 2.464 0 0 1 2.229 0l40.352 22.876a.821.821 0 0 1 .501.694.875.875 0 0 1-.48.714zM118.475 331.188a2.486 2.486 0 0 1-2.23 0l-40.352-22.855a.843.843 0 0 1-.501-.693.875.875 0 0 1 .48-.715 2.443 2.443 0 0 1 2.219 0L118.4 329.78c.28.123.473.388.501.693a.832.832 0 0 1-.426.715zM110.624 336.232a2.432 2.432 0 0 1-2.219 0l-40.352-22.844a.843.843 0 0 1-.501-.704.81.81 0 0 1 .47-.704 2.4 2.4 0 0 1 1.13-.287c.37-.002.737.086 1.067.255l40.352 22.877c.28.128.472.396.501.703a.853.853 0 0 1-.448.704zM144.672 318.443a2.464 2.464 0 0 1-2.219 0l-42.666-24.177a.821.821 0 0 1-.502-.693.843.843 0 0 1 .47-.715 2.272 2.272 0 0 1 1.13-.277c.371-.001.737.087 1.067.256l42.667 24.167a.747.747 0 0 1 0 1.407l.053.032zM148.619 316.513a2.432 2.432 0 0 1-2.219 0l-42.667-24.166a.843.843 0 0 1-.501-.694.832.832 0 0 1 .47-.714 2.507 2.507 0 0 1 2.229 0l42.666 24.177a.821.821 0 0 1 .502.693.853.853 0 0 1-.48.704z" opacity=".72"/>
        <path fill="#E34EE6" fill-rule="nonzero" d="M144 267.412a2.464 2.464 0 0 1-2.219 0l-3.114-1.792a.843.843 0 0 1-.502-.693.864.864 0 0 1 .48-.714 2.486 2.486 0 0 1 2.219 0l3.125 1.791a.747.747 0 0 1 0 1.408H144zM206.048 302.755a2.432 2.432 0 0 1-2.219 0l-3.125-1.78a.747.747 0 0 1 0-1.408c.34-.198.727-.297 1.12-.288.371-.003.737.085 1.067.256l3.125 1.78a.843.843 0 0 1 .501.705.832.832 0 0 1-.469.735zM193.067 351.174a2.432 2.432 0 0 1-2.219 0l-2.517-1.44a.875.875 0 0 1-.512-.704.853.853 0 0 1 .48-.704 2.272 2.272 0 0 1 1.13-.277c.37-.01.738.075 1.067.245l2.57 1.472c.282.128.473.396.502.704a.853.853 0 0 1-.501.704zM211.019 340.573a2.486 2.486 0 0 1-2.23 0l-2.517-1.365a.747.747 0 0 1 0-1.408 2.443 2.443 0 0 1 2.219 0l2.496 1.408c.28.125.475.388.512.693a.864.864 0 0 1-.48.672zM243.008 329.225a2.464 2.464 0 0 1-2.219 0l-2.517-1.44a.875.875 0 0 1-.512-.703.853.853 0 0 1 .48-.704c.343-.2.734-.299 1.13-.288.372-.001.737.086 1.067.256l2.518 1.44a.747.747 0 0 1 0 1.407l.053.032z" opacity=".68"/>
        <path fill="#EFF4AE" fill-rule="nonzero" d="M199.392 294.906c-.7.357-1.53.357-2.23 0l-23.007-13.096a.843.843 0 0 1-.502-.704.821.821 0 0 1 .47-.704 2.304 2.304 0 0 1 1.13-.277c.37-.01.738.075 1.067.245l23.008 13.096a.843.843 0 0 1 .501.704.811.811 0 0 1-.437.736z" opacity=".71"/>
        <path fill="#E34EE6" fill-rule="nonzero" d="M147.787 265.183c-.7.357-1.53.357-2.23 0l-3.125-1.791a.843.843 0 0 1-.501-.694.875.875 0 0 1 .48-.714 2.443 2.443 0 0 1 2.218 0l3.126 1.78a.843.843 0 0 1 .501.705.81.81 0 0 1-.47.714zM205.472 298.266a2.432 2.432 0 0 1-2.219 0l-3.125-1.718a.821.821 0 0 1-.501-.693.853.853 0 0 1 .48-.704c.34-.197.727-.297 1.12-.288.37-.002.737.086 1.066.256l3.126 1.781a.843.843 0 0 1 .501.704.832.832 0 0 1-.448.662z" opacity=".68"/>
        <path fill="#EFF4AE" fill-rule="nonzero" d="M204.693 293.605a2.464 2.464 0 0 1-2.218 0l-24.811-14.12a.843.843 0 0 1-.501-.704.81.81 0 0 1 .469-.704 2.198 2.198 0 0 1 1.13-.288c.372-.001.737.086 1.067.256l24.811 14.11a.747.747 0 0 1 0 1.407l.053.043z" opacity=".71"/>
        <path fill="#E34EE6" fill-rule="nonzero" d="M151.296 262.869a2.486 2.486 0 0 1-2.23 0l-3.125-1.792a.864.864 0 0 1-.501-.704.853.853 0 0 1 .48-.703 2.262 2.262 0 0 1 1.067-.278c.37-.012.738.072 1.066.246l3.126 1.791c.28.123.472.388.501.693.016.3-.13.586-.384.747zM210.923 297.306c-.7.357-1.53.357-2.23 0l-3.125-1.781a.864.864 0 0 1-.501-.704.853.853 0 0 1 .48-.704c.34-.197.727-.297 1.12-.288.37-.004.737.084 1.066.256l3.126 1.78a.843.843 0 0 1 .501.705.81.81 0 0 1-.437.736z" opacity=".68"/>
        <path fill="#EFF4AE" fill-rule="nonzero" d="M206.592 290.555a2.432 2.432 0 0 1-2.219 0l-22.816-12.969a.747.747 0 0 1 0-1.407 2.262 2.262 0 0 1 1.12-.278c.371-.002.737.086 1.067.256l22.816 12.958c.28.128.472.397.501.704a.853.853 0 0 1-.469.736z" opacity=".71"/>
        <path fill="#E34EE6" fill-rule="nonzero" d="M155.19 260.96c-.7.357-1.53.357-2.23 0l-3.115-1.738a.843.843 0 0 1-.501-.704.81.81 0 0 1 .47-.704 2.283 2.283 0 0 1 1.13-.288c.37-.001.737.086 1.067.256l3.125 1.792c.278.126.468.39.501.693a.853.853 0 0 1-.448.693zM163.2 254.956a2.432 2.432 0 0 1-2.219 0l-2.048-1.141a.843.843 0 0 1-.501-.694.875.875 0 0 1 .48-.714 2.443 2.443 0 0 1 2.219 0l2.069 1.066c.28.128.472.397.501.704 0 .336-.195.64-.501.779zM132.48 273.011a2.432 2.432 0 0 1-2.219 0l-2.058-1.066a.843.843 0 0 1-.502-.704.81.81 0 0 1 .47-.704 2.283 2.283 0 0 1 1.13-.288c.371-.001.737.086 1.067.256l2.059 1.13a.821.821 0 0 1 .501.694.853.853 0 0 1-.448.682zM123.477 278.077a2.432 2.432 0 0 1-2.218 0l-2.059-1.12a.875.875 0 0 1-.512-.704.853.853 0 0 1 .48-.704 2.283 2.283 0 0 1 1.13-.288c.372 0 .737.087 1.067.256l2.059 1.13a.821.821 0 0 1 .501.694.874.874 0 0 1-.448.736zM120.384 280.082a2.464 2.464 0 0 1-2.219 0l-2.069-1.13a.747.747 0 0 1 0-1.408 2.262 2.262 0 0 1 1.12-.278c.37-.012.738.073 1.067.246l2.069 1.13a.747.747 0 0 1 0 1.408l.032.032zM114.987 283.367a2.432 2.432 0 0 1-2.219 0l-2.059-1.13a.864.864 0 0 1-.512-.694.853.853 0 0 1 .48-.704c.343-.199.735-.299 1.131-.288.37-.001.737.087 1.067.256l2.058 1.12a.843.843 0 0 1 .502.704c-.001.31-.174.593-.448.736zM69.408 310.263c-.7.357-1.53.357-2.23 0l-2.058-1.13a.843.843 0 0 1-.501-.693.832.832 0 0 1 .469-.715 2.464 2.464 0 0 1 2.23 0l2.015 1.13a.843.843 0 0 1 .502.705.81.81 0 0 1-.427.703z" opacity=".68"/>
        <path fill="#D9D7F2" fill-rule="nonzero" d="M157.728 369.997a2.432 2.432 0 0 1-2.219 0l-1.162-.608a.843.843 0 0 1-.502-.704.821.821 0 0 1 .47-.704 2.272 2.272 0 0 1 1.13-.277c.37-.01.738.075 1.067.245l1.163.619a.747.747 0 0 1 0 1.397l.053.032zM164.267 354.192a2.464 2.464 0 0 1-2.219 0l-1.163-.619a.821.821 0 0 1-.501-.693.843.843 0 0 1 .47-.714 2.464 2.464 0 0 1 2.229 0l1.162.607a.747.747 0 0 1 0 1.408l.022.01z" opacity=".72"/>
        <path fill="#E34EE6" fill-rule="nonzero" d="M64.17 313.378c-.7.357-1.528.357-2.229 0l-2.058-1.13a.821.821 0 0 1-.502-.694.81.81 0 0 1 .48-.704c.34-.197.728-.297 1.12-.288.371-.001.737.086 1.067.256l2.059 1.066a.843.843 0 0 1 .501.704.81.81 0 0 1-.437.79zM72.832 308.184c-.7.357-1.53.357-2.23 0l-2.058-1.13a.747.747 0 0 1 0-1.408 2.262 2.262 0 0 1 1.12-.278c.37-.001.737.087 1.067.256l2.058 1.067a.875.875 0 0 1 .512.704.853.853 0 0 1-.469.789zM81.344 302.947c-.7.357-1.53.357-2.23 0l-2.058-1.066a.821.821 0 0 1-.501-.693.853.853 0 0 1 .48-.715 2.24 2.24 0 0 1 1.066-.277c.371-.002.737.086 1.067.256l2.059 1.066a.843.843 0 0 1 .501.704.81.81 0 0 1-.384.725z" opacity=".68"/>
        <path fill="#60D5F0" fill-rule="nonzero" d="M116.533 294.256a2.486 2.486 0 0 1-2.229 0l-3.53-1.973a.747.747 0 0 1 0-1.408 2.24 2.24 0 0 1 1.066-.277c.37-.01.737.074 1.067.245l3.53 1.962c.281.123.473.388.502.693.015.308-.14.6-.406.758zM120.213 292.016a2.464 2.464 0 0 1-2.218 0l-3.531-1.962a.843.843 0 0 1-.501-.694.832.832 0 0 1 .469-.714 2.272 2.272 0 0 1 1.13-.277c.372-.002.737.086 1.067.256l3.531 1.951a.747.747 0 0 1 0 1.408l.053.032z"/>
        <path fill="#E34EE6" fill-rule="nonzero" d="M170.101 255.756a2.432 2.432 0 0 1-2.218 0l-2.059-1.13a.821.821 0 0 1-.501-.694.843.843 0 0 1 .469-.715 2.272 2.272 0 0 1 1.13-.277c.372-.001.737.086 1.067.256l2.059 1.12a.843.843 0 0 1 .501.704c0 .31-.173.593-.448.736zM175.552 255.457a2.464 2.464 0 0 1-2.219 0l-2.069-1.13a.747.747 0 0 1 0-1.408 2.486 2.486 0 0 1 2.219 0l2.069 1.13a.747.747 0 0 1 0 1.408zM212.725 293.978a2.486 2.486 0 0 1-2.229 0l-3.115-1.78a.875.875 0 0 1-.512-.705.853.853 0 0 1 .48-.704 2.4 2.4 0 0 1 1.131-.287c.37-.002.737.086 1.067.255l3.114 1.792a.864.864 0 0 1 .512.693.874.874 0 0 1-.448.736zM159.915 259.979a2.432 2.432 0 0 1-2.219 0l-8.63-4.917a.747.747 0 0 1 0-1.407 2.272 2.272 0 0 1 1.131-.278c.37-.01.738.075 1.067.246l8.63 4.916a.747.747 0 0 1 0 1.408l.02.032zM138.667 272.489a2.486 2.486 0 0 1-2.23 0l-8.629-4.917a.864.864 0 0 1-.501-.704.853.853 0 0 1 .48-.704 2.39 2.39 0 0 1 1.066-.288c.371-.002.737.086 1.067.256l8.63 4.917c.28.125.474.388.511.693a.864.864 0 0 1-.394.747zM63.605 316.812c-.7.357-1.529.357-2.229 0l-8.63-4.917a.747.747 0 0 1 0-1.408 2.486 2.486 0 0 1 2.22 0l8.629 4.917a.875.875 0 0 1 .512.704.853.853 0 0 1-.502.704z" opacity=".68"/>
        <path fill="#706CD4" fill-rule="nonzero" d="M168.128 372.109a2.432 2.432 0 0 1-2.219 0l-8.629-4.917a.843.843 0 0 1-.501-.704.81.81 0 0 1 .469-.704 2.304 2.304 0 0 1 1.13-.277c.371-.01.738.075 1.067.245l8.63 4.917a.843.843 0 0 1 .501.704.81.81 0 0 1-.448.736z" opacity=".72"/>
        <path fill="#D9D7F2" fill-rule="nonzero" d="M171.477 370.072a2.432 2.432 0 0 1-2.218 0l-8.63-4.917a.843.843 0 0 1-.501-.704.821.821 0 0 1 .47-.703 2.304 2.304 0 0 1 1.13-.278c.37-.01.737.075 1.067.246l8.629 4.916a.843.843 0 0 1 .501.704c0 .31-.173.593-.448.736zM182.4 368.43a2.486 2.486 0 0 1-2.23 0l-12.298-7.029a.843.843 0 0 1-.501-.704.81.81 0 0 1 .469-.704 2.4 2.4 0 0 1 1.13-.287c.372-.002.737.086 1.067.255l12.363 7.06c.28.123.473.389.501.694a.832.832 0 0 1-.501.714zM181.333 371.746a2.464 2.464 0 0 1-2.218 0l-14.56-8.35a.843.843 0 0 1-.502-.704.832.832 0 0 1 .48-.704c.343-.191.728-.29 1.12-.288.371-.002.737.086 1.067.256l14.56 8.35c.28.123.473.389.501.694a.822.822 0 0 1-.448.746zM207.456 355.6a2.464 2.464 0 0 1-2.219 0l-8.629-4.917a.875.875 0 0 1-.512-.704.853.853 0 0 1 .48-.704c.343-.199.734-.299 1.13-.288.372-.001.737.087 1.067.256l8.63 4.917a.747.747 0 0 1 0 1.408l.053.032zM215.307 352.304a2.486 2.486 0 0 1-2.23 0l-9.248-5.386a.864.864 0 0 1-.512-.693.875.875 0 0 1 .48-.714 2.272 2.272 0 0 1 1.131-.278c.37-.001.737.087 1.067.256l9.248 5.333c.28.122.472.388.501.693a.832.832 0 0 1-.437.79zM208 352.176a2.464 2.464 0 0 1-2.219 0l-5.333-3.263a.821.821 0 0 1-.501-.693.843.843 0 0 1 .469-.715 2.464 2.464 0 0 1 2.23 0l5.333 3.2a.747.747 0 0 1 0 1.407l.021.064zM223.083 343.58c-.7.357-1.53.357-2.23 0l-6.282-3.594a.864.864 0 0 1-.502-.704.853.853 0 0 1 .48-.703c.34-.198.728-.297 1.12-.288.372-.004.738.084 1.067.256l6.283 3.594a.843.843 0 0 1 .501.703.81.81 0 0 1-.437.736zM235.605 342.908a2.486 2.486 0 0 1-2.229 0l-11.584-6.686a.843.843 0 0 1-.501-.694.875.875 0 0 1 .48-.714 2.443 2.443 0 0 1 2.218 0l11.584 6.676c.28.125.475.388.512.693a.864.864 0 0 1-.48.725zM226.005 341.48a2.486 2.486 0 0 1-2.229 0l-5.333-3.264a.843.843 0 0 1-.502-.693.832.832 0 0 1 .47-.715 2.272 2.272 0 0 1 1.13-.277c.371-.001.737.086 1.067.256l5.333 3.253c.28.125.475.388.512.693a.864.864 0 0 1-.448.746zM257.333 333.449c-.7.357-1.529.357-2.229 0l-8.363-4.82a.843.843 0 0 1-.501-.705.832.832 0 0 1 .48-.704 2.24 2.24 0 0 1 1.067-.277c.37-.01.737.075 1.066.246l8.363 4.82a.843.843 0 0 1 .501.704.81.81 0 0 1-.384.736zM265.44 330.153a2.432 2.432 0 0 1-2.219 0l-9.258-5.332a.843.843 0 0 1-.502-.704.832.832 0 0 1 .48-.704 2.24 2.24 0 0 1 1.12-.288c.371-.001.737.087 1.067.256l9.259 5.28c.28.127.472.396.501.703a.853.853 0 0 1-.448.79zM258.133 330.121a2.432 2.432 0 0 1-2.218 0l-5.334-3.252a.864.864 0 0 1-.501-.704.853.853 0 0 1 .48-.704 2.134 2.134 0 0 1 1.067-.288c.37-.004.737.084 1.066.256l5.334 3.253a.843.843 0 0 1 .501.703.81.81 0 0 1-.395.736z" opacity=".72"/>
        <path fill="#706CD4" fill-rule="nonzero" d="M191.883 358.746a2.486 2.486 0 0 1-2.23 0l-8.629-4.917a.864.864 0 0 1-.501-.704.853.853 0 0 1 .48-.704 2.4 2.4 0 0 1 2.218 0l8.63 4.917c.28.125.475.388.512.693a.864.864 0 0 1-.48.715z" opacity=".72"/>
        <path fill="#D9D7F2" fill-rule="nonzero" d="M195.381 356.815c-.7.357-1.529.357-2.229 0l-8.619-4.884a.747.747 0 0 1 0-1.408 2.24 2.24 0 0 1 1.12-.277c.372-.006.739.082 1.067.256l8.63 4.906a.843.843 0 0 1 .5.703.81.81 0 0 1-.469.704zM180.939 356.677a2.464 2.464 0 0 1-2.219 0l-1.163-.619a.843.843 0 0 1-.501-.693.832.832 0 0 1 .47-.715 2.272 2.272 0 0 1 1.13-.277c.37-.005.736.08 1.067.245l1.162.619c.281.123.473.388.502.693a.864.864 0 0 1-.448.747zM237.493 330.548a2.432 2.432 0 0 1-2.218 0l-1.163-.608a.843.843 0 0 1-.501-.704.821.821 0 0 1 .469-.704 2.272 2.272 0 0 1 1.13-.277c.371-.01.738.075 1.067.245l1.163.619c.28.123.473.388.501.693a.874.874 0 0 1-.448.736zM226.133 332.436c-.7.357-1.529.357-2.229 0l-1.163-.608a.747.747 0 0 1 0-1.408 2.262 2.262 0 0 1 1.12-.277c.37-.01.738.075 1.067.245l1.163.619a.821.821 0 0 1 .501.693.843.843 0 0 1-.459.736zM247.168 331.742a2.432 2.432 0 0 1-2.219 0l-1.162-.608a.843.843 0 0 1-.502-.703.81.81 0 0 1 .47-.704 2.304 2.304 0 0 1 1.13-.278c.37-.01.738.075 1.067.246l1.163.608a.843.843 0 0 1 .501.704c0 .309-.173.593-.448.735zM258.133 318.593c-.7.357-1.529.357-2.229 0l-1.163-.608a.843.843 0 0 1-.501-.704.864.864 0 0 1 .48-.704 2.262 2.262 0 0 1 1.12-.277c.37-.013.738.072 1.067.245l1.162.619a.821.821 0 0 1 .502.693.81.81 0 0 1-.438.736zM257.195 321.547a2.432 2.432 0 0 1-2.219 0l-1.11-.576a.843.843 0 0 1-.5-.704.81.81 0 0 1 .469-.704 2.304 2.304 0 0 1 1.13-.277c.37-.01.738.075 1.067.245l1.163.608a.843.843 0 0 1 .501.704.81.81 0 0 1-.501.704zM215.19 343.1a2.486 2.486 0 0 1-2.23 0l-1.163-.618a.747.747 0 0 1 0-1.397c.34-.197.728-.297 1.12-.288.371-.002.737.086 1.067.256l1.163.608a.843.843 0 0 1 .501.704.821.821 0 0 1-.459.735zM207.936 343.154a2.432 2.432 0 0 1-2.219 0l-1.162-.608a.843.843 0 0 1-.502-.693.832.832 0 0 1 .47-.715 2.272 2.272 0 0 1 1.13-.277c.37-.005.736.08 1.067.245l1.163.619a.821.821 0 0 1 .501.693.864.864 0 0 1-.448.736zM197.056 353.968a2.486 2.486 0 0 1-2.23 0l-1.162-.619a.821.821 0 0 1-.501-.693.81.81 0 0 1 .48-.704c.34-.197.727-.297 1.12-.288.37-.001.736.087 1.066.256l1.163.608c.28.123.473.388.501.693a.832.832 0 0 1-.437.747z" opacity=".72"/>
        <path fill="#76F4F4" fill-rule="nonzero" d="M169.707 282.119a2.486 2.486 0 0 1-2.23 0l-22.464-12.798a.747.747 0 0 1 0-1.408c.34-.197.728-.296 1.12-.288.371 0 .737.088 1.067.256l22.464 12.798c.28.123.473.388.501.693a.832.832 0 0 1-.458.747zM130.848 318.87a2.432 2.432 0 0 1-2.219 0l-11.733-6.623a.843.843 0 0 1-.501-.704.81.81 0 0 1 .469-.704 2.4 2.4 0 0 1 1.13-.288c.372-.001.737.087 1.067.256l11.734 6.623c.28.128.472.397.501.704a.853.853 0 0 1-.448.736zM157.867 330.047a2.432 2.432 0 0 1-2.219 0l-25.92-14.782a.821.821 0 0 1-.501-.693.81.81 0 0 1 .48-.704 2.134 2.134 0 0 1 1.066-.288c.371-.001.737.087 1.067.256l26.027 14.803c.28.123.472.388.501.693a.875.875 0 0 1-.501.715zM149.579 308.749a2.486 2.486 0 0 1-2.23 0l-14.293-8.095a.843.843 0 0 1-.501-.703.81.81 0 0 1 .469-.704 2.422 2.422 0 0 1 2.23 0l14.293 8.094c.28.125.475.389.512.693a.864.864 0 0 1-.48.715zM162.667 320.384c-.7.357-1.53.357-2.23 0l-14.08-7.945a.843.843 0 0 1-.501-.704.81.81 0 0 1 .48-.704c.34-.197.727-.297 1.12-.288.37-.001.737.087 1.067.256l14.08 7.946a.843.843 0 0 1 .501.703.811.811 0 0 1-.437.736zM175.67 300.612a2.432 2.432 0 0 1-2.22 0l-43.263-24.53a.875.875 0 0 1-.512-.703.864.864 0 0 1 .48-.704 2.272 2.272 0 0 1 1.13-.277c.37-.01.738.075 1.067.245l43.264 24.529a.747.747 0 0 1 0 1.408l.053.032zM125.088 330.953a2.432 2.432 0 0 1-2.219 0l-43.264-24.529a.843.843 0 0 1-.501-.704.81.81 0 0 1 .47-.704 2.272 2.272 0 0 1 1.13-.277c.37-.01.737.075 1.067.245l43.264 24.53a.843.843 0 0 1 .501.703.81.81 0 0 1-.448.736zM173.472 279.89c-.7.357-1.53.357-2.23 0l-22.463-12.798a.843.843 0 0 1-.502-.704.81.81 0 0 1 .47-.704 2.272 2.272 0 0 1 1.13-.277c.37-.01.738.075 1.067.245l22.464 12.798a.875.875 0 0 1 .512.704.853.853 0 0 1-.448.736zM176.981 277.576a2.486 2.486 0 0 1-2.229 0l-22.464-12.798a.821.821 0 0 1-.501-.693.843.843 0 0 1 .469-.715 2.272 2.272 0 0 1 1.13-.277c.372-.001.737.086 1.067.256l22.464 12.798c.28.125.475.388.512.693a.864.864 0 0 1-.448.736zM180.875 275.667a2.432 2.432 0 0 1-2.219 0l-22.475-12.798a.747.747 0 0 1 0-1.408 2.315 2.315 0 0 1 2.133-.032l22.475 12.798a.843.843 0 0 1 .502.704.832.832 0 0 1-.416.736zM169.408 324.277a2.432 2.432 0 0 1-2.219 0l-3.53-1.952a.843.843 0 0 1-.502-.704.81.81 0 0 1 .47-.703 2.4 2.4 0 0 1 1.13-.288c.371-.002.737.086 1.067.256l3.53 1.962a.747.747 0 0 1 0 1.397l.054.032zM172.8 321.984a2.432 2.432 0 0 1-2.219 0l-3.584-1.973a.864.864 0 0 1-.501-.704.853.853 0 0 1 .48-.704 2.262 2.262 0 0 1 1.12-.277c.37-.012.738.072 1.067.245l3.541 1.963c.28.122.473.388.501.693a.874.874 0 0 1-.405.757zM153.76 367.779a2.432 2.432 0 0 1-2.219 0l-8.608-4.885a.843.843 0 0 1-.501-.693.832.832 0 0 1 .47-.714 2.272 2.272 0 0 1 1.13-.278c.37-.004.736.08 1.067.246l8.629 4.916a.843.843 0 0 1 .501.704.832.832 0 0 1-.469.704zM197.483 377.025c-.7.357-1.53.357-2.23 0l-12.298-7.028a.747.747 0 0 1 0-1.397c.34-.197.727-.297 1.12-.288.37-.001.736.086 1.066.256l12.299 7.028a.864.864 0 0 1 .512.693.875.875 0 0 1-.47.736zM200.8 382.774a2.432 2.432 0 0 1-2.219 0l-16.544-9.439a.843.843 0 0 1-.501-.704.821.821 0 0 1 .47-.704 2.272 2.272 0 0 1 1.13-.277c.37-.01.737.075 1.067.245l16.544 9.503c.28.128.472.396.501.704a.853.853 0 0 1-.448.672zM177.75 373.666a2.432 2.432 0 0 1-2.22 0l-3.2-1.845a.747.747 0 0 1 0-1.397 2.134 2.134 0 0 1 1.067-.288c.371-.002.737.085 1.067.256l3.2 1.834c.28.128.472.397.501.704a.853.853 0 0 1-.416.736zM230.656 360.932c-.7.357-1.53.357-2.23 0l-12.543-7.07a.747.747 0 0 1 0-1.398 2.134 2.134 0 0 1 1.066-.288c.371-.001.737.087 1.067.256l12.544 7.06a.843.843 0 0 1 .501.704.81.81 0 0 1-.405.736zM228.267 363.417a2.432 2.432 0 0 1-2.219 0l-16.459-9.513a.853.853 0 0 1-.501-.704.81.81 0 0 1 .47-.704 2.198 2.198 0 0 1 1.13-.288c.37-.001.737.087 1.067.256l16.512 9.545c.28.128.472.397.501.704a.853.853 0 0 1-.501.704zM213.728 359.194a2.486 2.486 0 0 1-2.23 0l-3.146-1.856a.747.747 0 0 1 0-1.408 2.24 2.24 0 0 1 1.12-.277c.37-.005.736.08 1.067.245l3.2 1.845c.28.125.475.388.512.693a.864.864 0 0 1-.523.758zM248.619 350.235a2.432 2.432 0 0 1-2.219 0l-10.219-5.695a.747.747 0 0 1 0-1.408 2.262 2.262 0 0 1 1.067-.277c.372-.009.74.08 1.067.256l10.218 5.76a.843.843 0 0 1 .502.703.832.832 0 0 1-.416.661zM246.23 352.72c-.7.357-1.53.357-2.23 0l-16.448-9.524a.864.864 0 0 1-.512-.693.853.853 0 0 1 .48-.704c.343-.199.734-.299 1.13-.288.372-.001.737.087 1.067.256l16.448 9.513a.875.875 0 0 1 .512.704.853.853 0 0 1-.448.736zM231.701 348.497a2.486 2.486 0 0 1-2.229 0l-5.493-3.2a.875.875 0 0 1-.512-.704.853.853 0 0 1 .48-.703c.342-.2.734-.3 1.13-.288.371-.002.737.086 1.067.256l5.493 3.2c.281.122.473.387.502.692a.832.832 0 0 1-.438.747zM278.464 337.49c-.7.358-1.53.358-2.23 0l-10.207-5.748a.843.843 0 0 1-.502-.703.821.821 0 0 1 .47-.704 2.272 2.272 0 0 1 1.13-.278c.37-.01.738.075 1.067.246l10.208 5.77a.875.875 0 0 1 .512.703.853.853 0 0 1-.448.715zM275.648 339.762a2.464 2.464 0 0 1-2.219 0l-13.717-7.913a.864.864 0 0 1-.501-.704.853.853 0 0 1 .48-.704 2.39 2.39 0 0 1 1.066-.288c.371-.002.737.086 1.067.256l13.717 7.914a.747.747 0 0 1 0 1.407l.107.032zM263.861 337.139a2.432 2.432 0 0 1-2.218 0l-3.424-1.93a.864.864 0 0 1-.502-.704.853.853 0 0 1 .48-.704c.34-.198.728-.297 1.12-.288.371 0 .737.087 1.067.256l3.413 1.93a.747.747 0 0 1 0 1.408l.064.032zM214.261 371.522a2.432 2.432 0 0 1-2.218 0l-19.2-10.91a.843.843 0 0 1-.502-.693.821.821 0 0 1 .48-.715 2.315 2.315 0 0 1 2.133-.032l19.2 10.921c.281.123.473.388.502.693a.864.864 0 0 1-.395.736zM215.467 368.195a2.464 2.464 0 0 1-2.219 0l-16.821-9.513a.843.843 0 0 1-.502-.704.81.81 0 0 1 .47-.704 2.284 2.284 0 0 1 1.13-.288c.371-.001.737.086 1.067.256l16.821 9.513c.281.123.473.388.502.693a.864.864 0 0 1-.448.747zM176.97 354.448a2.432 2.432 0 0 1-2.218 0l-8.63-4.917a.843.843 0 0 1-.5-.693.832.832 0 0 1 .469-.714 2.272 2.272 0 0 1 1.13-.278c.371-.001.737.087 1.067.256l8.63 4.917a.747.747 0 0 1 0 1.397l.053.032zM233.525 328.319a2.432 2.432 0 0 1-2.218 0l-8.63-4.917a.843.843 0 0 1-.501-.693.832.832 0 0 1 .47-.714 2.272 2.272 0 0 1 1.13-.278c.37-.004.736.08 1.067.246l8.629 4.916a.843.843 0 0 1 .501.704c0 .31-.173.593-.448.736z" opacity=".54"/>
        <path fill="#E34EE6" fill-rule="nonzero" d="M87.69 302.5c-.7.357-1.528.357-2.229 0l-8.661-4.885a.843.843 0 0 1-.501-.693.875.875 0 0 1 .48-.715 2.443 2.443 0 0 1 2.218 0l8.63 4.917a.864.864 0 0 1 .512.693.875.875 0 0 1-.448.682zM90.997 300.601a2.486 2.486 0 0 1-2.229 0l-8.63-4.916a.853.853 0 0 1-.5-.704.832.832 0 0 1 .48-.704 2.134 2.134 0 0 1 1.066-.288c.371-.002.737.086 1.067.256l8.629 4.916c.28.123.473.389.501.694.017.3-.13.585-.384.746zM162.645 258.016a2.464 2.464 0 0 1-2.218 0l-8.64-4.916a.864.864 0 0 1-.502-.704.853.853 0 0 1 .48-.704c.34-.197.728-.297 1.12-.288.372-.003.738.085 1.067.256l8.64 4.917a.747.747 0 0 1 0 1.407l.053.032z" opacity=".68"/>
        <g opacity=".56">
            <path fill="#F7FBFC" fill-rule="nonzero" d="M227.2 17.557c-2.827-1.579-6.699.437-8.363 1.536-.47.308-.751.834-.746 1.397l1.365 133.62c0 3.902 2.827 9.757 6.283 11.677L412.405 271.22c.9.5 2 .48 2.88-.054 3.2-1.94 4.544-3.007 4.544-6.399l-1.386-132.19a13.416 13.416 0 0 0-6.262-10.58L227.2 17.557z" opacity=".96"/>
            <path fill="#C0E7F6" fill-rule="nonzero" d="M222.464 16.96a3.563 3.563 0 0 1 2.325-.374l.406.086h.181l.405.138h.118c.298.107 186.229 105.017 186.229 105.017h.053a13.47 13.47 0 0 1 6.251 10.345l1.355 133.31a5.513 5.513 0 0 1-1.376 3.818 3.392 3.392 0 0 1-.395.288l-3.104 1.792c.587-.352.47-2.997.47-3.2l-1.334-133.14c0-.415-.053-.831-.117-1.3-.1-.589-.239-1.17-.416-1.739 0-.107-.075-.224-.118-.341l-.149-.427c-.053-.15-.181-.437-.277-.65v-.096a8.872 8.872 0 0 0-.352-.715 14.44 14.44 0 0 0-.843-1.408v-.064l-.416-.597c-.17-.224-.341-.437-.523-.65-.181-.214-.426-.491-.661-.736l-.341-.331a7.125 7.125 0 0 0-.736-.65 7.797 7.797 0 0 0-1.312-.875L222.667 20.03c-1.579-.725-3.2-1.066-4.15-.47l3.947-2.601z"/>
            <path fill="#2C92C9" fill-opacity=".2" fill-rule="nonzero" d="M218.667 28.179l195.541 110.114-.01-1.365L218.56 26.803z"/>
            <path fill="#2C92C9" fill-rule="nonzero" d="M408.235 126.978c-.875-.49-1.568-.085-1.558.917a3.445 3.445 0 0 0 1.59 2.677c.864.49 1.557.085 1.546-.917a3.455 3.455 0 0 0-1.578-2.677zM403.563 123.97c-.875-.5-1.568-.085-1.558.918a3.285 3.285 0 0 0 1.558 2.612c.864.502 1.568.086 1.546-.917a3.274 3.274 0 0 0-1.546-2.613zM398.784 120.867c-.875-.49-1.568-.085-1.557.917a3.445 3.445 0 0 0 1.589 2.677c.864.49 1.557.085 1.547-.917a3.466 3.466 0 0 0-1.579-2.677z" opacity=".2"/>
            <path fill="#ABDCED" fill-rule="nonzero" d="M254.304 181.987l-28.95-16.275c-2.517-1.45-6.133-4.393-5.855-14.226L218.24 26.505l35.712 20.593.352 134.889z"/>
            <path fill="#EDF8FF" fill-rule="nonzero" d="M245.333 68.513a2.304 2.304 0 0 0-1.066-1.845l-15.936-9.385a.8.8 0 0 0-.822-.074.821.821 0 0 0-.341.735c.007.377.114.745.31 1.067.177.32.435.587.746.778l15.936 9.396a.81.81 0 0 0 .81.075.79.79 0 0 0 .363-.747zM245.333 74.379a2.368 2.368 0 0 0-1.066-1.792l-16-9.438a.8.8 0 0 0-.822-.075.79.79 0 0 0-.352.736c.01.378.121.746.32 1.067.18.315.432.582.736.778l15.936 9.385a.8.8 0 0 0 .822.075.79.79 0 0 0 .426-.736zM245.333 80.373a2.368 2.368 0 0 0-1.066-1.845l-15.936-9.396a.832.832 0 0 0-.822-.075.81.81 0 0 0-.352.747c.01.377.121.745.32 1.066.176.32.43.592.736.79l15.936 9.384a.715.715 0 0 0 1.174-.66l.01-.011zM245.333 86.249a2.357 2.357 0 0 0-1.066-1.856l-15.936-9.385a.8.8 0 0 0-.822-.074.832.832 0 0 0-.352.735c.01.378.121.746.32 1.067.174.322.432.591.747.778l15.925 9.396a.832.832 0 0 0 .822.075.8.8 0 0 0 .362-.736zM245.333 92.264a2.336 2.336 0 0 0-1.066-1.845l-15.936-9.396a.715.715 0 0 0-1.174.672c.014.377.124.744.32 1.066.177.324.434.595.747.79l15.925 9.385a.8.8 0 0 0 .822.074.79.79 0 0 0 .362-.746zM245.333 98.183a2.304 2.304 0 0 0-1.066-1.845l-15.936-9.385a.79.79 0 0 0-.811-.075.79.79 0 0 0-.352.736c.007.377.114.745.31 1.066.182.316.438.583.746.779l15.936 9.385a.79.79 0 0 0 .81.075.768.768 0 0 0 .363-.736zM245.333 104.112a2.325 2.325 0 0 0-1.066-1.855l-15.904-9.407a.715.715 0 0 0-1.163.662c.007.376.114.744.31 1.066.179.321.436.592.746.79l15.936 9.384a.81.81 0 0 0 .81.075.778.778 0 0 0 .331-.715zM245.333 110a2.368 2.368 0 0 0-1.066-1.846L228.33 98.77a.779.779 0 0 0-.822-.074.79.79 0 0 0-.352.736 2.41 2.41 0 0 0 1.067 1.845l15.936 9.385a.8.8 0 0 0 .821.074.79.79 0 0 0 .352-.736zM245.333 115.812a2.336 2.336 0 0 0-1.066-1.845l-15.894-9.385a.715.715 0 0 0-1.173.672c.01.377.12.745.32 1.066.177.323.434.595.747.79l15.925 9.384a.715.715 0 0 0 1.173-.66l-.032-.022zM245.387 121.784a2.336 2.336 0 0 0-1.067-1.845l-15.936-9.385a.715.715 0 0 0-1.173.661c.043.75.438 1.434 1.066 1.845l15.99 9.396a.832.832 0 0 0 .821.075.81.81 0 0 0 .299-.747zM245.397 127.66a2.336 2.336 0 0 0-1.066-1.845l-15.936-9.385a.8.8 0 0 0-.822-.074.81.81 0 0 0-.352.736c.01.377.121.745.32 1.066.18.315.432.582.736.779l15.936 9.385a.8.8 0 0 0 .822.074.79.79 0 0 0 .362-.736zM250.347 58.83a2.368 2.368 0 0 0-1.067-1.845L224.267 42.31a.832.832 0 0 0-.822-.075.8.8 0 0 0-.352.736c.01.376.117.743.31 1.067.18.32.436.592.746.789l25.024 14.664a.8.8 0 0 0 .822.075.79.79 0 0 0 .352-.736z" opacity=".96"/>
            <path fill="#97CEDD" fill-rule="nonzero" d="M299.808 86.452a3.455 3.455 0 0 0-1.557-2.73l-17.067-9.812a1.195 1.195 0 0 0-1.205-.107 1.173 1.173 0 0 0-.523 1.067 3.498 3.498 0 0 0 1.568 2.73l17.067 9.811a1.067 1.067 0 0 0 1.728-.98l-.011.02z"/>
            <path fill="#ABDCED" fill-rule="nonzero" d="M323.957 100.316a3.498 3.498 0 0 0-1.568-2.73l-17.066-9.801a1.216 1.216 0 0 0-1.216-.118 1.184 1.184 0 0 0-.512 1.067c.014.553.172 1.093.458 1.568.257.465.623.86 1.067 1.151l17.067 9.812a1.067 1.067 0 0 0 1.738-.981l.032.032zM348.096 114.041a3.466 3.466 0 0 0-1.568-2.73l-17.067-9.811a1.184 1.184 0 0 0-1.216-.107c-.35.237-.546.645-.512 1.066.015.554.173 1.094.459 1.568.256.468.622.867 1.067 1.163l17.066 9.8c.354.26.82.305 1.216.118.362-.231.573-.638.555-1.067zM371.733 127.66a3.498 3.498 0 0 0-1.568-2.73L353.1 115.12a1.216 1.216 0 0 0-1.216-.107 1.184 1.184 0 0 0-.512 1.066c.012.557.17 1.102.458 1.579.257.465.623.86 1.067 1.152l17.067 9.811c.357.251.82.292 1.216.107.363-.23.575-.637.554-1.067z"/>
            <path fill="#ABDCED" fill-rule="nonzero" d="M320.533 149c-1.397-.8-2.549-.138-2.549 1.472v22.482a4.64 4.64 0 0 0 2.133 3.626l31.04 17.874a1.643 1.643 0 0 0 2.475-1.429V170.16a4.031 4.031 0 0 0-1.824-3.2L320.533 149z" opacity=".52"/>
            <path fill="#EDF8FF" fill-rule="nonzero" d="M337.13 179.993a1.909 1.909 0 0 0-.863-1.504L323.2 170.81a.704.704 0 0 0-.672-.064.661.661 0 0 0-.288.608c.009.305.097.603.256.864.142.264.352.484.608.64l13.024 7.679a.704.704 0 0 0 .672.064.661.661 0 0 0 .33-.608zM339.712 185.496a1.93 1.93 0 0 0-.864-1.515l-16-9.406a.65.65 0 0 0-.672-.064.661.661 0 0 0-.288.608c.01.305.098.602.256.864.148.259.357.479.608.64l16 9.417a.672.672 0 0 0 .672.053.661.661 0 0 0 .288-.597zM339.307 164.24a2.847 2.847 0 0 0-1.27-2.218l-13.994-8.2a.864.864 0 0 0-1.408.788c.016.453.149.893.384 1.28.211.38.516.699.885.928l13.995 8.212a.95.95 0 0 0 .981.085.97.97 0 0 0 .427-.874z" opacity=".96"/>
            <path stroke="#3842F9" stroke-linecap="round" stroke-linejoin="round" stroke-width=".615" d="M322.027 165.382l1.813.213.875 1.323 1.194-1.099.886 1.75.704-.193.906.523 1.195-.981 1.024 1.215 1.739-.266.437 1.973 1.344-1.813.917 1.248 2.464-.31 1.76 1.419 4.971 1.28 2.528 1.663 3.093-.213"/>
            <path fill="#ABDCED" fill-rule="nonzero" d="M278.912 125.442c-1.397-.81-2.55-.139-2.55 1.472v22.47a4.628 4.628 0 0 0 2.134 3.637l31.05 17.875a1.654 1.654 0 0 0 2.475-1.43v-22.865a4.031 4.031 0 0 0-1.824-3.2l-31.285-17.959z" opacity=".52"/>
            <path fill="#EDF8FF" fill-rule="nonzero" d="M295.467 156.434a1.909 1.909 0 0 0-.864-1.504l-13.003-7.689a.704.704 0 0 0-.672-.064.693.693 0 0 0-.288.608c.042.607.36 1.161.864 1.504l13.024 7.678a.704.704 0 0 0 .672.064.661.661 0 0 0 .267-.597zM298.09 161.937a1.93 1.93 0 0 0-.863-1.514l-16-9.407a.576.576 0 0 0-.95.534c.027.614.35 1.178.864 1.514l16 9.406a.587.587 0 0 0 .96-.533h-.01zM297.685 140.671a2.815 2.815 0 0 0-1.269-2.207l-13.995-8.201a.95.95 0 0 0-.981-.086.938.938 0 0 0-.416.875c.008.452.137.894.373 1.28.215.377.519.695.886.927l14.005 8.212a.853.853 0 0 0 1.397-.8z" opacity=".96"/>
            <path stroke="#07E4F4" stroke-linecap="round" stroke-linejoin="round" stroke-width=".615" d="M280.245 142.74l1.547-.245 1.685-2.175 2.294 2.132 3.093 1.814 2.421-1.814.534 3.68 2.762-1.216.768 2.314 3.008-.469 2.112.779 3.019.448 2.261 1.845 2.251-.587"/>
            <path fill="#ABDCED" fill-rule="nonzero" d="M320.533 181.368c-1.397-.81-2.549-.149-2.549 1.462v22.48a4.671 4.671 0 0 0 2.133 3.638l31.04 17.874a1.654 1.654 0 0 0 2.475-1.43v-22.875a4.052 4.052 0 0 0-1.824-3.2l-31.275-17.949z" opacity=".52"/>
            <path fill="#EDF8FF" fill-rule="nonzero" d="M337.13 212.382a1.93 1.93 0 0 0-.863-1.515L323.2 203.2a.587.587 0 0 0-.96.534c.009.308.097.61.256.874.148.26.357.479.608.64l13.024 7.668a.65.65 0 0 0 .672.064.661.661 0 0 0 .33-.597zM339.712 217.874a1.909 1.909 0 0 0-.864-1.504l-16-9.417a.704.704 0 0 0-.672-.064.661.661 0 0 0-.288.608c.009.306.097.603.256.864.142.264.352.484.608.64l16 9.417c.196.14.453.165.672.064.2-.135.31-.368.288-.608zM339.307 196.62a2.815 2.815 0 0 0-1.27-2.209l-13.994-8.211a1.003 1.003 0 0 0-.982-.086.96.96 0 0 0-.426.885c.018.45.15.886.384 1.27.208.384.513.708.885.938l13.995 8.159c.286.206.66.242.981.096.274-.192.434-.508.427-.843z" opacity=".96"/>
            <path stroke="#F3A35A" stroke-linecap="round" stroke-linejoin="round" stroke-width=".615" d="M321.941 197.28l2.251.779 1.76 1.024 3.019-.256 1.376 1.695 1.984-.042 2.24 2.1 2.357.907 1.984-1.066 2.016 1.653 1.61-.181 1.42 1.397 1.397 1.514 1.706-.117 2.539.65"/>
            <path fill="#ABDCED" fill-rule="nonzero" d="M278.912 157.831c-1.397-.81-2.55-.15-2.55 1.461v22.482a4.66 4.66 0 0 0 2.134 3.636l31.05 17.875a1.654 1.654 0 0 0 2.475-1.43V178.98a4.052 4.052 0 0 0-1.824-3.2l-31.285-17.949z" opacity=".52"/>
            <path fill="#EDF8FF" fill-rule="nonzero" d="M295.467 188.834a1.93 1.93 0 0 0-.864-1.515l-13.003-7.678a.65.65 0 0 0-.672-.064.683.683 0 0 0-.288.597c.008.31.1.613.267.874.14.262.346.482.597.64l13.024 7.668a.587.587 0 0 0 .96-.533l-.021.01zM298.09 194.316a1.909 1.909 0 0 0-.863-1.504l-16-9.417a.683.683 0 0 0-.662-.064.64.64 0 0 0-.288.608c.004.306.093.605.256.863.136.269.347.491.608.64l16 9.417a.683.683 0 0 0 .672.064.661.661 0 0 0 .278-.607zM297.685 173.06a2.783 2.783 0 0 0-1.269-2.207l-13.995-8.212a.97.97 0 0 0-.981-.085.96.96 0 0 0-.416.885c.009.449.138.887.373 1.269.212.382.516.705.886.938l14.005 8.255a.853.853 0 0 0 1.397-.79v-.052z" opacity=".96"/>
            <path stroke="#02CBFF" stroke-linecap="round" stroke-linejoin="round" stroke-width=".615" d="M280.096 173.999l1.376-1.194 1.568 1.407 2.432-1.215.832 2.751 2.73.384 1.729-.587 1.568 2.123 1.077 1.194 1.12-.576 1.675 2.496 2.304-1.067 1.642 2.016 1.483.917h3.04l1.515.853 1.685-1.173"/>
            <path fill="#07E4F4" fill-rule="nonzero" d="M386.89 230.363c-2.773 1.578-6.346 1.258-10.069-.907a28.794 28.794 0 0 1-12.949-22.63c0-4.267 1.568-7.466 4.267-9.044 2.698-1.579 6.346-1.248 10.069.917l-.597 15.794 9.28 15.87z"/>
            <path fill="#3842F9" fill-rule="nonzero" d="M370.272 181.016a1.856 1.856 0 0 0-.843-1.46.619.619 0 0 0-.65-.065.619.619 0 0 0-.278.587c0 .298.085.59.246.842.14.256.342.472.586.63a.65.65 0 0 0 .662.053.64.64 0 0 0 .277-.587z"/>
            <path fill="#ABDCED" fill-rule="nonzero" d="M386.507 190.55a1.93 1.93 0 0 0-.864-1.514l-13.024-7.668a.65.65 0 0 0-.672-.064.693.693 0 0 0-.288.608c.014.306.106.603.266.864.142.264.352.485.608.64l13.014 7.679c.208.12.464.12.672 0a.661.661 0 0 0 .288-.544z"/>
            <path fill="#07E4F4" fill-rule="nonzero" d="M370.272 177.668a1.898 1.898 0 0 0-.843-1.472.63.63 0 0 0-.65-.053.619.619 0 0 0-.278.586 1.6 1.6 0 0 0 .246.843c.137.254.34.467.586.618a.63.63 0 0 0 .662.064.65.65 0 0 0 .277-.586z"/>
            <path fill="#ABDCED" fill-rule="nonzero" d="M386.507 187.191a1.93 1.93 0 0 0-.864-1.503l-13.024-7.679a.672.672 0 0 0-.672 0 .683.683 0 0 0-.288.597c.012.31.104.61.266.875.142.264.352.485.608.64l13.014 7.668a.65.65 0 0 0 .672.064.661.661 0 0 0 .288-.662z"/>
            <path fill="#F3A35A" fill-rule="nonzero" d="M370.187 183.896a1.877 1.877 0 0 0-.843-1.472.683.683 0 0 0-.661-.064.672.672 0 0 0-.278.587c.01.302.097.596.256.853.138.254.34.468.587.619a.576.576 0 0 0 .939-.523z"/>
            <path fill="#ABDCED" fill-rule="nonzero" d="M386.421 193.42a1.93 1.93 0 0 0-.864-1.504l-13.024-7.679a.672.672 0 0 0-.672-.053.63.63 0 0 0-.288.597c.01.309.099.61.256.875.148.259.357.479.608.64l13.024 7.668a.65.65 0 0 0 .672.064c.2-.135.31-.368.288-.608z"/>
            <path fill="#02CBFF" fill-rule="nonzero" d="M370.133 186.935a1.877 1.877 0 0 0-.842-1.471.63.63 0 0 0-.651-.054.619.619 0 0 0-.277.587 1.6 1.6 0 0 0 .245.842c.138.255.34.468.587.619a.63.63 0 0 0 .661.064.65.65 0 0 0 .277-.587z"/>
            <path fill="#ABDCED" fill-rule="nonzero" d="M386.347 196.46a1.93 1.93 0 0 0-.864-1.505l-13.024-7.678a.672.672 0 0 0-.672 0 .683.683 0 0 0-.288.597c.012.31.104.61.266.874.142.264.352.485.608.64l13.014 7.668a.65.65 0 0 0 .672.064.661.661 0 0 0 .288-.66z"/>
            <path fill="#F3A35A" fill-rule="nonzero" d="M386.89 230.363l-9.237-15.87 13.526 7.594c-.192 3.882-1.707 6.804-4.267 8.276"/>
            <path fill="#3842F9" fill-rule="nonzero" d="M377.653 214.493l13.526 7.594v-.757a25.592 25.592 0 0 0-2.848-11.167 27.549 27.549 0 0 0-10.08-11.443l-.598 15.773z"/>
            <path fill="#02CBFF" fill-rule="nonzero" d="M377.653 214.493l9.238 15.87c-2.774 1.578-6.347 1.258-10.07-.907l.832-14.963z"/>
            <path stroke="#ABDCED" stroke-linecap="round" stroke-linejoin="round" stroke-width=".875" d="M277.312 88.254v30.587L388.16 180.91"/>
            <path stroke="#07E4F4" stroke-linecap="round" stroke-linejoin="round" stroke-width=".615" d="M277.6 114.084l6.24-.981 6.784-8.767 9.248 8.575 12.47 7.327 9.78-7.327 2.145 14.835 11.125-4.885 3.104 9.321 12.139-1.887 8.512 3.156 12.17 1.803 9.088 7.444 9.067-2.4"/>
            <path stroke="#02CBFF" stroke-linecap="round" stroke-linejoin="round" stroke-width=".615" d="M277.6 114.084l5.472-4.767 6.219 5.63 9.685-4.83 3.317 10.931 10.859 1.515 6.901-2.325 6.262 8.478 4.277 4.735 4.437-2.282 6.678 9.908 9.162-4.213 6.528 8.02 5.931 3.626h12.117l5.995 3.424 6.72-4.693"/>
            <path stroke="#F3A35A" stroke-linecap="round" stroke-linejoin="round" stroke-width=".615" d="M277.6 114.084l8.96 3.072 7.019 4.095 11.978-1.013 5.462 6.708 7.904-.15 8.906 8.351 9.344 3.605 7.894-4.245 8 6.57 6.389-.725 5.643 5.556 5.557 6.026 6.795-.46 10.112 2.592" opacity=".52"/>
            <path stroke="#3842F9" stroke-linecap="round" stroke-linejoin="round" stroke-width=".615" d="M277.6 114.084l7.253.864 3.478 5.29 4.8-4.384 3.53 7.007 2.795-.778 3.627 2.09 4.789-3.935 4.107 4.852 6.933-1.066 1.739 7.881 5.397-7.23 3.648 4.99 9.867-1.269 7.018 5.685 19.883 5.108 10.112 6.666 12.352-.822"/>
        </g>
        <g fill-rule="nonzero" opacity=".81">
            <path fill="#F7FBFC" d="M175.232 49.978c-2.827-1.579-6.699.437-8.363 1.536a1.643 1.643 0 0 0-.746 1.397l1.344 133.62c0 3.892 2.826 9.747 6.282 11.677L360.416 303.63a2.838 2.838 0 0 0 2.88 0c3.2-1.952 4.544-3.008 4.544-6.399l-1.387-132.19a13.448 13.448 0 0 0-6.261-10.59L175.232 49.977z" opacity=".96"/>
            <path fill="#C0E7F6" d="M170.55 49.38a3.5 3.5 0 0 1 2.325-.373h.053c.137.019.273.047.405.086h.182l.405.128h.117c.299.117 186.23 105.027 186.23 105.027h.053a13.47 13.47 0 0 1 6.25 10.345l1.355 133.31a5.566 5.566 0 0 1-1.376 3.818 2.41 2.41 0 0 1-.394.277l-3.104 1.792c.586-.341.469-2.986.469-3.2l-1.259-133.086c0-.416-.064-.832-.117-1.301-.1-.588-.238-1.169-.416-1.738 0-.118-.075-.224-.117-.342-.043-.117-.096-.288-.15-.426a16.58 16.58 0 0 0-.277-.65v-.097a8.872 8.872 0 0 0-.352-.714c-.256-.487-.538-.96-.843-1.419v-.064l-.416-.586c-.17-.224-.341-.448-.522-.65-.182-.203-.438-.502-.662-.737-.224-.234-.224-.224-.341-.33a6.986 6.986 0 0 0-.736-.65 7.84 7.84 0 0 0-1.312-.886L170.752 52.441c-1.579-.714-3.2-1.066-4.15-.469l3.947-2.591z"/>
            <path fill="#2C92C9" fill-opacity=".2" d="M166.741 60.6l195.552 110.104-.01-1.365L166.645 59.214z"/>
            <path fill="#2C92C9" d="M356.32 159.399c-.875-.501-1.568-.085-1.557.917a3.413 3.413 0 0 0 1.589 2.666c.864.502 1.557.086 1.547-.917a3.434 3.434 0 0 0-1.579-2.666zM351.648 156.38c-.875-.49-1.568-.074-1.557.918a3.306 3.306 0 0 0 1.557 2.623c.864.491 1.568.086 1.547-.917a3.306 3.306 0 0 0-1.547-2.623zM346.859 153.288c-.864-.49-1.558-.085-1.547.917a3.466 3.466 0 0 0 1.579 2.677c.874.49 1.568.075 1.557-.917a3.434 3.434 0 0 0-1.59-2.677z" opacity=".2"/>
            <path fill="#ABDCED" d="M202.39 214.43l-28.95-16.307c-2.517-1.44-6.133-4.383-5.856-14.216l-1.259-124.992 35.712 20.604.352 134.91z"/>
            <path fill="#EDF8FF" d="M188.693 98.183a2.378 2.378 0 0 0-1.066-1.856l-15.894-9.374a.832.832 0 0 0-.821-.075.8.8 0 0 0-.352.736c.013.376.12.742.31 1.066.177.32.435.588.746.779l15.936 9.396a.715.715 0 0 0 1.173-.662l-.032-.01zM188.672 104.048a2.336 2.336 0 0 0-1.067-1.845l-15.872-9.353a.8.8 0 0 0-.821-.074.79.79 0 0 0-.352.736c.01.377.12.745.32 1.066.18.315.432.582.736.779l15.936 9.385c.237.18.556.208.821.074a.79.79 0 0 0 .299-.768zM188.683 110.042a2.336 2.336 0 0 0-1.067-1.845l-15.883-9.385a.779.779 0 0 0-.821-.075.81.81 0 0 0-.352.736c.01.378.12.746.32 1.067.177.323.434.595.747.789l15.925 9.385a.8.8 0 0 0 .821.075.79.79 0 0 0 .31-.747zM188.693 115.918a2.293 2.293 0 0 0-1.066-1.845l-15.894-9.395a.832.832 0 0 0-.821-.075.8.8 0 0 0-.341.736c.007.376.114.744.309 1.066.18.321.436.592.747.79l15.936 9.385a.81.81 0 0 0 .81.074.778.778 0 0 0 .32-.736zM188.715 121.933a2.346 2.346 0 0 0-1.067-1.845l-15.915-9.385a.8.8 0 0 0-.821-.074.79.79 0 0 0-.352.736c.007.376.114.744.31 1.066.179.32.436.592.746.79l15.936 9.384a.8.8 0 0 0 .821.075.81.81 0 0 0 .342-.747zM188.715 127.81a2.368 2.368 0 0 0-1.067-1.845l-15.915-9.385a.8.8 0 0 0-.821-.075.79.79 0 0 0-.352.736c.013.376.12.742.31 1.066.177.32.435.588.746.779l15.936 9.396a.715.715 0 0 0 1.173-.672h-.01zM188.736 133.782a2.368 2.368 0 0 0-1.067-1.845l-15.936-9.396a.832.832 0 0 0-.821-.074.8.8 0 0 0-.352.735c.01.377.117.744.31 1.067.179.32.436.592.746.79l15.936 9.384a.715.715 0 0 0 1.173-.661h.011zM188.715 139.669a2.336 2.336 0 0 0-1.067-1.845l-15.915-9.385a.8.8 0 0 0-.821-.075.79.79 0 0 0-.352.736c.01.378.12.746.32 1.067.18.315.432.582.736.778l15.936 9.385a.8.8 0 0 0 .821.075.79.79 0 0 0 .342-.736zM188.736 145.481a2.304 2.304 0 0 0-1.067-1.845l-15.936-9.395a.8.8 0 0 0-.821-.064.778.778 0 0 0-.341.735c.007.377.114.745.309 1.067.18.32.436.592.747.79l15.936 9.384a.79.79 0 0 0 .81.075.768.768 0 0 0 .363-.747zM188.8 151.507a2.325 2.325 0 0 0-1.067-1.856l-16-9.427a.715.715 0 0 0-1.173.66c.017.377.127.744.32 1.067.174.322.432.591.747.779l15.925 9.395a.832.832 0 0 0 .821.075.8.8 0 0 0 .427-.693zM188.8 157.33a2.304 2.304 0 0 0-1.067-1.845l-16-9.385a.8.8 0 0 0-.821-.075.79.79 0 0 0-.341.736c.007.377.114.745.309 1.067.178.319.435.587.747.778l15.936 9.396a.715.715 0 0 0 1.162-.672h.075zM198.4 91.25a2.368 2.368 0 0 0-1.067-1.844L172.352 74.72a.715.715 0 0 0-1.173.661c.013.376.119.743.309 1.067.178.32.435.587.747.778l25.024 14.675a.715.715 0 0 0 1.173-.661l-.032.01z" opacity=".96"/>
            <path fill="#ABDCED" d="M212.896 136.821a1.781 1.781 0 0 0-.79-1.386.63.63 0 0 0-.618-.053.608.608 0 0 0-.267.554c.008.283.09.558.235.8.136.237.326.438.555.587.178.137.42.157.618.053a.597.597 0 0 0 .267-.555zM226.283 144.575a1.824 1.824 0 0 0-.822-1.43l-11.221-6.569a.661.661 0 0 0-.64 0 .608.608 0 0 0-.267.565c.01.29.095.573.246.822.137.248.335.457.576.607l11.221 6.538c.19.127.432.147.64.053a.608.608 0 0 0 .267-.586zM224 149.833a1.845 1.845 0 0 0-.81-1.43l-12.31-7.252a.555.555 0 0 0-.907.512c.01.29.095.573.246.821.137.249.335.458.576.608l12.298 7.252c.19.128.432.148.64.054a.608.608 0 0 0 .267-.565zM224 152.573a1.824 1.824 0 0 0-.821-1.429l-12.299-7.241a.64.64 0 0 0-.64-.064.619.619 0 0 0-.267.576c.014.29.098.572.246.821.14.243.338.448.576.597l12.298 7.252a.555.555 0 0 0 .907-.512zM224 155.442a1.824 1.824 0 0 0-.821-1.429l-12.299-7.252a.661.661 0 0 0-.64-.053.608.608 0 0 0-.267.565c.005.291.09.575.246.821.13.25.325.46.565.608l12.31 7.252a.555.555 0 0 0 .906-.512zM224 158.204a1.824 1.824 0 0 0-.821-1.429l-12.299-7.241a.64.64 0 0 0-.64-.064.619.619 0 0 0-.267.576c.008.29.093.574.246.821.133.245.328.45.565.597l12.31 7.252a.63.63 0 0 0 .629.064.65.65 0 0 0 .277-.576zM224 161.105a1.824 1.824 0 0 0-.821-1.429l-12.31-7.252a.65.65 0 0 0-.629-.053.608.608 0 0 0-.267.565c.002.29.083.574.235.821.137.249.335.458.576.608l12.31 7.252c.192.12.436.12.629 0a.64.64 0 0 0 .277-.512zM224 163.857a1.824 1.824 0 0 0-.821-1.43l-12.299-7.251a.555.555 0 0 0-.907.512c.005.29.09.575.246.82.13.25.325.46.565.609l12.31 7.252a.65.65 0 0 0 .629.053.619.619 0 0 0 .277-.565zM224 166.694a1.813 1.813 0 0 0-.81-1.43l-12.31-7.252a.555.555 0 0 0-.907.512c.01.29.095.573.246.822.137.248.335.457.576.607l12.298 7.253a.64.64 0 0 0 .64.053.608.608 0 0 0 .267-.565zM224 169.466a1.792 1.792 0 0 0-.821-1.418l-12.299-7.252a.555.555 0 0 0-.907.512c.012.29.097.572.246.821.137.245.335.451.576.597l12.298 7.252a.555.555 0 0 0 .907-.512zM224 172.186a1.824 1.824 0 0 0-.821-1.43l-12.299-7.251a.661.661 0 0 0-.64-.053.619.619 0 0 0-.267.575c.008.291.093.574.246.822.133.244.328.45.565.597l12.31 7.252a.555.555 0 0 0 .906-.512zM224 175.034a1.813 1.813 0 0 0-.81-1.43l-12.31-7.252a.65.65 0 0 0-.63 0c-.192.12-.3.34-.277.566.01.29.095.572.246.82.137.25.335.458.576.609l12.298 7.252a.555.555 0 0 0 .907-.512v-.053zM224 177.796a1.802 1.802 0 0 0-.81-1.419l-12.31-7.252a.555.555 0 0 0-.907.512c.012.29.097.572.246.821.137.246.335.451.576.598l12.298 7.252a.555.555 0 0 0 .907-.512z"/>
            <path fill="#89C1CE" d="M211.05 104.582a1.76 1.76 0 0 0-.789-1.397.63.63 0 0 0-.618 0 .608.608 0 0 0-.267.554c.008.283.089.558.235.8.137.24.33.441.565.587.175.133.41.158.608.064a.608.608 0 0 0 .267-.608zM232.533 117.06a1.813 1.813 0 0 0-.81-1.419l-19.328-11.337a.65.65 0 0 0-.63 0 .619.619 0 0 0-.277.566c.01.29.095.572.245.82.137.25.336.459.576.609l19.318 11.326a.64.64 0 0 0 .64.064.619.619 0 0 0 .266-.63zM338.592 243.224a1.813 1.813 0 0 0-.81-1.429l-12.31-7.252a.555.555 0 0 0-.907.512c.01.29.095.573.246.821.137.249.335.458.576.608l12.298 7.252a.64.64 0 0 0 .64.054.608.608 0 0 0 .267-.566zM340.832 248.14a1.802 1.802 0 0 0-.81-1.418l-14.806-8.691a.597.597 0 0 0-.63 0 .619.619 0 0 0-.277.565c.01.29.095.573.246.821.137.248.335.458.576.608l14.794 8.681a.555.555 0 0 0 .907-.512v-.053zM338.816 270.302a1.824 1.824 0 0 0-.821-1.429l-12.31-7.252a.65.65 0 0 0-.629-.053.608.608 0 0 0-.267.565c.002.29.083.574.235.821.137.249.335.458.576.608l12.31 7.252c.192.12.436.12.629 0a.64.64 0 0 0 .277-.512zM255.67 168.763a2.634 2.634 0 0 0-1.195-2.133l-13.078-7.466a.907.907 0 0 0-.928-.085.885.885 0 0 0-.394.832c.022.864.469 1.662 1.194 2.133l13.078 7.465c.27.198.626.23.928.085a.885.885 0 0 0 .394-.831z"/>
            <path fill="#ABDCED" d="M226.56 140a2.613 2.613 0 0 0-1.195-2.133l-13.077-7.466a.907.907 0 0 0-.928-.085.917.917 0 0 0-.405.832 2.677 2.677 0 0 0 1.205 2.133l13.077 7.465a.81.81 0 0 0 1.323-.746z"/>
            <path fill="#89C1CE" d="M274.133 179.363a2.645 2.645 0 0 0-1.194-2.133l-13.078-7.465a.81.81 0 0 0-1.322.747c.005.426.127.842.352 1.205.2.362.49.667.842.885l13.078 7.465c.273.19.627.218.928.075a.885.885 0 0 0 .394-.779zM292.608 189.9a2.645 2.645 0 0 0-1.195-2.133l-13.077-7.465a.81.81 0 0 0-1.323.746c.006.427.128.843.352 1.206.2.362.49.667.843.885l13.077 7.465c.27.198.627.23.928.085a.885.885 0 0 0 .395-.789zM310.699 200.288a2.667 2.667 0 0 0-1.195-2.133l-13.088-7.466a.928.928 0 0 0-.928-.085.906.906 0 0 0-.395.832c.011.425.132.84.352 1.205.204.36.493.665.843.885l13.077 7.466a.95.95 0 0 0 .928.085.939.939 0 0 0 .406-.79z"/>
            <path fill="#ABDCED" d="M326.315 242.926c-.875-.512-1.59-.096-1.59.906v14.003c.05.92.538 1.76 1.312 2.261l19.328 11.134a1.067 1.067 0 0 0 1.547-.885v-14.248a2.506 2.506 0 0 0-1.13-1.963l-19.467-11.208z"/>
            <path fill="#D3EBEF" d="M326.4 215.826c-.864-.5-1.579-.096-1.579.918v13.992a2.9 2.9 0 0 0 1.312 2.271l19.328 11.124a1.067 1.067 0 0 0 1.547-.885v-14.248a2.538 2.538 0 0 0-1.13-1.963L326.4 215.826z"/>
            <path fill="#ABDCED" d="M296.768 198.645c-.875-.5-1.59-.085-1.59.918v22.993a2.89 2.89 0 0 0 1.302 2.26l19.339 11.135a1.067 1.067 0 0 0 1.536-.896v-23.228c-.04-.8-.46-1.534-1.131-1.973l-19.456-11.209z"/>
            <path fill="#89C1CE" d="M292.267 246.424v-47.416a6.025 6.025 0 0 0-2.72-4.703l-46.507-26.79c-2.133-1.205-3.787-.213-3.787 2.133v46.445"/>
            <path fill="#ABDCED" d="M317.355 261.227V241.23a2.527 2.527 0 0 0-1.142-1.984l-19.616-11.304c-.874-.502-1.6-.086-1.6.928v19.58"/>
            <path fill="#89C1CE" d="M225.376 129.164l-.192-12.723a1.386 1.386 0 0 0-.672-1.152l-10.837-6.292a1.355 1.355 0 0 0-2.027 1.184l.085 12.69c.009.237.075.468.192.673.119.203.288.372.491.49l10.933 6.325c.422.246.944.246 1.366 0 .423-.247.677-.706.661-1.195z"/>
            <path fill="#D3EBEF" d="M347.147 210.74l-.256-28.188a5.268 5.268 0 0 0-2.571-4.383l-99.339-58.795a3.542 3.542 0 0 0-3.573 0 3.498 3.498 0 0 0-1.803 3.082v29.008a5.194 5.194 0 0 0 2.635 4.554l100.437 57.345a2.987 2.987 0 0 0 4.47-2.634v.01z"/>
        </g>
        <path fill="#F7FBFC" fill-rule="nonzero" d="M100.725 49.125c-2.826-1.579-6.698.437-8.362 1.535a1.643 1.643 0 0 0-.747 1.397l1.365 133.577c0 3.904 2.827 9.759 6.283 11.678l186.667 105.422a2.838 2.838 0 0 0 2.88 0c3.2-1.94 4.544-3.007 4.544-6.399l-1.387-132.244a13.416 13.416 0 0 0-6.261-10.58L100.725 49.126z" opacity=".96"/>
        <path fill="#C0E7F6" fill-rule="nonzero" d="M96 48.474a3.563 3.563 0 0 1 2.368-.416l.405.085h.182l.405.128.117.054c.299.106 186.23 105.016 186.23 105.016h.053a13.47 13.47 0 0 1 6.25 10.345l1.355 133.31a5.513 5.513 0 0 1-1.376 3.818 3.392 3.392 0 0 1-.394.288l-2.976 1.845c.586-.34.469-2.986.469-3.2l-1.333-133.139c0-.416 0-.832-.118-1.3a11.73 11.73 0 0 0-.416-1.74c0-.106-.074-.223-.117-.34-.043-.118-.096-.278-.15-.427-.053-.15-.18-.437-.277-.65v-.097c-.106-.245-.224-.48-.341-.714a14.44 14.44 0 0 0-.843-1.408v-.064l-.416-.597c-.17-.224-.341-.437-.522-.65-.182-.214-.427-.491-.662-.737l-.33-.33a8.533 8.533 0 0 0-.747-.65 8.053 8.053 0 0 0-1.312-.886L96.245 51.546c-1.578-.726-3.2-1.067-4.149-.47L96 48.474z"/>
        <path fill="#2C92C9" fill-opacity=".2" fill-rule="nonzero" d="M92.245 59.693l195.542 110.115-.011-1.365L92.139 58.318z"/>
        <path fill="#2C92C9" fill-rule="nonzero" d="M281.813 158.492c-.874-.49-1.568-.085-1.557.918a3.445 3.445 0 0 0 1.59 2.676c.863.491 1.557.075 1.546-.917a3.423 3.423 0 0 0-1.579-2.677zM277.141 155.485c-.874-.501-1.568-.085-1.546.917a3.2 3.2 0 0 0 1.546 2.613c.875.501 1.568.085 1.547-.917a3.2 3.2 0 0 0-1.547-2.613zM272.363 152.381c-.875-.49-1.568-.085-1.558.918a3.445 3.445 0 0 0 1.59 2.676c.864.491 1.557.086 1.546-.917a3.434 3.434 0 0 0-1.578-2.677z" opacity=".2"/>
        <path fill="#ABDCED" fill-rule="nonzero" d="M127.883 213.502l-28.95-16.286c-2.517-1.44-6.133-4.383-5.856-14.216L91.82 58.02l35.712 20.593.352 134.889z"/>
        <path fill="#EDF8FF" fill-rule="nonzero" d="M114.187 97.287a2.368 2.368 0 0 0-1.067-1.845l-15.925-9.396a.832.832 0 0 0-.822-.074.81.81 0 0 0-.352.746 2.41 2.41 0 0 0 1.046 1.866l16 9.364a.715.715 0 0 0 1.173-.661h-.053zM114.133 103.153a2.357 2.357 0 0 0-1.066-1.856l-15.894-9.385a.8.8 0 0 0-.821-.075.832.832 0 0 0-.352.736c.017.377.127.743.32 1.067.174.322.432.59.747.778l15.925 9.396a.832.832 0 0 0 .821.075.8.8 0 0 0 .32-.736zM114.133 109.136a2.304 2.304 0 0 0-1.066-1.845L97.13 97.906a.8.8 0 0 0-.822-.075.81.81 0 0 0-.352.736c.038.75.435 1.437 1.067 1.845l15.925 9.385c.237.18.556.208.822.074a.79.79 0 0 0 .362-.735zM114.197 115.012a2.346 2.346 0 0 0-1.066-1.845l-15.926-9.396a.832.832 0 0 0-.821-.074.81.81 0 0 0-.352.746c.007.377.114.745.31 1.067.179.32.436.592.746.789l15.979 9.374a.8.8 0 0 0 .821.075.81.81 0 0 0 .31-.736zM114.208 121.027a2.368 2.368 0 0 0-1.067-1.845l-15.936-9.385a.8.8 0 0 0-.821-.075.79.79 0 0 0-.352.736c.013.376.12.742.31 1.067.177.319.435.587.746.778l15.979 9.396a.832.832 0 0 0 .821.074.842.842 0 0 0 .32-.746zM114.208 126.914a2.378 2.378 0 0 0-1.067-1.856l-15.936-9.385a.832.832 0 0 0-.821-.075.8.8 0 0 0-.384.715c.01.378.12.746.32 1.067.17.321.424.59.736.778l16.01 9.417a.832.832 0 0 0 .822.075.8.8 0 0 0 .32-.736zM114.23 132.875a2.368 2.368 0 0 0-1.067-1.845l-15.926-9.385a.8.8 0 0 0-.821-.074.79.79 0 0 0-.352.736 2.41 2.41 0 0 0 1.067 1.845l15.936 9.385a.8.8 0 0 0 .821.074.79.79 0 0 0 .341-.736zM114.208 138.762a2.336 2.336 0 0 0-1.067-1.845l-15.936-9.385a.8.8 0 0 0-.821-.074.81.81 0 0 0-.352.736c.01.377.12.745.32 1.066.178.32.435.587.747.779l15.968 9.395a.832.832 0 0 0 .821.075.81.81 0 0 0 .32-.747zM114.24 144.575a2.346 2.346 0 0 0-1.067-1.845l-15.925-9.353a.8.8 0 0 0-.821-.075.79.79 0 0 0-.352.736c.007.377.114.744.309 1.066.183.316.44.583.747.779l15.936 9.385a.8.8 0 0 0 .821.075.81.81 0 0 0 .352-.768zM114.25 150.558a2.304 2.304 0 0 0-1.066-1.845l-15.925-9.396a.832.832 0 0 0-.822-.075.81.81 0 0 0-.352.747c.007.376.114.744.31 1.066.18.321.436.592.746.79l15.936 9.385a.715.715 0 0 0 1.163-.662l.01-.01zM114.272 156.434a2.368 2.368 0 0 0-1.067-1.856l-15.925-9.385a.832.832 0 0 0-.821-.074.8.8 0 0 0-.352.736c.007.376.114.744.309 1.066.178.32.435.587.747.779l15.904 9.395a.715.715 0 0 0 1.173-.66h.032zM123.925 90.344a2.368 2.368 0 0 0-1.066-1.845L97.845 73.824a.832.832 0 0 0-.821-.074.8.8 0 0 0-.352.736 2.41 2.41 0 0 0 1.067 1.855l25.024 14.664a.8.8 0 0 0 .821.075.79.79 0 0 0 .341-.736z" opacity=".96"/>
        <path fill="#0A8EB3" fill-rule="nonzero" d="M205.045 149.46a5.332 5.332 0 0 0-2.389-4.17l-61.707-35.557a1.622 1.622 0 0 0-2.656 1.493 5.332 5.332 0 0 0 2.39 4.17l61.717 35.567a1.856 1.856 0 0 0 1.856.17c.548-.373.85-1.014.79-1.674z"/>
        <path fill="#D3EBEF" fill-rule="nonzero" d="M194.592 174.394a1.738 1.738 0 0 0-.79-1.376.608.608 0 0 0-.618-.064.619.619 0 0 0-.256.554c.007.28.088.552.235.79.13.24.32.443.554.586a.533.533 0 0 0 .875-.49zM256.395 209.737c-.031-.6-.343-1.15-.843-1.483l-59.232-33.85a.65.65 0 0 0-.661-.053.619.619 0 0 0-.278.587c.01.305.099.602.256.863.141.252.343.465.587.619l59.232 33.85a.683.683 0 0 0 .661.064.65.65 0 0 0 .278-.597zM258.656 214.29a1.856 1.856 0 0 0-.843-1.482L196.63 177.69a.65.65 0 0 0-.661-.053.619.619 0 0 0-.277.586c0 .302.084.598.245.853.145.256.35.472.597.63l61.184 35.119a.65.65 0 0 0 .662 0 .62.62 0 0 0 .277-.533zM232.704 202.495a1.866 1.866 0 0 0-.843-1.482l-35.296-20.135a.63.63 0 0 0-.661-.064.672.672 0 0 0-.288.597c.012.302.1.595.256.853.148.254.352.469.597.63l35.296 20.135a.683.683 0 0 0 .662.064.65.65 0 0 0 .277-.598zM194.592 215.805a1.77 1.77 0 0 0-.79-1.376.533.533 0 0 0-.874.49c.008.283.089.559.235.8.127.24.32.44.554.577.175.133.41.158.608.064a.63.63 0 0 0 .267-.555zM256.395 251.148a1.909 1.909 0 0 0-.843-1.482l-59.232-33.84a.63.63 0 0 0-.661-.064.65.65 0 0 0-.278.598 1.92 1.92 0 0 0 .843 1.482l59.232 33.84a.63.63 0 0 0 .661.064.64.64 0 0 0 .278-.598zM258.656 255.702a1.866 1.866 0 0 0-.843-1.482L196.63 219.1a.65.65 0 0 0-.661 0 .63.63 0 0 0-.277.587c0 .305.086.604.245.864.148.253.352.469.597.63l61.184 35.108a.683.683 0 0 0 .662.064.65.65 0 0 0 .277-.65zM232.704 243.907a1.888 1.888 0 0 0-.843-1.482l-35.296-20.136a.576.576 0 0 0-.949.534c.009.302.097.596.256.853.145.255.35.471.597.629l35.296 20.135a.63.63 0 0 0 .662.064.64.64 0 0 0 .277-.597zM194.56 188.407a1.77 1.77 0 0 0-.79-1.386.608.608 0 0 0-.607-.054.597.597 0 0 0-.267.555c.007.28.088.552.235.79.136.236.326.437.554.586.179.125.41.146.608.053a.587.587 0 0 0 .267-.544zM194.581 204.65a1.728 1.728 0 0 0-.778-1.376.63.63 0 0 0-.619 0 .587.587 0 0 0-.256.555c.002.28.083.553.235.789.129.238.316.44.544.586a.63.63 0 0 0 .618 0 .587.587 0 0 0 .256-.554zM256.373 223.75a1.909 1.909 0 0 0-.853-1.482l-59.253-33.85a.576.576 0 0 0-.939.533c.009.302.097.596.256.853.138.26.345.478.597.63l59.222 33.85a.587.587 0 0 0 .949-.534h.021zM256.661 229.947a1.92 1.92 0 0 0-.853-1.483l-59.232-33.84a.576.576 0 0 0-.939.534c.01.302.099.596.256.853.142.258.347.475.598.63l59.221 33.839a.63.63 0 0 0 .661.064.672.672 0 0 0 .288-.597zM258.635 228.294a1.93 1.93 0 0 0-.854-1.493l-61.184-35.109a.683.683 0 0 0-.661-.064.65.65 0 0 0-.277.597c.008.302.097.596.256.853.14.258.347.475.597.63l61.173 35.108a.63.63 0 0 0 .662.064.661.661 0 0 0 .288-.586zM258.528 241.571a1.877 1.877 0 0 0-.853-1.482l-61.184-35.12a.65.65 0 0 0-.662 0 .64.64 0 0 0-.277.587c.009.302.097.596.256.853.138.26.345.478.597.63l61.174 35.119a.65.65 0 0 0 .661.053.63.63 0 0 0 .288-.64zM232.63 219.442a1.909 1.909 0 0 0-.843-1.483l-35.307-20.135a.576.576 0 0 0-.939.533c.01.302.097.597.256.854.142.258.347.474.598.629l35.296 20.135a.63.63 0 0 0 .661.064.64.64 0 0 0 .277-.597zM209.984 216.914a1.888 1.888 0 0 0-.843-1.493l-12.8-7.54a.65.65 0 0 0-.661-.053.619.619 0 0 0-.277.586c0 .302.084.598.245.854.142.257.347.474.597.629l12.8 7.54a.576.576 0 0 0 .939-.523zM159.605 216.829a1.866 1.866 0 0 0-.842-1.482l-19.2-11.22a.576.576 0 0 0-.939.523c.012.303.096.6.245.864.15.25.355.465.598.629l19.2 11.22a.683.683 0 0 0 .661.063.65.65 0 0 0 .277-.597zM159.605 221.447a1.888 1.888 0 0 0-.842-1.483l-19.2-11.219a.683.683 0 0 0-.662-.064.65.65 0 0 0-.277.597c.01.3.095.594.245.853.148.254.352.47.598.63l19.2 11.22a.63.63 0 0 0 .661.063.64.64 0 0 0 .277-.597z"/>
        <path fill="#0A8EB3" fill-rule="nonzero" d="M153.941 206.665a3.2 3.2 0 0 0-1.461-2.549l-13.013-7.646a.992.992 0 0 0-1.622.906 3.2 3.2 0 0 0 1.462 2.55l13.013 7.646a.992.992 0 0 0 1.621-.907zM156.32 173.22a13.31 13.31 0 0 1-3.627-4.105 12.647 12.647 0 0 1-1.834-6.175 4.67 4.67 0 0 1 2.037-4.266 4.48 4.48 0 0 1 4.267.16l.618-11.913c-4.49-2.474-8.789-2.805-12.138-.896-3.35 1.91-5.334 5.983-5.334 11.305a33.291 33.291 0 0 0 4.758 16.285 33.831 33.831 0 0 0 10.666 11.54"/>
        <path fill="#FF634E" fill-rule="nonzero" d="M162.133 173.84c.854 1.492 4.779 7.976 7.531 12.498 2.699-1.845 4.267-5.066 4.683-9.246l-10.667-5.962a4.266 4.266 0 0 1-1.547 2.71z"/>
        <path fill="#212CFF" fill-rule="nonzero" d="M163.797 169.797v.459l10.603 5.93v-.758a31.745 31.745 0 0 0-3.584-13.97c-2.89-5.834-7.296-11.082-12.256-14.089l-.619 11.902a13.65 13.65 0 0 1 5.856 10.526z"/>
        <path fill="#02CBFF" fill-rule="nonzero" d="M156.448 185.634c4.619 2.699 9.056 3.104 12.512 1.173-.459-.757-2.133-3.519-3.819-6.292-1.685-2.773-2.73-4.511-3.285-5.47-.192-.32-.33-.566-.427-.758a4.865 4.865 0 0 1-4.437-.597l-.544 11.944z"/>
    </g>
</svg>
