<svg xmlns="http://www.w3.org/2000/svg" xmlns:xlink="http://www.w3.org/1999/xlink" width="426" height="504" viewBox="0 0 426 504">
    <defs>
        <path id="b" d="M395.784 197.244L208.41 305.239a19.261 19.261 0 0 1-17.47 0L3.632 197.244A6.091 6.091 0 0 1 0 192.124a5.096 5.096 0 0 1 1.924-3.8 8.28 8.28 0 0 1 1.708-1.232L190.984 79.097a19.304 19.304 0 0 1 17.47 0l187.33 107.995c4.8 2.765 4.8 7.3 0 10.152z"/>
        <filter id="a" width="108.6%" height="115%" x="-4.3%" y="-7.5%" filterUnits="objectBoundingBox">
            <feGaussianBlur in="SourceGraphic" stdDeviation="5.749"/>
        </filter>
        <filter id="c" width="110.1%" height="117.6%" x="-5.1%" y="-8.8%" filterUnits="objectBoundingBox">
            <feGaussianBlur in="SourceAlpha" result="shadowBlurInner1" stdDeviation="2.5"/>
            <feOffset dy="1" in="shadowBlurInner1" result="shadowOffsetInner1"/>
            <feComposite in="shadowOffsetInner1" in2="SourceAlpha" k2="-1" k3="1" operator="arithmetic" result="shadowInnerInner1"/>
            <feColorMatrix in="shadowInnerInner1" values="0 0 0 0 0 0 0 0 0 0 0 0 0 0 0 0 0 0 0.5 0"/>
        </filter>
        <linearGradient id="d" x1="50%" x2="50%" y1="0%" y2="100%">
            <stop offset="0%" stop-color="#EDF8FA"/>
            <stop offset="100%" stop-color="#CDEAF2"/>
        </linearGradient>
        <linearGradient id="e" x1="50%" x2="50%" y1="0%" y2="99.873%">
            <stop offset="0%" stop-color="#E2F1F6"/>
            <stop offset="99.377%" stop-color="#98CCDA"/>
        </linearGradient>
        <linearGradient id="f" x1="50%" x2="50%" y1="0%" y2="99.251%">
            <stop offset="0%" stop-color="#E2F1F6"/>
            <stop offset="100%" stop-color="#98CCDA"/>
        </linearGradient>
        <linearGradient id="g" x1="50%" x2="50%" y1="0%" y2="100%">
            <stop offset="0%" stop-color="#EDF8FA"/>
            <stop offset="100%" stop-color="#CDEAF2"/>
        </linearGradient>
        <linearGradient id="h" x1="50%" x2="50%" y1="0%" y2="99.873%">
            <stop offset="0%" stop-color="#E2F1F6"/>
            <stop offset="99.377%" stop-color="#98CCDA"/>
        </linearGradient>
        <linearGradient id="i" x1="50%" x2="50%" y1="0%" y2="99.873%">
            <stop offset="0%" stop-color="#E2F1F6"/>
            <stop offset="99.377%" stop-color="#98CCDA"/>
        </linearGradient>
        <linearGradient id="j" x1="50%" x2="50%" y1="0%" y2="99.873%">
            <stop offset="0%" stop-color="#E2F1F6"/>
            <stop offset="99.377%" stop-color="#98CCDA"/>
        </linearGradient>
        <linearGradient id="k" x1="50%" x2="50%" y1="0%" y2="99.873%">
            <stop offset="0%" stop-color="#E2F1F6"/>
            <stop offset="99.377%" stop-color="#98CCDA"/>
        </linearGradient>
        <linearGradient id="l" x1="50%" x2="50%" y1="0%" y2="99.873%">
            <stop offset="0%" stop-color="#E2F1F6"/>
            <stop offset="99.377%" stop-color="#98CCDA"/>
        </linearGradient>
        <linearGradient id="m" x1="50%" x2="50%" y1="0%" y2="99.873%">
            <stop offset="0%" stop-color="#E2F1F6"/>
            <stop offset="99.377%" stop-color="#98CCDA"/>
        </linearGradient>
        <linearGradient id="n" x1="50%" x2="50%" y1="0%" y2="99.873%">
            <stop offset="0%" stop-color="#E2F1F6"/>
            <stop offset="99.377%" stop-color="#98CCDA"/>
        </linearGradient>
        <linearGradient id="o" x1="50%" x2="50%" y1="0%" y2="99.873%">
            <stop offset="0%" stop-color="#E2F1F6"/>
            <stop offset="99.377%" stop-color="#98CCDA"/>
        </linearGradient>
        <linearGradient id="p" x1="54.635%" x2="48.082%" y1="20.259%" y2="113.69%">
            <stop offset="0%" stop-color="#FFF"/>
            <stop offset="27%" stop-color="#E2F7FF"/>
            <stop offset="100%" stop-color="#C5EFFE"/>
        </linearGradient>
        <linearGradient id="q" x1="48.995%" x2="50%" y1="92.152%" y2="15.453%">
            <stop offset="0%" stop-color="#C5EFFE"/>
            <stop offset="73%" stop-color="#E2F7FF"/>
            <stop offset="100%" stop-color="#FFF"/>
        </linearGradient>
    </defs>
    <g fill="none" fill-rule="evenodd">
        <g fill-rule="nonzero" filter="url(#a)" opacity=".04" transform="translate(13 182.374)">
            <use fill="#03002D" xlink:href="#b"/>
            <use fill="#000" filter="url(#c)" xlink:href="#b"/>
        </g>
        <path fill="#DCEEFF" fill-rule="nonzero" d="M408.784 335.339L221.41 443.334a17.766 17.766 0 0 1-8.649 2.16 18.048 18.048 0 0 1-8.648-2.03L16.762 335.469a5.314 5.314 0 0 1-3.613-5.033 5.314 5.314 0 0 1 3.613-5.033l25.384-14.622 161.968-93.351a19.304 19.304 0 0 1 17.47 0l187.33 107.995c4.67 2.614 4.67 7.15-.13 9.914z" opacity=".3"/>
        <path fill="url(#d)" d="M199.676 226.617v36.373a18.048 18.048 0 0 1-8.649-2.03L3.676 152.965A6.156 6.156 0 0 1 0 147.954V116.44a5.052 5.052 0 0 1 1.924-3.78l27.092 15.637 170.66 98.32z" transform="translate(13 182.374)"/>
        <path fill="url(#e)" d="M199.676 226.617v36.373c3.007.05 5.979-.647 8.648-2.03L395.72 152.965a6.156 6.156 0 0 0 3.632-5.033v-31.513a5.182 5.182 0 0 0-1.924-3.78l-27.113 15.638-170.638 98.34z" transform="translate(13 182.374)"/>
        <path fill="#E2F7FF" fill-rule="nonzero" d="M408.784 303.848L221.41 411.843a19.478 19.478 0 0 1-17.47 0L16.632 303.848A6.048 6.048 0 0 1 13 298.815a5.052 5.052 0 0 1 1.924-3.78 7.589 7.589 0 0 1 1.708-1.253l187.352-107.995a19.304 19.304 0 0 1 17.47 0l187.33 107.995c4.8 2.765 4.8 7.387 0 10.066z"/>
        <path fill="#FFF" fill-rule="nonzero" d="M212.719 185.917a15.84 15.84 0 0 1 7.654 1.792l187.33 107.996c1.6.928 2.53 2.16 2.53 3.175 0 1.015-.93 2.16-2.53 3.153L220.33 410.03a17.314 17.314 0 0 1-15.308 0L17.692 302.033c-1.622-.928-2.53-2.16-2.53-3.153.095-.86.541-1.64 1.233-2.16a5.86 5.86 0 0 1 1.319-.95l187.372-107.996a15.624 15.624 0 0 1 7.633-1.792v-.065zm0-2.095a17.723 17.723 0 0 0-8.649 2.16L16.72 293.977c-.625.336-1.2.757-1.708 1.253A5.053 5.053 0 0 0 13 298.815a6.048 6.048 0 0 0 3.632 5.033l187.309 107.995a19.478 19.478 0 0 0 17.47 0l187.373-107.995c4.8-2.765 4.8-7.3 0-10.087l-187.33-107.995a17.774 17.774 0 0 0-8.649-2.161l-.086.217z"/>
        <path fill="#1DAAE0" fill-rule="nonzero" d="M206.903 207.753l-152.26 87.714c-3.2 1.858-3.2 4.86 0 6.717l152.216 87.714a12.985 12.985 0 0 0 11.633 0l152.26-87.714c3.2-1.857 3.2-4.86 0-6.717l-152.217-87.714a12.985 12.985 0 0 0-11.632 0z"/>
        <path fill="#0A95CA" fill-rule="nonzero" d="M370.751 295.467l-152.216-87.714a12.118 12.118 0 0 0-5.816-1.382v5.918l157.038 90.457 1.016-.562c3.178-1.857 3.178-4.86-.022-6.717z"/>
        <path fill="#0A95CA" fill-rule="nonzero" d="M212.719 206.371a12.118 12.118 0 0 0-5.816 1.382l-152.26 87.714c-3.2 1.858-3.2 4.86 0 6.717l1.016.584 157.06-90.479v-5.918z"/>
        <path stroke="#FFF" stroke-linecap="round" stroke-width="2.156" d="M213.951 258.576l45.081-25.919a.778.778 0 0 0 0-1.469l-45.08-25.919a2.878 2.878 0 0 0-2.53 0l-44.908 25.94a.778.778 0 0 0 0 1.47l44.994 25.919a2.749 2.749 0 0 0 2.443-.022z"/>
        <g>
            <path fill="url(#f)" d="M111.794.907v104.13a14.975 14.975 0 0 0 7.394-1.772l96.433-55.617a16.304 16.304 0 0 0 7.394-12.787V.907H111.794z" transform="translate(100.925 240.692)"/>
            <path fill="url(#g)" d="M.594.907v33.954a16.347 16.347 0 0 0 7.373 12.787l96.54 55.617a14.953 14.953 0 0 0 7.373 1.771V.907H.594z" transform="translate(100.925 240.692)"/>
            <path fill="#EFFBFF" d="M205.303 303.999l-100.735-58.123c-4.087-2.355-4.087-6.178 0-8.64l100.864-58.015a16.318 16.318 0 0 1 14.768 0l100.778 58.123c4.065 2.354 4.065 6.177 0 8.64L220.07 303.999a16.318 16.318 0 0 1-14.767 0z"/>
            <path stroke="#FFF" stroke-width="5.156" d="M208.996 289.83a8.243 8.243 0 0 0 7.403 0l82.795-47.738.236-.08a.425.425 0 0 0 0-.803l-.236-.081-82.772-47.716a8.243 8.243 0 0 0-7.384 0l-82.512 47.59.003-.001c-1.011.585-1.011.625-.002 1.217l82.47 47.612z"/>
            <path stroke="#FFF" stroke-width="5.156" d="M213.967 205.331a2.92 2.92 0 0 0-2.428-.002l-62.942 36.292 62.972 36.308a2.79 2.79 0 0 0 2.476-.001l63.391-36.328-63.469-36.269z"/>
            <g>
                <path fill="url(#h)" d="M25.427 7.3a7.71 7.71 0 0 0-3.503-6.047 2.402 2.402 0 0 0-2.486-.216L5.189 9.266A11.66 11.66 0 0 0 0 18.381V37.95a2.462 2.462 0 0 0 1.449 2.03 7.791 7.791 0 0 0 6.983 0 2.462 2.462 0 0 0 1.45-2.03V18.705c.004-.434.233-.834.604-1.059l14.011-8.078a2.461 2.461 0 0 0 .93-2.268z" transform="translate(101.649 270.93)"/>
                <path fill="url(#i)" d="M46.81 19.698a7.71 7.71 0 0 0-3.48-6.047 2.445 2.445 0 0 0-2.508-.216l-14.27 8.164a11.726 11.726 0 0 0-5.276 9.136v19.57a2.44 2.44 0 0 0 1.448 2.008 7.704 7.704 0 0 0 7.006 0 2.44 2.44 0 0 0 1.448-2.009V31.103a1.188 1.188 0 0 1 .606-1.059l13.989-8.078a2.461 2.461 0 0 0 1.038-2.268z" transform="translate(101.649 270.93)"/>
                <path fill="url(#j)" d="M68.216 32.096a7.666 7.666 0 0 0-3.502-6.048 2.467 2.467 0 0 0-2.487-.237l-14.27 8.23a11.726 11.726 0 0 0-5.276 9.157v19.569c.073.886.63 1.66 1.449 2.009a7.661 7.661 0 0 0 6.984 0 2.398 2.398 0 0 0 1.448-2.01V43.523a1.21 1.21 0 0 1 .606-1.058l14.01-8.078a2.483 2.483 0 0 0 1.038-2.29z" transform="translate(101.649 270.93)"/>
                <path fill="url(#k)" d="M89.622 44.494a7.73 7.73 0 0 0-3.503-6.048 2.445 2.445 0 0 0-2.508-.237l-14.27 8.229a11.704 11.704 0 0 0-5.255 9.115v19.59c.074.88.62 1.65 1.428 2.009a7.704 7.704 0 0 0 7.005 0 2.44 2.44 0 0 0 1.449-2.009V55.898c-.014-.438.22-.847.605-1.058l14.076-8.078c.7-.533 1.07-1.394.973-2.268z" transform="translate(101.649 270.93)"/>
            </g>
            <g>
                <path fill="url(#l)" d="M64.865 7.3a7.71 7.71 0 0 1 3.503-6.047 2.402 2.402 0 0 1 2.486-.216l14.27 8.229a11.661 11.661 0 0 1 5.276 9.115V37.95a2.462 2.462 0 0 1-1.449 2.03 7.791 7.791 0 0 1-6.983 0 2.462 2.462 0 0 1-1.45-2.03V18.705a1.252 1.252 0 0 0-.604-1.059L65.903 9.568A2.461 2.461 0 0 1 64.865 7.3z" transform="translate(233.54 270.93)"/>
                <path fill="url(#m)" d="M43.438 19.698a7.73 7.73 0 0 1 3.503-6.047 2.445 2.445 0 0 1 2.508-.216l14.27 8.229a11.704 11.704 0 0 1 5.254 9.136V50.37a2.398 2.398 0 0 1-1.449 2.009 7.661 7.661 0 0 1-6.983 0 2.398 2.398 0 0 1-1.45-2.009V31.103a1.188 1.188 0 0 0-.605-1.059l-14.01-8.078a2.483 2.483 0 0 1-1.038-2.268z" transform="translate(233.54 270.93)"/>
                <path fill="url(#n)" d="M22.054 32.096a7.666 7.666 0 0 1 3.503-6.048 2.467 2.467 0 0 1 2.551-.13l14.27 8.23a11.726 11.726 0 0 1 5.19 9.05v19.569a2.398 2.398 0 0 1-1.45 2.009 7.661 7.661 0 0 1-6.983 0 2.398 2.398 0 0 1-1.449-2.01V43.523a1.21 1.21 0 0 0-.605-1.058l-14.01-8.078a2.483 2.483 0 0 1-1.017-2.29z" transform="translate(233.54 270.93)"/>
                <path fill="url(#o)" d="M.649 44.494a7.73 7.73 0 0 1 3.502-6.048 2.445 2.445 0 0 1 2.508-.237l14.27 8.229a11.704 11.704 0 0 1 5.255 9.115v19.59a2.398 2.398 0 0 1-1.449 2.009 7.661 7.661 0 0 1-6.984 0 2.398 2.398 0 0 1-1.448-2.009V55.898a1.21 1.21 0 0 0-.606-1.058l-14.01-8.078a2.504 2.504 0 0 1-1.038-2.268z" transform="translate(233.54 270.93)"/>
            </g>
        </g>
        <path fill="url(#p)" fill-rule="nonzero" d="M210.227 86.396a17.853 17.853 0 0 1-10.53 2.506v302.4a12.983 12.983 0 0 0 7.027-2.16l149.19-86.05c2.767-1.534 4.108-2.895 4.108-4.752V0L210.227 86.396z" opacity=".2" transform="translate(13)"/>
        <path fill="url(#q)" fill-rule="nonzero" d="M199.524 88.88c-.885.055-1.773.055-2.66 0h-.107a19.305 19.305 0 0 1-2.53-.41c-.54-.13-1.06-.324-1.578-.497-.52-.173-.649-.173-.973-.302a17.52 17.52 0 0 1-2.465-1.275L39.35 0v298.361a4.925 4.925 0 0 0 2.898 4.04l150.443 86.784a11.604 11.604 0 0 0 6.79 2.161h.194V88.88h-.152z" opacity=".3" transform="translate(13)"/>
    </g>
</svg>
