<svg xmlns="http://www.w3.org/2000/svg" xmlns:xlink="http://www.w3.org/1999/xlink" width="270" height="346" viewBox="0 0 270 346">
    <defs>
        <path id="b" d="M14.43 239.294l134.23-62.532c3.974-1.711 8.87-1.105 12.027 1.488l84.43 74.293c1.392 1.091 2.044 2.659 1.75 4.207-.294 1.548-1.498 2.886-3.231 3.591l-134.23 62.49c-3.975 1.712-8.871 1.106-12.028-1.487l-84.43-74.272c-1.392-1.088-2.045-2.652-1.75-4.198.294-1.545 1.498-2.88 3.231-3.58z"/>
        <filter id="a" width="120.5%" height="132.6%" x="-10.2%" y="-16.3%" filterUnits="objectBoundingBox">
            <feGaussianBlur in="SourceGraphic" stdDeviation="8.048"/>
        </filter>
        <filter id="c" width="123.9%" height="138%" x="-11.9%" y="-19%" filterUnits="objectBoundingBox">
            <feGaussianBlur in="SourceAlpha" result="shadowBlurInner1" stdDeviation="3.5"/>
            <feOffset dy="1" in="shadowBlurInner1" result="shadowOffsetInner1"/>
            <feComposite in="shadowOffsetInner1" in2="SourceAlpha" k2="-1" k3="1" operator="arithmetic" result="shadowInnerInner1"/>
            <feColorMatrix in="shadowInnerInner1" values="0 0 0 0 0 0 0 0 0 0 0 0 0 0 0 0 0 0 0.5 0"/>
        </filter>
        <linearGradient id="d" x1="50%" x2="50%" y1="0%" y2="100%">
            <stop offset="0%" stop-color="#EDF8FA"/>
            <stop offset="100%" stop-color="#CDEAF2"/>
        </linearGradient>
        <linearGradient id="e" x1="50%" x2="50%" y1="0%" y2="99.873%">
            <stop offset="0%" stop-color="#E2F1F6"/>
            <stop offset="99.377%" stop-color="#98CCDA"/>
        </linearGradient>
        <linearGradient id="f" x1="50%" x2="50%" y1="0%" y2="99.251%">
            <stop offset="0%" stop-color="#E2F1F6"/>
            <stop offset="100%" stop-color="#1DAAE0"/>
        </linearGradient>
        <linearGradient id="g" x1="50%" x2="50%" y1="0%" y2="99.251%">
            <stop offset="0%" stop-color="#E2F1F6"/>
            <stop offset="100%" stop-color="#1DAAE0"/>
        </linearGradient>
        <linearGradient id="h" x1="50%" x2="50%" y1="0%" y2="99.251%">
            <stop offset="0%" stop-color="#E2F1F6"/>
            <stop offset="100%" stop-color="#1DAAE0"/>
        </linearGradient>
    </defs>
    <g fill="none" fill-rule="evenodd">
        <g fill-rule="nonzero" filter="url(#a)" opacity=".04" transform="rotate(-10 132.032 215.507)">
            <use fill="#03002D" xlink:href="#b"/>
            <use fill="#000" filter="url(#c)" xlink:href="#b"/>
        </g>
        <path fill="url(#d)" d="M.156 0v136.89a14.875 14.875 0 0 0 6.703 11.7l78.324 45.266a14.115 14.115 0 0 0 6.702 1.587V87.958L.156 0z" transform="translate(17 86.4)"/>
        <path fill="url(#e)" d="M91.937 195.416a14.07 14.07 0 0 0 6.625-1.534l130.515-75.4a14.979 14.979 0 0 0 6.702-11.7v-89.83L91.937 87.958v107.458z" transform="translate(17 86.4)"/>
        <path fill="#EEFAFF" fill-rule="nonzero" d="M20.43 78.99L154.66 1.432a10.151 10.151 0 0 1 12.027 1.846l84.43 92.144a6.01 6.01 0 0 1-1.481 9.672L115.406 182.6a10.151 10.151 0 0 1-12.028-1.846l-84.43-92.118a5.983 5.983 0 0 1 1.481-9.646z"/>
        <path fill="url(#f)" d="M225.685 100.596l-115.707 66.872h-.156a6.802 6.802 0 0 1-7.794-1.248L31.991 89.858l-.312-.338a3.928 3.928 0 0 1 1.195-6.032L148.659 16.59h.182a6.412 6.412 0 0 1 4.13-.624 6.623 6.623 0 0 1 3.663 1.872L226.672 94.2v.13a4.006 4.006 0 0 1-.987 6.266z" transform="translate(6)"/>
        <path fill="url(#g)" d="M31.679 89.52l70.141 76.544a6.724 6.724 0 0 0 8.34 1.3l116.226-67.158-73.804-80.6L31.679 89.52z" transform="translate(6)"/>
        <g fill="#FFF" fill-rule="nonzero">
            <path d="M166.737 46.594l-9.68 5.892-1.351-2.22 15.735-9.579.461 18.416-2.6.065-.283-11.328-4.296 7.874c-1.009 3.587-2.612 5.98-5.805 7.815-3.88 2.23-6.593 2.094-11.993.434l-.052-.016c-4.72-1.451-6.809-1.55-9.876.23-3.07 1.78-4.025 3.64-5.132 8.477l-.008.032c-1.261 5.511-2.498 7.926-6.371 10.16-3.87 2.233-6.578 2.092-11.975.421l-.01-.003c-4.761-1.474-6.836-1.58-9.912.205-3.078 1.785-4.025 3.634-5.14 8.5-1.262 5.508-2.498 7.923-6.369 10.168-3.874 2.246-6.58 2.11-11.973.442-4.758-1.472-6.825-1.576-9.9.208l-1.305-2.25c3.874-2.246 6.58-2.11 11.973-.442 4.759 1.472 6.826 1.576 9.9-.208 3.079-1.785 4.025-3.634 5.14-8.5 1.262-5.508 2.498-7.923 6.37-10.168 3.874-2.247 6.59-2.11 11.986-.439l.01.003c4.763 1.476 6.833 1.583 9.906-.19 3.076-1.774 4.022-3.62 5.136-8.487l.007-.032c1.255-5.48 2.5-7.907 6.362-10.147s6.594-2.11 11.945-.465l.052.016c4.77 1.466 6.848 1.57 9.933-.203 2.57-1.478 3.795-3.336 4.634-6.396l.04-.146 4.44-8.139zM184.142 67.89l-9.103-6.748 1.548-2.09 14.799 10.97-16.886 7.363-1.04-2.383 10.388-4.53-8.989-1.023-.187-.035c-2.11-.562-3.808-.43-5.621.614-2.537 1.463-3.246 3.14-3.923 7.71-.784 5.297-1.757 7.598-5.195 9.58-3.425 1.975-5.902 1.662-10.863-.313l-.107-.043c-4.198-1.67-6.035-1.882-8.55-.382-2.512 1.5-3.252 3.22-3.919 7.623l-.02.136c-.793 5.248-1.768 7.532-5.194 9.514-3.438 1.99-5.942 1.693-10.96-.246l-.226-.087c-4.049-1.562-5.906-1.77-8.332-.39-2.467 1.403-3.165 3.048-3.845 7.553l-.026.171c-.772 5.113-1.794 7.468-5.187 9.431-3.41 1.974-5.909 1.671-10.813-.269l-.061-.024c-4.29-1.698-6.1-1.923-8.637-.46l-1.299-2.252c3.438-1.982 5.919-1.674 10.892.294l.062.024c4.22 1.67 6.04 1.891 8.554.437 2.506-1.45 3.255-3.175 3.918-7.57l.026-.17c.79-5.237 1.752-7.504 5.13-9.425 3.305-1.88 5.835-1.596 10.553.224l.228.088c4.337 1.675 6.176 1.894 8.721.42 2.531-1.464 3.241-3.126 3.925-7.651l.02-.137c.774-5.11 1.782-7.451 5.158-9.466 3.418-2.04 5.954-1.747 10.843.199l.108.042c4.275 1.702 6.08 1.93 8.602.477 2.536-1.463 3.246-3.14 3.922-7.71.785-5.297 1.758-7.598 5.196-9.58 2.43-1.4 4.8-1.598 7.494-.9l8.896 1.013zM197.165 85.275L186.86 80.56l1.082-2.365 16.75 7.667-14.994 10.7-1.51-2.116 9.223-6.582-9.21.88-.193-.04c-5.064-1.065-7.62-.955-11.371 1.213-3.837 2.22-5.124 4.302-6.845 9.565l-.015.046c-1.886 5.769-3.493 8.364-7.997 10.98-4.522 2.626-7.56 2.72-13.547 1.458l-.01-.002c-5.419-1.143-7.864-1.07-11.696 1.145-3.837 2.219-5.12 4.3-6.832 9.563l-.014.046c-1.877 5.77-3.48 8.366-7.986 10.982-4.522 2.627-7.565 2.724-13.545 1.468l-.02-.004c-5.415-1.138-7.86-1.065-11.69 1.139l-1.297-2.254c4.512-2.597 7.538-2.687 13.521-1.43l.02.004c5.41 1.137 7.867 1.058 11.705-1.171 3.825-2.222 5.122-4.32 6.819-9.538l.015-.046c1.891-5.816 3.481-8.395 8.002-11.01 4.517-2.611 7.546-2.702 13.535-1.438l.01.002c5.416 1.142 7.867 1.066 11.704-1.162 3.826-2.222 5.126-4.322 6.832-9.54l.015-.046c1.901-5.815 3.494-8.394 8.015-11.007 4.369-2.527 7.502-2.688 13.012-1.549l8.816-.843z"/>
        </g>
        <path fill="url(#h)" d="M152.972 15.888l-.39 3.744L31.73 89.494a3.928 3.928 0 0 1 1.195-6.032L148.659 16.59h.182a6.412 6.412 0 0 1 4.13-.702z" transform="translate(6)"/>
    </g>
</svg>
