<svg xmlns="http://www.w3.org/2000/svg" xmlns:xlink="http://www.w3.org/1999/xlink" width="185" height="138" viewBox="0 0 185 138">
    <defs>
        <path id="b" d="M32.625 20.354a1.92 1.92 0 0 1-.76.616L19.192 28.26a5.516 5.516 0 0 1-2.691.638v-.002a6.002 6.002 0 0 1-2.691-.636L1.134 20.97A1.915 1.915 0 0 1 .02 19.42v-2.93l.506-.166.853-.504c.583 1.053 1.166 2.202 2.249 2.706l-.295.185 12.655 6.503.513-.184 3.447-1.239 9.087-5.29c.807-.112 1.711-.485 2.348-1.06.402-.366.697-.813.791-1.327h.006a1.96 1.96 0 0 0 .007-.038l.795.44v2.93a1.909 1.909 0 0 1-.356.908z"/>
        <filter id="a" width="172.8%" height="283.5%" x="-36.4%" y="-68.8%" filterUnits="objectBoundingBox">
            <feOffset dy="3" in="SourceAlpha" result="shadowOffsetOuter1"/>
            <feGaussianBlur in="shadowOffsetOuter1" result="shadowBlurOuter1" stdDeviation="3.5"/>
            <feColorMatrix in="shadowBlurOuter1" values="0 0 0 0 0 0 0 0 0 0 0 0 0 0 0 0 0 0 0.1 0"/>
        </filter>
        <linearGradient id="c" x1="50%" x2="50%" y1="1.494%" y2="99.419%">
            <stop offset="0%" stop-color="#FFF"/>
            <stop offset="100%" stop-color="#FAD0A9"/>
        </linearGradient>
        <path id="e" d="M12.348 17.849c-.283.229-.715.236-1.194-.032l-2.857-1.589h.04-.04l-.535-.297L3.91 13.78l-.22-.136h-.054.053l-1.592-.885a3.273 3.273 0 0 1-1.532-2.584v-6.31c0-.822.514-1.216 1.213-.983a1.113 1.113 0 0 0-.93-.008l.92-.522a1.125 1.125 0 0 1 1.11.105L12 7.562a3.305 3.305 0 0 1 1.533 2.608v6.37c.038.374-.134.74-.45.958l-.928.521a1.07 1.07 0 0 0 .193-.17z"/>
        <filter id="d" width="130.8%" height="125.4%" x="-15.4%" y="-6.3%" filterUnits="objectBoundingBox">
            <feOffset dy="1" in="SourceAlpha" result="shadowOffsetOuter1"/>
            <feGaussianBlur in="shadowOffsetOuter1" result="shadowBlurOuter1" stdDeviation=".5"/>
            <feColorMatrix in="shadowBlurOuter1" values="0 0 0 0 0.97254902 0 0 0 0 0.529411765 0 0 0 0 0.105882353 0 0 0 0.08 0"/>
        </filter>
        <linearGradient id="f" x1="50%" x2="50%" y1="1.494%" y2="99.419%">
            <stop offset="0%" stop-color="#FFF"/>
            <stop offset="100%" stop-color="#FAD0A9"/>
        </linearGradient>
        <path id="h" d="M9.204 7.54l.166.496-1.417.479-.614-.345-1.333.13-.398.443-1.6-.182-.106-.503-1.155-.415-.77.182-1.034-.76.453-.424c-.183-.317-.262-.45-.447-.767L.156 5.71c0-.5 0-.479.015-.98l.792-.148c.192-.315.279-.447.475-.761l-.443-.427 1.061-.742.77.2 1.176-.4.125-.499 1.604-.162.385.449 1.326.152.626-.335 1.4.503-.193.493c.352.26.5.37.855.63l.843-.009.543.922-.666.305c0 .334 0 .477-.014.813l.655.315c-.293.469-.281.449-.578.918l-.835-.026-.874.619zm-5.49-.987c1.18.71 3.08.707 4.26 0 1.18-.707 1.166-1.858-.014-2.567-1.18-.71-3.08-.71-4.26 0-1.18.71-1.168 1.858.014 2.569v-.002z"/>
        <filter id="g" width="188%" height="243.9%" x="-44%" y="-57.5%" filterUnits="objectBoundingBox">
            <feOffset dy="1" in="SourceAlpha" result="shadowOffsetOuter1"/>
            <feGaussianBlur in="shadowOffsetOuter1" result="shadowBlurOuter1" stdDeviation="1.5"/>
            <feColorMatrix in="shadowBlurOuter1" values="0 0 0 0 0.97254902 0 0 0 0 0.529411765 0 0 0 0 0.105882353 0 0 0 0.18 0"/>
        </filter>
        <linearGradient id="i" x1="50%" x2="50%" y1="1.494%" y2="99.419%">
            <stop offset="0%" stop-color="#FFF"/>
            <stop offset="100%" stop-color="#FAD0A9"/>
        </linearGradient>
        <linearGradient id="j" x1="50%" x2="50%" y1="1.494%" y2="99.419%">
            <stop offset="0%" stop-color="#FFF"/>
            <stop offset="100%" stop-color="#FAD0A9"/>
        </linearGradient>
        <linearGradient id="k" x1="50%" x2="50%" y1="1.494%" y2="99.419%">
            <stop offset="0%" stop-color="#FFF"/>
            <stop offset="100%" stop-color="#FAD0A9"/>
        </linearGradient>
        <linearGradient id="l" x1="50%" x2="50%" y1="1.494%" y2="99.419%">
            <stop offset="0%" stop-color="#FFF"/>
            <stop offset="100%" stop-color="#FAD0A9"/>
        </linearGradient>
        <linearGradient id="m" x1="50%" x2="50%" y1="1.494%" y2="99.419%">
            <stop offset="0%" stop-color="#FFF"/>
            <stop offset="100%" stop-color="#FAD0A9"/>
        </linearGradient>
        <linearGradient id="n" x1="50%" x2="50%" y1="1.494%" y2="99.419%">
            <stop offset="0%" stop-color="#FFF"/>
            <stop offset="100%" stop-color="#FAD0A9"/>
        </linearGradient>
        <linearGradient id="o" x1="50%" x2="50%" y1="1.494%" y2="99.419%">
            <stop offset="0%" stop-color="#FFF"/>
            <stop offset="100%" stop-color="#FAD0A9"/>
        </linearGradient>
        <linearGradient id="p" x1="50%" x2="50%" y1="1.494%" y2="99.419%">
            <stop offset="0%" stop-color="#FFF"/>
            <stop offset="100%" stop-color="#FAD0A9"/>
        </linearGradient>
        <linearGradient id="q" x1="50%" x2="50%" y1="1.494%" y2="99.419%">
            <stop offset="0%" stop-color="#FFF"/>
            <stop offset="100%" stop-color="#FAD0A9"/>
        </linearGradient>
        <path id="s" d="M115.67 72.292a6.808 6.808 0 0 1-2.691 2.19l-44.937 25.885a19.529 19.529 0 0 1-9.542 2.266v-.005c-3.27 0-6.54-.754-9.542-2.261L4.021 74.48a6.8 6.8 0 0 1-3.953-5.508V58.57l1.795-.589 3.021-1.79c2.067 3.74 4.135 7.82 7.974 9.61l-1.045.657 44.87 23.098L58.5 88.9v-.003L70.722 84.5l32.215-18.79c2.863-.399 6.068-1.72 8.326-3.764 1.427-1.3 2.472-2.886 2.806-4.714h.022l.024-.136 2.817 1.564v10.404a6.787 6.787 0 0 1-1.261 3.228z"/>
        <filter id="r" width="171.9%" height="280.8%" x="-35.9%" y="-64.6%" filterUnits="objectBoundingBox">
            <feOffset dy="12" in="SourceAlpha" result="shadowOffsetOuter1"/>
            <feGaussianBlur in="shadowOffsetOuter1" result="shadowBlurOuter1" stdDeviation="12"/>
            <feColorMatrix in="shadowBlurOuter1" values="0 0 0 0 0 0 0 0 0 0 0 0 0 0 0 0 0 0 0.1 0"/>
        </filter>
        <linearGradient id="t" x1="50%" x2="50%" y1="1.494%" y2="99.419%">
            <stop offset="0%" stop-color="#FFF"/>
            <stop offset="100%" stop-color="#FAD0A9"/>
        </linearGradient>
        <path id="v" d="M43.78 63.394c-1.004.813-2.535.84-4.235-.113l-10.127-5.644h.142-.142l-1.898-1.055-13.661-7.64-.783-.482h-.19.19l-5.645-3.143C4.214 43.269 2.197 39.86 2 36.14V13.724c0-2.916 1.822-4.316 4.3-3.49a3.94 3.94 0 0 0-3.3-.027l3.266-1.853a3.981 3.981 0 0 1 3.933.37l32.348 18.133c3.224 2.072 5.242 5.51 5.435 9.262v22.624a3.687 3.687 0 0 1-1.598 3.404L43.094 64c.257-.177.487-.38.686-.606z"/>
        <filter id="u" width="147.8%" height="139.3%" x="-23.9%" y="-12.5%" filterUnits="objectBoundingBox">
            <feOffset dy="4" in="SourceAlpha" result="shadowOffsetOuter1"/>
            <feGaussianBlur in="shadowOffsetOuter1" result="shadowBlurOuter1" stdDeviation="3"/>
            <feColorMatrix in="shadowBlurOuter1" values="0 0 0 0 0.97254902 0 0 0 0 0.529411765 0 0 0 0 0.105882353 0 0 0 0.08 0"/>
        </filter>
        <linearGradient id="w" x1="50%" x2="50%" y1="1.494%" y2="99.419%">
            <stop offset="0%" stop-color="#FFF"/>
            <stop offset="100%" stop-color="#FAD0A9"/>
        </linearGradient>
        <path id="y" d="M32.632 26.783l.587 1.758-5.023 1.7-2.178-1.223-4.723.462-1.413 1.573-5.672-.647-.375-1.787-4.095-1.473-2.73.648-3.666-2.698 1.604-1.509c-.648-1.124-.928-1.601-1.583-2.726l-2.812-.576c0-1.78 0-1.701.054-3.48l2.806-.527c.682-1.117.99-1.587 1.686-2.705l-1.57-1.516 3.76-2.633 2.73.712 4.171-1.424.444-1.772 5.685-.576 1.365 1.594 4.703.54 2.218-1.188 4.962 1.787-.682 1.75c1.249.926 1.774 1.317 3.03 2.235l2.99-.028 1.925 3.274-2.362 1.082c0 1.188 0 1.693-.048 2.89l2.32 1.117c-1.037 1.665-.996 1.594-2.047 3.26l-2.962-.093-3.099 2.199zm-19.466-3.509c4.184 2.52 10.92 2.513 15.105 0 4.184-2.512 4.136-6.598-.048-9.117-4.184-2.52-10.92-2.52-15.105 0-4.184 2.52-4.143 6.598.048 9.124v-.007z"/>
        <filter id="x" width="189.4%" height="245.8%" x="-44.7%" y="-48.6%" filterUnits="objectBoundingBox">
            <feOffset dy="6" in="SourceAlpha" result="shadowOffsetOuter1"/>
            <feGaussianBlur in="shadowOffsetOuter1" result="shadowBlurOuter1" stdDeviation="5"/>
            <feColorMatrix in="shadowBlurOuter1" values="0 0 0 0 0.97254902 0 0 0 0 0.529411765 0 0 0 0 0.105882353 0 0 0 0.18 0"/>
        </filter>
        <linearGradient id="z" x1="50%" x2="50%" y1="1.494%" y2="99.419%">
            <stop offset="0%" stop-color="#FFF"/>
            <stop offset="100%" stop-color="#FAD0A9"/>
        </linearGradient>
        <linearGradient id="A" x1="50%" x2="50%" y1="1.494%" y2="99.419%">
            <stop offset="0%" stop-color="#FFF"/>
            <stop offset="100%" stop-color="#FAD0A9"/>
        </linearGradient>
        <linearGradient id="B" x1="50%" x2="50%" y1="1.494%" y2="99.419%">
            <stop offset="0%" stop-color="#FFF"/>
            <stop offset="100%" stop-color="#FAD0A9"/>
        </linearGradient>
        <linearGradient id="C" x1="50%" x2="50%" y1="1.494%" y2="99.419%">
            <stop offset="0%" stop-color="#FFF"/>
            <stop offset="100%" stop-color="#FAD0A9"/>
        </linearGradient>
        <linearGradient id="D" x1="50%" x2="50%" y1="1.494%" y2="99.419%">
            <stop offset="0%" stop-color="#FFF"/>
            <stop offset="100%" stop-color="#FAD0A9"/>
        </linearGradient>
        <linearGradient id="E" x1="50%" x2="50%" y1="1.494%" y2="99.419%">
            <stop offset="0%" stop-color="#FFF"/>
            <stop offset="100%" stop-color="#FAD0A9"/>
        </linearGradient>
        <linearGradient id="F" x1="50%" x2="50%" y1="1.494%" y2="99.419%">
            <stop offset="0%" stop-color="#FFF"/>
            <stop offset="100%" stop-color="#FAD0A9"/>
        </linearGradient>
        <linearGradient id="G" x1="50%" x2="50%" y1="1.494%" y2="99.419%">
            <stop offset="0%" stop-color="#FFF"/>
            <stop offset="100%" stop-color="#FAD0A9"/>
        </linearGradient>
        <linearGradient id="H" x1="50%" x2="50%" y1="1.494%" y2="99.419%">
            <stop offset="0%" stop-color="#FFF"/>
            <stop offset="100%" stop-color="#FAD0A9"/>
        </linearGradient>
        <path id="J" d="M46.466 28.777a2.73 2.73 0 0 1-1.081.87L27.333 39.953a7.903 7.903 0 0 1-3.833.902v-.002a8.6 8.6 0 0 1-3.833-.9L1.615 29.648a2.709 2.709 0 0 1-1.588-2.193v-4.141l.721-.235 1.214-.712c.83 1.488 1.661 3.112 3.203 3.825l-.42.262 18.025 9.194.73-.26v-.002l4.91-1.75 12.94-7.48c1.15-.158 2.438-.685 3.346-1.498.573-.518.992-1.149 1.127-1.876h.008l.01-.054 1.132.622v4.141a2.687 2.687 0 0 1-.507 1.286z"/>
        <filter id="I" width="174.6%" height="289.3%" x="-37.3%" y="-67.6%" filterUnits="objectBoundingBox">
            <feOffset dy="5" in="SourceAlpha" result="shadowOffsetOuter1"/>
            <feGaussianBlur in="shadowOffsetOuter1" result="shadowBlurOuter1" stdDeviation="5"/>
            <feColorMatrix in="shadowBlurOuter1" values="0 0 0 0 0 0 0 0 0 0 0 0 0 0 0 0 0 0 0.1 0"/>
        </filter>
        <linearGradient id="K" x1="50%" x2="50%" y1="1.494%" y2="99.419%">
            <stop offset="0%" stop-color="#FFF"/>
            <stop offset="100%" stop-color="#FAD0A9"/>
        </linearGradient>
        <path id="M" d="M17.587 25.234c-.403.324-1.018.335-1.701-.044l-4.069-2.247h.057-.057l-.762-.42-5.488-3.041-.314-.192h-.076.076l-2.268-1.251C1.693 17.223.882 15.867.803 14.386V5.463c0-1.16.732-1.718 1.728-1.389a1.596 1.596 0 0 0-1.326-.011l1.312-.737a1.612 1.612 0 0 1 1.58.147l12.994 7.217c1.296.825 2.106 2.194 2.184 3.688v9.005c.054.53-.191 1.047-.642 1.355l-1.321.738c.103-.07.195-.152.275-.242z"/>
        <filter id="L" width="143.3%" height="135.9%" x="-21.6%" y="-9%" filterUnits="objectBoundingBox">
            <feOffset dy="2" in="SourceAlpha" result="shadowOffsetOuter1"/>
            <feGaussianBlur in="shadowOffsetOuter1" result="shadowBlurOuter1" stdDeviation="1"/>
            <feColorMatrix in="shadowBlurOuter1" values="0 0 0 0 0.97254902 0 0 0 0 0.529411765 0 0 0 0 0.105882353 0 0 0 0.08 0"/>
        </filter>
        <linearGradient id="N" x1="50%" x2="50%" y1="1.494%" y2="99.419%">
            <stop offset="0%" stop-color="#FFF"/>
            <stop offset="100%" stop-color="#FAD0A9"/>
        </linearGradient>
        <path id="P" d="M13.109 10.661l.235.7-2.018.677-.874-.487-1.898.184-.567.626-2.279-.258-.15-.71-1.645-.587-1.097.257L1.343 9.99l.645-.6c-.26-.448-.373-.638-.636-1.086l-1.13-.23c0-.708 0-.677.022-1.385l1.127-.21c.274-.444.397-.631.677-1.076l-.63-.603 1.51-1.049 1.097.284L5.7 3.468l.178-.705 2.284-.23.549.635 1.889.215.891-.473 1.993.711-.274.697c.502.368.713.524 1.217.89l1.201-.012.774 1.303-.95.431c0 .473 0 .674-.018 1.15l.932.445c-.417.663-.4.635-.823 1.298l-1.19-.037-1.244.875zm-7.82-1.397c1.68 1.003 4.387 1 6.068 0 1.68-1 1.661-2.626-.02-3.629-1.68-1.003-4.386-1.003-6.067 0-1.68 1.003-1.664 2.627.019 3.632v-.003z"/>
        <filter id="O" width="186.5%" height="242.5%" x="-43.3%" y="-50.9%" filterUnits="objectBoundingBox">
            <feOffset dy="2" in="SourceAlpha" result="shadowOffsetOuter1"/>
            <feGaussianBlur in="shadowOffsetOuter1" result="shadowBlurOuter1" stdDeviation="2"/>
            <feColorMatrix in="shadowBlurOuter1" values="0 0 0 0 0.97254902 0 0 0 0 0.529411765 0 0 0 0 0.105882353 0 0 0 0.18 0"/>
        </filter>
        <linearGradient id="Q" x1="50%" x2="50%" y1="1.494%" y2="99.419%">
            <stop offset="0%" stop-color="#FFF"/>
            <stop offset="100%" stop-color="#FAD0A9"/>
        </linearGradient>
        <linearGradient id="R" x1="50%" x2="50%" y1="1.494%" y2="99.419%">
            <stop offset="0%" stop-color="#FFF"/>
            <stop offset="100%" stop-color="#FAD0A9"/>
        </linearGradient>
        <linearGradient id="S" x1="50%" x2="50%" y1="1.494%" y2="99.419%">
            <stop offset="0%" stop-color="#FFF"/>
            <stop offset="100%" stop-color="#FAD0A9"/>
        </linearGradient>
        <linearGradient id="T" x1="50%" x2="50%" y1="1.494%" y2="99.419%">
            <stop offset="0%" stop-color="#FFF"/>
            <stop offset="100%" stop-color="#FAD0A9"/>
        </linearGradient>
        <linearGradient id="U" x1="50%" x2="50%" y1="1.494%" y2="99.419%">
            <stop offset="0%" stop-color="#FFF"/>
            <stop offset="100%" stop-color="#FAD0A9"/>
        </linearGradient>
        <linearGradient id="V" x1="50%" x2="50%" y1="1.494%" y2="99.419%">
            <stop offset="0%" stop-color="#FFF"/>
            <stop offset="100%" stop-color="#FAD0A9"/>
        </linearGradient>
        <linearGradient id="W" x1="50%" x2="50%" y1="1.494%" y2="99.419%">
            <stop offset="0%" stop-color="#FFF"/>
            <stop offset="100%" stop-color="#FAD0A9"/>
        </linearGradient>
        <linearGradient id="X" x1="50%" x2="50%" y1="1.494%" y2="99.419%">
            <stop offset="0%" stop-color="#FFF"/>
            <stop offset="100%" stop-color="#FAD0A9"/>
        </linearGradient>
        <linearGradient id="Y" x1="50%" x2="50%" y1="1.494%" y2="99.419%">
            <stop offset="0%" stop-color="#FFF"/>
            <stop offset="100%" stop-color="#FAD0A9"/>
        </linearGradient>
    </defs>
    <g fill="none" fill-rule="evenodd">
        <use fill="#000" filter="url(#a)" transform="translate(141 87)" xlink:href="#b"/>
        <path fill="url(#c)" d="M31.866 20.97L19.19 28.26a5.516 5.516 0 0 1-2.691.638 6.024 6.024 0 0 1-2.691-.638L1.134 20.97A1.915 1.915 0 0 1 .02 19.42v-4.056l.506-.166.853-.504c.583 1.053 1.166 2.202 2.249 2.706l-.295.185 12.655 6.503.513-.184 3.447-1.239 9.087-5.29c.807-.113 1.711-.485 2.348-1.06.402-.366.697-.813.791-1.327h.006a1.96 1.96 0 0 0 .007-.039l.795.44v4.056a1.909 1.909 0 0 1-1.115 1.525z" transform="translate(141 87)"/>
        <path fill="#FFF" d="M154.79 111.22l-12.675-7.287c-1.487-.85-1.487-2.24 0-3.096l12.675-7.288a6.007 6.007 0 0 1 5.382 0l12.675 7.288c1.48.856 1.48 2.247 0 3.096l-12.675 7.288a5.968 5.968 0 0 1-5.382 0z"/>
        <path fill="#FFF" fill-rule="nonzero" d="M172.866 103.934l-12.675 7.288a5.968 5.968 0 0 1-5.382 0l-12.675-7.288a1.98 1.98 0 0 1-1.115-1.366c-.029.747.41 1.434 1.102 1.724l12.688 7.288a5.968 5.968 0 0 0 5.382 0l12.675-7.288a1.774 1.774 0 0 0 1.096-1.724 1.986 1.986 0 0 1-1.096 1.366z"/>
        <use fill="#000" filter="url(#d)" transform="translate(155.385 87)" xlink:href="#e"/>
        <path fill="#FF5D24" fill-rule="nonzero" d="M163.108 102.12l.994-.567z"/>
        <path fill="#FFF7EF" fill-rule="nonzero" d="M167.78 92.942l-9.768-5.559a1.187 1.187 0 0 0-1.188-.113l-.986.568a1.172 1.172 0 0 1 1.173.113l9.768 5.559a3.575 3.575 0 0 1 1.649 2.84v6.935c.04.408-.144.806-.483 1.043l.994-.567c.339-.238.523-.636.482-1.044v-6.936a3.61 3.61 0 0 0-1.641-2.84z"/>
        <path fill="url(#f)" d="M11.402 6.51L1.634.95C.72.433 0 .851 0 1.881v6.936a3.61 3.61 0 0 0 1.648 2.84l1.714.972h-.058.058l.237.149 4.146 2.364.576.327h.043-.043l3.074 1.746c.907.518 1.655.1 1.655-.93V9.349a3.575 3.575 0 0 0-1.648-2.84z" transform="translate(155.385 87)"/>
        <path fill="#FFB396" d="M160.143 94.553l-2.16-.653 2.16 2.194v.788l-3.052-3.188v-.823l3.052.901zM162.439 93.751l.892.596-2.116 4.544-.892-.597zM166.506 99.168v.823l-3.06-.923v-.795l2.16.667-2.16-2.2v-.788z"/>
        <g>
            <use fill="#000" filter="url(#g)" transform="translate(147.164 98.521)" xlink:href="#h"/>
            <path fill="url(#i)" d="M9.468.771l-.006 2.177-.183.49.006-2.174z" transform="translate(147.164 98.521)"/>
            <path fill="url(#j)" d="M1.432 2.03l-.005 2.176-.437-.43.005-2.177z" transform="translate(147.164 98.521)"/>
            <path fill="url(#k)" d="M11.516 2.81l-.006 2.176-.666.304.006-2.176z" transform="translate(147.164 98.521)"/>
            <path fill="url(#l)" d="M7.96 2.192a3.37 3.37 0 0 0-.221-.12l-.077-.036-.137-.062h-.017a3.267 3.267 0 0 0-.323-.114l-.026-.01-.077-.02-.192-.047-.05-.014-.075-.014-.16-.028-.06-.016h-.07l-.151-.018H5.601c-.068 0-.136 0-.203.014H5.29c-.115.012-.229.03-.342.05h-.016l-.098.022-.168.039-.117.032-.156.046-.033.01-.052.02c-.08.03-.161.06-.238.094l-.085.038a3.537 3.537 0 0 0-.285.15l-.037.022-.077.054-.11.077-.084.068c-.03.026-.063.052-.092.08l-.018.016c-.04.038-.075.076-.11.114l-.019.024-.06.07c0 .012-.01.022-.019.032-.025.036-.05.072-.07.11l-.032.047-.01.024a1.07 1.07 0 0 0-.044.096c0 .02-.019.038-.025.058v.02a.827.827 0 0 0-.025.092c0 .022-.013.042-.019.064v.016a.908.908 0 0 0-.011.099V5.659a.778.778 0 0 1 .01-.19c0-.026.013-.055.02-.08a.987.987 0 0 1 .025-.095c0-.024.022-.05.031-.076a1.07 1.07 0 0 1 .085-.166.967.967 0 0 1 .071-.11c.025-.035.05-.07.08-.105a1.995 1.995 0 0 1 .146-.152c.044-.042.061-.054.092-.08l.085-.068c.034-.026.07-.052.11-.076.038-.024.072-.052.113-.077a2.78 2.78 0 0 1 .285-.15l.084-.038c.077-.034.156-.064.24-.094l.084-.03.144-.064.118-.034c.056-.014.111-.024.167-.036.056-.012.075-.018.114-.024a3.82 3.82 0 0 1 .342-.05l.108-.01.202-.015H6.18l.14.012.15.018.135.02.16.029.125.026.192.048.103.03c.11.031.217.069.323.112l.154.068c.025.012.052.022.077.036.076.036.15.076.221.12.593.357.89.824.89 1.293V3.475c.006-.46-.297-.926-.89-1.283z" transform="translate(147.164 98.521)"/>
            <path fill="#8C803C" fill-rule="nonzero" d="M158.014 101.635v2.177c0 .334 0 .477-.014.813v-2.176c0-.337 0-.479.014-.814"/>
            <path fill="url(#m)" d="M.936 4.082L.93 6.258l-.793-.162.005-2.174z" transform="translate(147.164 98.521)"/>
            <path fill="#FBDFC5" fill-rule="nonzero" d="M158.083 103.681l-.006 2.177-.837-.026.007-2.177z"/>
            <path fill="url(#n)" d="M11.491 4.242v2.176c-.293.47-.281.45-.578.918V5.16c.291-.469.28-.449.578-.918" transform="translate(147.164 98.521)"/>
            <path fill="#FAD4B0" fill-rule="nonzero" d="M157.247 103.655v2.177l-.877.615v-2.176l.88-.616"/>
            <path fill="url(#o)" d="M1.964 6.034V8.21l-1.04-.76V5.274l1.034.76" transform="translate(147.164 98.521)"/>
            <path fill="#FBDFC5" fill-rule="nonzero" d="M149.905 104.373l-.006 2.176-.78.182.008-2.174z"/>
            <path fill="#FAD4B0" fill-rule="nonzero" d="M151.066 104.788v2.176l-1.155-.415v-2.176l1.155.415"/>
            <path fill="#FBDFC5" fill-rule="nonzero" d="M155.116 105.244l-.005 2.177-.615-.345.006-2.176z"/>
            <path fill="#FAD4B0" fill-rule="nonzero" d="M154.502 104.9v2.176l-1.332.13v-2.176l1.332-.13"/>
            <path fill="url(#p)" d="M9.37 6.244V8.42l-1.417.48V6.722l1.417-.479" transform="translate(147.164 98.521)"/>
            <path fill="#FBDFC5" fill-rule="nonzero" d="M151.172 105.29l-.006 2.177-.106-.503.006-2.176z"/>
            <path fill="url(#q)" d="M5.608 6.951v2.177l-1.6-.183V6.77l1.6.182" transform="translate(147.164 98.521)"/>
            <path fill="#FDE9D7" fill-rule="nonzero" d="M156.368 104.27l.165.496-1.417.478-.614-.344-1.332.13-.398.443-1.6-.182-.106-.503-1.155-.415-.77.182-1.034-.76.452-.424c-.182-.317-.261-.451-.446-.768l-.793-.162c0-.5 0-.479.015-.98l.791-.148c.193-.315.28-.447.476-.762l-.443-.426 1.06-.742.77.2 1.177-.4.125-.5 1.604-.162.385.45 1.326.152.626-.335 1.4.503-.193.493c.352.26.5.37.855.63l.843-.009.543.922-.666.304c0 .335 0 .477-.014.814l.655.315c-.293.469-.281.449-.578.917l-.835-.026-.874.62zm-5.49-.987c1.18.71 3.08.707 4.26 0 1.18-.708 1.166-1.858-.014-2.567-1.18-.71-3.08-.71-4.26 0-1.18.71-1.169 1.857.013 2.569v-.002z"/>
            <path fill="#FBDFC5" fill-rule="nonzero" d="M153.17 105.03l-.006 2.176-.398.443.006-2.176z"/>
        </g>
        <g>
            <use fill="#000" filter="url(#r)" transform="translate(45)" xlink:href="#s"/>
            <path fill="url(#t)" d="M112.979 74.481l-44.937 25.886a19.529 19.529 0 0 1-9.542 2.266c-3.27-.005-6.54-.759-9.542-2.266L4.021 74.48a6.8 6.8 0 0 1-3.953-5.508V54.57l1.795-.589 3.021-1.79c2.067 3.74 4.135 7.82 7.974 9.61l-1.045.657 44.87 23.098L58.5 84.9l12.222-4.4 32.215-18.79c2.863-.399 6.068-1.72 8.326-3.764 1.427-1.3 2.472-2.886 2.806-4.714h.022l.024-.136 2.817 1.564v14.404a6.808 6.808 0 0 1-3.953 5.417z" transform="translate(45)"/>
            <path fill="#FFF" d="M93.89 86.025L48.953 60.14c-5.27-3.015-5.27-7.956 0-10.993L93.89 23.26a21.262 21.262 0 0 1 19.084 0l44.937 25.886c5.248 3.037 5.248 7.978 0 10.993l-44.937 25.885a21.126 21.126 0 0 1-19.084 0z"/>
            <path fill="#FFF" fill-rule="nonzero" d="M157.979 60.145l-44.937 25.886a21.126 21.126 0 0 1-19.084 0L49.021 60.145a7.03 7.03 0 0 1-3.953-4.85 6.368 6.368 0 0 0 3.907 6.12L93.958 87.3a21.126 21.126 0 0 0 19.084 0l44.937-25.885a6.3 6.3 0 0 0 3.885-6.12 7.052 7.052 0 0 1-3.885 4.85z"/>
            <use fill="#000" filter="url(#u)" transform="translate(96)" xlink:href="#v"/>
            <path fill="#FF5D24" fill-rule="nonzero" d="M123.384 53.704l3.522-2.017z"/>
            <path fill="#FFF7EF" fill-rule="nonzero" d="M139.947 21.104L105.315 1.362a4.202 4.202 0 0 0-4.21-.404l-3.497 2.017a4.15 4.15 0 0 1 4.16.404l34.631 19.742c3.478 2.236 5.654 5.99 5.845 10.085v24.633a4.04 4.04 0 0 1-1.71 3.707l3.522-2.017a4.04 4.04 0 0 0 1.71-3.707V31.19c-.206-4.085-2.367-7.83-5.82-10.085z"/>
            <path fill="url(#w)" d="M40.425 23.12L5.793 3.38C2.553 1.538 0 3.026 0 6.682v24.633c.212 4.09 2.382 7.835 5.844 10.085l6.074 3.455h-.204.204l.842.529 14.7 8.396 2.042 1.16h.153-.153L40.4 61.142c3.216 1.84 5.87.353 5.87-3.303V33.206c-.19-4.095-2.366-7.85-5.844-10.085z" transform="translate(96)"/>
            <path fill="#FFB396" d="M112.87 26.827l-7.657-2.32 7.656 7.791v2.799l-10.82-11.32V20.85l10.82 3.203zM121.01 23.978l3.165 2.118-7.503 16.136-3.165-2.118zM135.43 43.216v2.924l-10.847-3.277v-2.824l7.657 2.37-7.657-7.816v-2.799z"/>
            <g>
                <use fill="#000" filter="url(#x)" transform="translate(66.853 40.921)" xlink:href="#y"/>
                <path fill="url(#z)" d="M33.567 2.74l-.02 7.73-.649 1.743.02-7.722z" transform="translate(66.853 40.921)"/>
                <path fill="url(#A)" d="M5.078 7.21l-.02 7.73-1.55-1.531.02-7.73z" transform="translate(66.853 40.921)"/>
                <path fill="url(#B)" d="M40.83 9.978l-.021 7.73-2.362 1.081.02-7.729z" transform="translate(66.853 40.921)"/>
                <path fill="url(#C)" d="M28.223 7.786c-.253-.15-.512-.292-.785-.427l-.273-.128-.485-.22h-.061a11.57 11.57 0 0 0-1.147-.406l-.088-.036-.273-.071-.683-.164-.177-.05-.267-.05-.566-.099-.212-.057h-.252l-.533-.064h-2.566c-.239 0-.478 0-.717.05h-.382c-.41.043-.812.107-1.215.178h-.054l-.348.078-.594.135-.417.114-.552.164-.116.035-.185.072c-.286.106-.573.213-.846.334l-.3.135c-.349.164-.683.342-1.01.534l-.13.078-.273.193-.39.27-.3.242c-.109.093-.225.185-.327.285l-.062.057c-.143.135-.266.27-.389.405l-.068.086-.212.249c0 .043-.04.078-.068.114a4.208 4.208 0 0 0-.252.391l-.11.164-.034.085c-.058.111-.11.225-.157.342 0 .071-.068.135-.088.206v.072a2.942 2.942 0 0 0-.09.327c0 .078-.047.15-.067.228v.057a3.23 3.23 0 0 0-.041.348V20.1a2.768 2.768 0 0 1 0-.327c.005-.117.016-.234.034-.35 0-.092.048-.191.075-.284a3.51 3.51 0 0 1 .089-.334c0-.086.075-.178.109-.27a3.802 3.802 0 0 1 .3-.591c.076-.137.16-.268.253-.392.088-.12.177-.249.28-.37a7.081 7.081 0 0 1 .519-.54c.156-.15.218-.193.327-.286l.3-.242a5.49 5.49 0 0 1 .39-.27c.136-.085.259-.185.402-.27a9.847 9.847 0 0 1 1.01-.534l.3-.136c.273-.12.553-.227.847-.334l.3-.107.512-.228.416-.12c.198-.05.396-.086.594-.129.198-.042.266-.064.403-.085a13.52 13.52 0 0 1 1.215-.178l.382-.036.717-.05h2.075l.498.043.532.064.478.072.566.1.444.092.683.17.361.107c.389.113.772.246 1.147.399l.546.242c.089.043.184.078.273.128.27.127.531.27.785.427 2.102 1.267 3.153 2.925 3.153 4.59v-7.729c.02-1.63-1.05-3.288-3.153-4.555z" transform="translate(66.853 40.921)"/>
                <path fill="#8C803C" fill-rule="nonzero" d="M105.321 51.981v7.73c0 1.188 0 1.693-.048 2.89v-7.73c0-1.196 0-1.701.048-2.89"/>
                <path fill="url(#D)" d="M3.317 14.498l-.02 7.73-2.812-.577.02-7.723z" transform="translate(66.853 40.921)"/>
                <path fill="#FBDFC5" fill-rule="nonzero" d="M105.567 59.248l-.02 7.73-2.97-.093.028-7.73z"/>
                <path fill="url(#E)" d="M40.74 15.067v7.73c-1.037 1.665-.996 1.594-2.047 3.26v-7.73c1.03-1.666.99-1.594 2.048-3.26" transform="translate(66.853 40.921)"/>
                <path fill="#FAD4B0" fill-rule="nonzero" d="M102.605 59.155v7.73l-3.113 2.185v-7.73l3.12-2.185"/>
                <path fill="url(#F)" d="M6.962 21.43v7.73l-3.686-2.698v-7.73l3.665 2.698" transform="translate(66.853 40.921)"/>
                <path fill="#FBDFC5" fill-rule="nonzero" d="M76.573 61.703l-.02 7.73-2.765.647.027-7.722z"/>
                <path fill="#FAD4B0" fill-rule="nonzero" d="M80.688 63.177v7.729l-4.095-1.473v-7.73l4.095 1.474"/>
                <path fill="#FBDFC5" fill-rule="nonzero" d="M95.049 64.8l-.02 7.729-2.178-1.225.02-7.729z"/>
                <path fill="#FAD4B0" fill-rule="nonzero" d="M92.872 63.575v7.73l-4.724.462v-7.73l4.724-.462"/>
                <path fill="url(#G)" d="M33.22 22.177v7.73l-5.024 1.7v-7.729l5.023-1.7" transform="translate(66.853 40.921)"/>
                <path fill="#FBDFC5" fill-rule="nonzero" d="M81.064 64.963l-.02 7.73-.376-1.787.02-7.73z"/>
                <path fill="url(#H)" d="M19.882 24.69v7.729l-5.672-.648v-7.729l5.672.648" transform="translate(66.853 40.921)"/>
                <path fill="#FDE9D7" fill-rule="nonzero" d="M99.485 61.34l.587 1.758L95.05 64.8l-2.177-1.224-4.724.463-1.412 1.573-5.672-.648-.376-1.786-4.095-1.474-2.73.648-3.665-2.697 1.604-1.51c-.649-1.124-.929-1.6-1.584-2.725l-2.812-.577c0-1.779 0-1.7.055-3.48l2.805-.527c.682-1.117.99-1.587 1.686-2.704l-1.57-1.516 3.76-2.634 2.73.712 4.171-1.423.444-1.772 5.685-.577 1.365 1.594 4.703.541 2.218-1.188 4.962 1.786-.682 1.75c1.249.926 1.775 1.318 3.03 2.236l2.99-.029 1.925 3.274-2.362 1.082c0 1.189 0 1.694-.048 2.89l2.321 1.117c-1.037 1.665-.997 1.594-2.048 3.26l-2.962-.093-3.099 2.2zM80.02 57.832c4.184 2.52 10.921 2.512 15.105 0 4.184-2.513 4.136-6.598-.048-9.118-4.184-2.52-10.92-2.52-15.104 0-4.184 2.52-4.143 6.598.047 9.125v-.007z"/>
                <path fill="#FBDFC5" fill-rule="nonzero" d="M88.148 64.038l-.02 7.73-1.413 1.572.02-7.73z"/>
            </g>
        </g>
        <g>
            <use fill="#000" filter="url(#I)" transform="translate(9 77)" xlink:href="#J"/>
            <path fill="url(#K)" d="M45.385 29.648L27.333 39.952a7.903 7.903 0 0 1-3.833.902 8.632 8.632 0 0 1-3.833-.902L1.615 29.648a2.709 2.709 0 0 1-1.588-2.193v-5.733l.721-.235 1.214-.713c.83 1.49 1.661 3.113 3.203 3.826l-.42.262 18.025 9.194.73-.26 4.91-1.752 12.94-7.48c1.15-.159 2.438-.685 3.346-1.498.573-.518.992-1.15 1.127-1.877h.008l.01-.054 1.132.623v5.733a2.687 2.687 0 0 1-.507 1.286 2.73 2.73 0 0 1-1.081.87z" transform="translate(9 77)"/>
            <path fill="#FFF" d="M28.64 111.243L10.588 100.94c-2.117-1.2-2.117-3.167 0-4.376L28.64 86.26a8.611 8.611 0 0 1 7.666 0l18.051 10.304c2.109 1.21 2.109 3.176 0 4.376l-18.051 10.304a8.556 8.556 0 0 1-7.666 0z"/>
            <path fill="#FFF" fill-rule="nonzero" d="M54.385 100.941l-18.052 10.304a8.556 8.556 0 0 1-7.666 0l-18.052-10.304a2.804 2.804 0 0 1-1.588-1.93 2.534 2.534 0 0 0 1.57 2.436l18.07 10.303a8.556 8.556 0 0 0 7.666 0l18.052-10.303a2.507 2.507 0 0 0 1.56-2.437 2.812 2.812 0 0 1-1.56 1.931z"/>
            <use fill="#000" filter="url(#L)" transform="translate(29.487 77)" xlink:href="#M"/>
            <path fill="#FF5D24" fill-rule="nonzero" d="M40.488 98.377l1.414-.802z"/>
            <path fill="#FFF7EF" fill-rule="nonzero" d="M47.141 85.4L33.23 77.542a1.701 1.701 0 0 0-1.691-.16l-1.405.802a1.68 1.68 0 0 1 1.671.16l13.912 7.86a5.048 5.048 0 0 1 2.348 4.014v9.805a1.603 1.603 0 0 1-.687 1.476l1.415-.803c.482-.336.744-.899.686-1.475v-9.806a5.097 5.097 0 0 0-2.337-4.015z"/>
            <path fill="url(#N)" d="M16.24 9.203L2.326 1.345C1.025.612 0 1.205 0 2.66v9.805a5.097 5.097 0 0 0 2.348 4.015l2.44 1.375h-.082.082l.338.21 5.905 3.343.82.461h.062-.062l4.378 2.47c1.292.732 2.358.14 2.358-1.316v-9.805a5.048 5.048 0 0 0-2.348-4.015z" transform="translate(29.487 77)"/>
            <path fill="#FFB396" d="M36.264 87.679l-3.076-.924 3.076 3.102v1.114l-4.347-4.507V85.3l4.347 1.275zM39.534 86.545l1.271.843-3.014 6.423-1.271-.843zM45.326 94.202v1.165l-4.357-1.305v-1.124l3.076.943-3.076-3.111v-1.114z"/>
            <g>
                <use fill="#000" filter="url(#O)" transform="translate(17.779 93.289)" xlink:href="#P"/>
                <path fill="url(#Q)" d="M13.484 1.09l-.008 3.077-.26.695.008-3.074z" transform="translate(17.779 93.289)"/>
                <path fill="url(#R)" d="M2.04 2.87l-.008 3.077-.623-.61.009-3.076z" transform="translate(17.779 93.289)"/>
                <path fill="url(#S)" d="M16.402 3.972l-.009 3.077-.948.43.008-3.076z" transform="translate(17.779 93.289)"/>
                <path fill="url(#T)" d="M11.337 3.1a4.812 4.812 0 0 0-.315-.17l-.11-.052-.194-.087h-.025a4.676 4.676 0 0 0-.46-.162l-.036-.014-.11-.028-.274-.066-.071-.02-.107-.02-.228-.039-.085-.023h-.101l-.214-.025H7.976c-.096 0-.192 0-.288.02h-.153a6.986 6.986 0 0 0-.489.07h-.021l-.14.032-.239.054-.167.045-.222.065-.047.014-.074.029c-.115.042-.23.085-.34.133l-.12.054a5.05 5.05 0 0 0-.406.212l-.052.031-.11.077-.156.107-.12.097c-.045.037-.091.073-.133.113l-.024.023a2.848 2.848 0 0 0-.156.161l-.028.034-.085.1c0 .016-.016.03-.027.045-.037.05-.07.102-.102.155l-.044.066-.013.034c-.024.044-.045.09-.063.136 0 .028-.028.053-.036.082v.028a1.163 1.163 0 0 0-.036.13c0 .032-.019.06-.027.091v.023a1.274 1.274 0 0 0-.017.139V8a1.252 1.252 0 0 1 .014-.27c0-.036.02-.076.03-.113.01-.045.022-.09.036-.133 0-.034.03-.07.044-.108a1.507 1.507 0 0 1 .12-.235c.03-.054.065-.106.102-.156.036-.048.071-.099.112-.147a2.83 2.83 0 0 1 .208-.215c.064-.06.088-.077.132-.114l.121-.096c.05-.037.101-.074.156-.108.055-.034.104-.073.162-.107.131-.079.267-.15.406-.213l.12-.054c.11-.048.223-.09.34-.133l.121-.042.206-.09.167-.049c.08-.02.159-.034.238-.051.08-.017.107-.026.162-.034.16-.031.324-.054.488-.07l.154-.015.288-.02H8.8l.2.017.214.026.192.028.228.04.178.036.274.068.145.043c.157.045.31.098.461.159l.22.096c.035.017.073.031.11.05.107.051.213.108.314.17.845.505 1.267 1.165 1.267 1.828V4.913c.008-.65-.422-1.31-1.267-1.814z" transform="translate(17.779 93.289)"/>
                <path fill="#8C803C" fill-rule="nonzero" d="M33.232 97.692v3.076c0 .473 0 .675-.02 1.15v-3.076c0-.476 0-.677.02-1.15"/>
                <path fill="url(#U)" d="M1.333 5.771l-.009 3.077-1.13-.23.009-3.074z" transform="translate(17.779 93.289)"/>
                <path fill="#FBDFC5" fill-rule="nonzero" d="M33.33 100.584l-.008 3.077-1.193-.037.011-3.077z"/>
                <path fill="url(#V)" d="M16.366 5.998v3.076c-.417.663-.4.635-.823 1.298V7.295c.414-.663.398-.634.823-1.297" transform="translate(17.779 93.289)"/>
                <path fill="#FAD4B0" fill-rule="nonzero" d="M32.14 100.547v3.077l-1.25.87v-3.077l1.253-.87"/>
                <path fill="url(#W)" d="M2.797 8.53v3.077l-1.48-1.074V7.457L2.787 8.53" transform="translate(17.779 93.289)"/>
                <path fill="#FBDFC5" fill-rule="nonzero" d="M21.683 101.562l-.008 3.076-1.11.258.01-3.074z"/>
                <path fill="#FAD4B0" fill-rule="nonzero" d="M23.336 102.148v3.077l-1.645-.587v-3.076l1.645.586"/>
                <path fill="#FBDFC5" fill-rule="nonzero" d="M29.105 102.794l-.008 3.077-.875-.488.008-3.076z"/>
                <path fill="#FAD4B0" fill-rule="nonzero" d="M28.23 102.307v3.076l-1.897.184v-3.076l1.897-.184"/>
                <path fill="url(#X)" d="M13.344 8.828v3.077l-2.018.677V9.505l2.018-.677" transform="translate(17.779 93.289)"/>
                <path fill="#FBDFC5" fill-rule="nonzero" d="M23.487 102.86l-.008 3.076-.15-.711.007-3.077z"/>
                <path fill="url(#Y)" d="M7.987 9.828v3.077l-2.279-.258V9.57l2.279.258" transform="translate(17.779 93.289)"/>
                <path fill="#FDE9D7" fill-rule="nonzero" d="M30.887 101.417l.236.7-2.018.677-.875-.487-1.897.184-.567.626-2.279-.258-.15-.711-1.646-.586-1.097.257-1.472-1.073.644-.601c-.26-.448-.372-.637-.636-1.085L18 98.83c0-.708 0-.677.023-1.385l1.127-.21c.274-.444.397-.631.677-1.076l-.63-.604 1.51-1.048 1.097.283 1.675-.566.178-.706 2.284-.229.548.635 1.89.215.89-.473 1.994.71-.274.698c.501.368.713.524 1.217.89l1.201-.012.773 1.303-.948.43c0 .474 0 .675-.02 1.151l.933.445c-.417.663-.4.635-.823 1.297l-1.19-.036-1.245.875zm-7.82-1.397c1.681 1.003 4.388 1 6.068 0 1.681-1 1.662-2.626-.019-3.629-1.68-1.003-4.387-1.003-6.068 0-1.68 1.003-1.664 2.626.02 3.632v-.003z"/>
                <path fill="#FBDFC5" fill-rule="nonzero" d="M26.333 102.49l-.008 3.077-.568.627.009-3.077z"/>
            </g>
        </g>
    </g>
</svg>
