<svg xmlns="http://www.w3.org/2000/svg" width="22" height="22" viewBox="0 0 22 22">
    <path fill="#FFF" fill-rule="nonzero" d="M11 0C4.925 0 0 4.925 0 11s4.925 11 11 11 11-4.925 11-11S17.075 0 11 0zm6.532 17.532a9.21 9.21 0 0 1-3.787 2.292v-1.648c0-.867-.298-1.504-.892-1.912a9.625 9.625 0 0 0 1.026-.15c.311-.065.64-.158.988-.28.347-.122.659-.267.935-.435.275-.168.54-.387.795-.655.254-.269.467-.573.639-.913.172-.34.308-.749.408-1.225.1-.476.15-1 .15-1.574 0-1.11-.361-2.055-1.085-2.836.33-.86.294-1.794-.107-2.803l-.269-.033c-.186-.021-.52.058-1.004.237-.483.179-1.026.472-1.627.88a9.883 9.883 0 0 0-2.654-.354 9.69 9.69 0 0 0-2.642.355 9.2 9.2 0 0 0-1.08-.64 5.558 5.558 0 0 0-.816-.343 2.8 2.8 0 0 0-.57-.113 2.017 2.017 0 0 0-.338-.01.687.687 0 0 0-.107.02c-.401 1.018-.437 1.952-.108 2.804-.723.78-1.085 1.726-1.085 2.836 0 .573.05 1.098.15 1.574.1.476.237.884.409 1.225.172.34.385.644.639.913a3.9 3.9 0 0 0 .795.655c.276.168.587.313.934.435.348.122.677.215.989.28.311.064.653.114 1.026.15-.588.4-.881 1.038-.881 1.912v1.68a9.182 9.182 0 0 1-3.896-2.324A9.21 9.21 0 0 1 1.762 11a9.21 9.21 0 0 1 2.706-6.532A9.209 9.209 0 0 1 11 1.762a9.21 9.21 0 0 1 6.533 2.706A9.21 9.21 0 0 1 20.238 11a9.21 9.21 0 0 1-2.706 6.532z"/>
</svg>
