<svg xmlns="http://www.w3.org/2000/svg" width="161" height="70" viewBox="0 0 161 70">
    <g fill="#FFF" fill-rule="evenodd">
        <text font-family="OpenSans-Bold, Open Sans" font-size="22" font-weight="bold">
            <tspan x="77" y="35">DATA</tspan> <tspan x="77" y="59">KERNEL</tspan>
        </text>
        <path d="M30.796 35l14.806-8.305v16.61zM30.204 35l-14.806-8.305v16.61zM15.398 43.898l14.806-8.305v16.61z"/>
        <path d="M46.194 43.898L61 35.593v16.61zM46.194 26.102L61 17.797v16.61z" opacity=".06"/>
        <path d="M45.602 43.898l-14.806 8.305v-16.61z"/>
        <path d="M15.398 61.695l14.806-8.305V70zM45.602 61.695L30.796 70V53.39z" opacity=".06"/>
        <path d="M15.398 26.102l14.806-8.305v16.61zM45.602 26.102l-14.806 8.305v-16.61z"/>
        <path d="M14.806 26.102L0 34.407v-16.61zM14.806 43.898L0 52.203v-16.61zM15.398 8.305L30.204 0v16.61zM45.602 8.305L30.796 16.61V0z" opacity=".06"/>
        <path d="M30.796 17.203l14.806-8.305v16.61zM0 17.203l14.806-8.305v16.61zM30.204 17.203L15.398 8.898v16.61zM61 17.203L46.194 8.898v16.61zM0 35l14.806-8.305v16.61zM30.204 52.797l-14.806-8.305v16.61zM0 52.797l14.806-8.305v16.61zM61 52.797l-14.806-8.305v16.61zM30.796 52.797l14.806-8.305v16.61zM61 35l-14.806-8.305v16.61z" opacity=".2"/>
    </g>
</svg>
