<svg xmlns="http://www.w3.org/2000/svg" width="22" height="18" viewBox="0 0 22 18">
    <path fill="#C5CDCF" fill-rule="nonzero" d="M22 2.13c-.818.362-1.69.602-2.599.718a4.51 4.51 0 0 0 1.984-2.51 8.976 8.976 0 0 1-2.86 1.1A4.505 4.505 0 0 0 15.231 0c-2.497 0-4.507 2.04-4.507 4.543 0 .36.03.706.104 1.036-3.75-.185-7.067-1.994-9.296-4.751a4.597 4.597 0 0 0-.618 2.296c0 1.573.805 2.967 2.004 3.774a4.43 4.43 0 0 1-2.038-.56v.05a4.555 4.555 0 0 0 3.614 4.463c-.368.101-.768.15-1.183.15-.289 0-.58-.017-.854-.078.585 1.799 2.243 3.121 4.215 3.164a9.022 9.022 0 0 1-5.593 1.937A8.39 8.39 0 0 1 0 15.962 12.633 12.633 0 0 0 6.919 18c8.3 0 12.837-6.923 12.837-12.924 0-.2-.007-.395-.017-.587A9.033 9.033 0 0 0 22 2.13z"/>
</svg>
