<svg xmlns="http://www.w3.org/2000/svg" width="26" height="21" viewBox="0 0 26 21">
    <g fill="#FF8B1C" fill-rule="nonzero">
        <path d="M24.001.05H2a.872.872 0 0 0-.869.876v16.586c0 .484.389.876.869.876H24c.48 0 .869-.392.869-.876V.926a.872.872 0 0 0-.869-.876zm-.868 16.586H2.867V1.802h20.266v14.834z"/>
        <path d="M18.363 4.372l-2.865-.335c-.842-.098-1.797 0-2.498.551-.825-.649-1.656-.649-2.498-.55l-2.865.334A.72.72 0 0 0 7 5.088v7.71c0 .162.053.312.144.433l-.003.048c0 .398.323.721.72.721h3.976c.218 0 1.058-.33 1.163-.982.1.657.89.982 1.108.982h4.03a.72.72 0 0 0 .72-.72c0-.017 0-.033-.002-.05.09-.12.144-.27.144-.431V5.088a.72.72 0 0 0-.637-.716zM25.131 19.198H.87a.872.872 0 0 0-.869.876c0 .484.389.876.869.876H25.13c.48 0 .869-.392.869-.876a.872.872 0 0 0-.869-.876z"/>
    </g>
</svg>
